<?xml version="1.0" standalone="no"?>
<!DOCTYPE svg PUBLIC "-//W3C//DTD SVG 1.1//EN" "http://www.w3.org/Graphics/SVG/1.1/DTD/svg11.dtd" >
<svg xmlns="http://www.w3.org/2000/svg">
<metadata>
This is a custom SVG webfont generated by Font Squirrel.
Copyright   :  2006 Microsoft Corporation All Rights Reserved
Designer    : Lucas de Groot
Foundry     : Microsoft Corporation
Foundry URL : httpwwwmicrosoftcomtypographyctfonts
</metadata>
<defs>
<font id="CalibriItalic" horiz-adv-x="1053" >
<font-face units-per-em="2048" ascent="1536" descent="-512" />
<missing-glyph horiz-adv-x="463" />
<glyph unicode=" "  horiz-adv-x="463" />
<glyph unicode="&#x09;" horiz-adv-x="463" />
<glyph unicode="&#xa0;" horiz-adv-x="463" />
<glyph unicode="!" horiz-adv-x="667" d="M187 52q0 13 2.5 32t7.5 39t13 38.5t18 29.5q16 16 37 21.5t54 5.5q29 0 47 -4.5t27.5 -12.5t13 -20t3.5 -25q0 -14 -3 -33.5t-8.5 -39t-13 -37t-18.5 -27.5q-14 -15 -36 -22t-57 -7q-26 0 -43.5 4t-27 11.5t-13 19.5t-3.5 27zM279 359q-2 6 0 14l172 954q3 13 9 22 t18 14.5t30 8t44 2.5q27 0 44 -2.5t26.5 -8.5t11.5 -15t-1 -21l-208 -954q-1 -8 -6 -14t-15 -10t-24.5 -6t-35.5 -2q-22 0 -35 2t-20.5 6t-9.5 10z" />
<glyph unicode="&#x22;" horiz-adv-x="821" d="M248 902l72 463q1 8 6.5 14t17 10t28.5 6t40 2q48 0 65.5 -8t13.5 -24l-117 -463q-1 -8 -5.5 -14t-12.5 -10t-21 -6t-31 -2t-29.5 2t-17.5 6t-8 10t-1 14zM603 902l72 463q1 8 6.5 14t17 10t28.5 6t40 2q48 0 65.5 -8t13.5 -24l-117 -463q-1 -8 -5.5 -14t-13 -10 t-20.5 -6t-30 -2t-29.5 2t-18 6t-8.5 10t-1 14z" />
<glyph unicode="#" horiz-adv-x="1020" d="M26 398q0 10 2 25.5t8 31t15.5 26t24.5 10.5h132l108 331h-120q-14 0 -20 9.5t-6 27.5q0 14 4 30t10.5 29.5t15.5 22.5t20 9h137l105 321q1 8 6.5 13.5t15.5 9t26 5t38 1.5q23 0 36.5 -2t19.5 -5.5t7 -9t-1 -11.5l-105 -322h277l104 321q3 15 20.5 22t62.5 7q23 0 37 -2 t20.5 -5.5t8 -9t-0.5 -11.5l-103 -322h115q13 0 19 -9.5t6 -23.5q0 -9 -3 -25t-9 -31.5t-15.5 -27t-23.5 -11.5h-129l-109 -331h117q12 0 18.5 -9t6.5 -25q0 -11 -3 -27t-9 -31t-16 -25t-24 -10h-133l-109 -342q-6 -16 -24 -22t-63 -6q-23 0 -36.5 1.5t-20 5t-7.5 9t2 12.5 l111 342h-278l-111 -342q-3 -8 -7 -13t-13 -8.5t-23 -5t-37 -1.5t-37.5 1.5t-22 5t-9 9t0.5 12.5l111 342h-116q-24 0 -24 34zM356 491h278l108 331h-278z" />
<glyph unicode="$" horiz-adv-x="1038" d="M31 127q0 5 1.5 16t3.5 22.5t5.5 24t8.5 22.5t11.5 16.5t14.5 6.5q12 0 33 -14t57 -31.5t88 -31.5t128 -14q101 0 169 23t108.5 59t58 81t17.5 89q0 47 -22.5 78.5t-58.5 55.5t-83 42t-96 38t-96 43t-83 56t-58.5 80t-22.5 113q0 70 25 138t79 122t139 89.5t203 42.5 l61 201q2 6 5.5 11.5t11 9.5t20.5 5.5t33 1.5q22 0 36 -2t21 -6.5t8 -10.5t-2 -14l-61 -202q52 -9 100 -26.5t75 -37.5q19 -13 24 -22.5t5 -20.5q0 -7 -1.5 -18t-3.5 -23t-5.5 -25t-8 -23t-11 -16.5t-14.5 -6.5q-12 0 -31.5 13.5t-52 29t-80 29t-116.5 13.5 q-79 0 -132.5 -21.5t-86.5 -55t-47 -74.5t-14 -81q0 -43 22.5 -73t59 -53t83.5 -41.5t96 -38t96 -44t84 -59t59 -82.5t22 -115q0 -80 -29.5 -153t-93 -129t-160 -92.5t-229.5 -41.5l-66 -217q-5 -13 -18 -20.5t-53 -7.5q-22 0 -35.5 2.5t-20.5 6t-8 10t2 14.5l66 217 q-63 8 -116 24t-86 37q-23 15 -30.5 27t-7.5 34z" />
<glyph unicode="%" horiz-adv-x="1464" d="M162 855q0 38 5.5 87t20.5 99.5t40 98.5t63.5 85t92.5 60.5t126 23.5q64 0 108.5 -17t71.5 -46.5t38.5 -70.5t11.5 -89q0 -35 -5.5 -82.5t-19.5 -98t-39 -99.5t-64 -88t-94 -62.5t-129 -23.5q-57 0 -100 15t-71 43t-42 69.5t-14 95.5zM302 862q0 -64 25 -91.5t79 -27.5 q40 0 70.5 19t52 49t35 67.5t21.5 75.5t11.5 70.5t3.5 54.5q0 58 -22.5 88.5t-82.5 30.5q-40 0 -70 -19.5t-51.5 -50.5t-35.5 -69t-22 -75t-11 -69.5t-3 -52.5zM796 208q0 38 5.5 87t20.5 99.5t40 98.5t63.5 85t92.5 60.5t126 23.5q64 0 108.5 -17t71.5 -46.5t38.5 -70.5 t11.5 -89q0 -35 -5.5 -82.5t-19.5 -98t-39 -99.5t-64 -88t-94 -62.5t-129 -23.5q-57 0 -100 15t-71 43t-42 69.5t-14 95.5zM936 215q0 -64 25 -91.5t79 -27.5q40 0 70.5 19t52 49t35 67.5t21.5 75.5t11.5 70.5t3.5 54.5q0 58 -22.5 88.5t-82.5 30.5q-40 0 -70 -19.5 t-51.5 -50.5t-35.5 -69t-22 -75t-11 -69.5t-3 -52.5zM106 -21.5q-9 14.5 12 37.5l1158 1289q8 8 16 13.5t19 8.5t25.5 4.5t34.5 1.5q22 0 35.5 -3.5t18 -10.5t1.5 -17t-14 -21l-1158 -1289q-7 -9 -15 -13.5t-19.5 -8t-26 -5t-34.5 -1.5q-44 0 -53 14.5z" />
<glyph unicode="&#x26;" horiz-adv-x="1397" d="M0 1294zM77 278q0 62 20 122.5t63 117.5t110.5 110.5t162.5 101.5q-28 51 -46 94.5t-27.5 79.5t-13.5 64.5t-4 49.5q0 33 8.5 71t27.5 75.5t50 71.5t77 60.5t108.5 42t143.5 15.5q94 0 157 -19.5t101.5 -51.5t55 -72t16.5 -80q0 -59 -20 -113t-69 -107t-132 -108 t-209 -114q32 -53 62.5 -97.5t62.5 -85.5t65.5 -81t71.5 -82q55 63 91.5 131.5t50.5 122.5t16.5 72t7 25.5t14.5 12t25.5 6.5t40.5 2q44 0 60 -5.5t16 -18.5t-9 -55.5t-25 -92t-42 -102t-61 -103.5t-78 -96q64 -61 105.5 -88.5t72.5 -27.5q21 0 28 -6t6 -21q0 -7 -2 -21 t-6 -29.5t-9 -29t-12 -20.5t-24 -11.5t-36 -4.5t-42.5 8t-53 25.5t-66.5 46.5t-83 71q-97 -70 -209 -111t-235 -41q-89 0 -160 20.5t-120.5 59.5t-76 94t-26.5 122zM258 299q0 -33 11 -65t38 -57t71 -40t110 -15q40 0 81.5 8.5t81.5 23t76 35t67 44.5q-42 46 -79.5 90.5 t-73 90.5t-69.5 95t-68 103q-59 -31 -105 -65t-77 -72.5t-47.5 -82t-16.5 -93.5zM516 1025q0 -19 3 -41t10.5 -49.5t20.5 -60t35 -73.5q102 48 165 89t98 78t47.5 71t12.5 68q0 16 -7 35.5t-25 36.5t-48.5 28t-79.5 11q-69 0 -113 -19.5t-70.5 -49t-37.5 -63t-11 -61.5z" />
<glyph unicode="'" horiz-adv-x="452" d="M248 902l72 463q1 16 24 24t69 8q48 0 66 -8t14 -24l-117 -463q-3 -15 -19 -23.5t-52 -8.5q-18 0 -29.5 2t-18 6t-8.5 10t-1 14z" />
<glyph unicode="(" horiz-adv-x="621" d="M117 200q0 129 20.5 268t68.5 288t127 308.5t196 327.5q4 7 10.5 12t17 8.5t26.5 5t39 1.5t37 -3t21.5 -8t7.5 -13t-7 -17q-109 -165 -185 -327.5t-123.5 -317.5t-69.5 -300.5t-22 -275.5q0 -53 3.5 -111.5t10 -118t17 -118t24.5 -109.5q3 -12 2.5 -20.5t-7.5 -14t-22 -8 t-40 -2.5q-17 0 -29.5 1t-21 4t-13 7t-6.5 9q-37 115 -59.5 244.5t-22.5 279.5z" />
<glyph unicode=")" horiz-adv-x="621" d="M-37 -321.5q0 7.5 6 17.5q109 164 185 326.5t123.5 318.5t69.5 301t22 275q0 53 -3.5 111.5t-10 118t-17 117.5t-24.5 110q-3 11 -2 19.5t7.5 14.5t21.5 8.5t40 2.5q18 0 30.5 -1.5t21 -4t12.5 -6.5t6 -10q37 -114 60 -243.5t23 -280.5q0 -129 -20.5 -267.5t-69 -287.5 t-127 -308.5t-195.5 -328.5q-5 -6 -11.5 -11t-17 -8.5t-26.5 -5t-39 -1.5t-37 3t-21 8t-7 12.5z" />
<glyph unicode="*" horiz-adv-x="1020" d="M249 915q3 20 18 25l263 107l-211 101q-9 4 -13 10t-3 15.5t8.5 23t22.5 32.5q15 20 26.5 32t20.5 16.5t17 3t15 -8.5l176 -149l25 261q1 16 18 24t61 8q48 0 63 -8t10 -24l-83 -261l243 156q14 9 28 -1t28 -49q16 -40 13 -60t-18 -26l-261 -105l215 -109q13 -5 10 -21.5 t-31 -53.5q-31 -41 -46.5 -48.5t-26.5 2.5l-185 153l-24 -262q0 -15 -17 -23t-61 -8q-47 0 -62.5 8t-9.5 23l81 262l-235 -153q-18 -13 -32.5 -2.5t-29.5 48.5q-16 41 -13 61z" />
<glyph unicode="+" horiz-adv-x="1020" d="M89 542q0 6 1 16.5t3.5 22.5t7 23.5t10 21t14 15.5t18.5 6h329l73 364q2 8 7 14.5t14.5 11t24.5 7t35 2.5q21 0 34.5 -2.5t21.5 -7t10.5 -11t0.5 -14.5l-73 -364h329q13 0 20 -9.5t7 -28.5q0 -6 -1.5 -16t-4 -22t-7 -24t-10.5 -21.5t-14.5 -15.5t-18.5 -6h-328l-74 -364 q-1 -8 -6 -13.5t-14.5 -9.5t-24 -6.5t-35.5 -2.5q-20 0 -34 2.5t-21.5 6.5t-10.5 9.5t-2 13.5l74 364h-328q-12 0 -19.5 8.5t-7.5 29.5z" />
<glyph unicode="," horiz-adv-x="511" d="M-105.5 -269q1.5 8 8.5 19l188 275l23 118q5 27 13 43t20.5 24t31 11t46.5 3q25 0 41.5 -2.5t26 -9t13.5 -16t4 -24.5q0 -57 -25.5 -114.5t-72.5 -113.5l-179 -206q-13 -15 -34 -21.5t-58 -6.5q-18 0 -29 2.5t-15 6.5t-2.5 12z" />
<glyph unicode="-" horiz-adv-x="627" d="M72 472q0 5 1 14.5t3.5 21t6.5 23.5t10 21.5t13.5 15t18.5 5.5h419q14 0 19.5 -9t5.5 -24q0 -6 -0.5 -16t-3.5 -21.5t-7 -23t-9.5 -21.5t-14 -16t-18.5 -6h-419q-13 0 -19 9t-6 27z" />
<glyph unicode="." horiz-adv-x="517" d="M74 62q0 16 2.5 35.5t8 38.5t13 35.5t19 28t32 18t58.5 6.5q29 0 46.5 -5t27.5 -14.5t13.5 -22.5t3.5 -29q0 -14 -2.5 -33t-7.5 -39t-12.5 -37t-19.5 -29t-34 -18t-56 -6q-28 0 -46 4t-28 13.5t-14 23t-4 30.5z" />
<glyph unicode="/" horiz-adv-x="794" d="M-142.5 -251.5q0.5 9.5 8.5 22.5l937 1659q7 13 15.5 20.5t20 12t27.5 6t37 1.5q26 0 43 -3.5t24.5 -9.5t7.5 -16t-7 -23l-938 -1659q-7 -13 -15.5 -20.5t-20.5 -11.5t-27.5 -6t-36.5 -2q-27 0 -44 3.5t-24.5 10t-7 16z" />
<glyph unicode="0" horiz-adv-x="1038" d="M77 369q0 44 5.5 107.5t18 137t32.5 152t49.5 154t68.5 143t90 118.5q31 31 67.5 56t79 41.5t90.5 25.5t102 9q95 0 162 -26t109.5 -75.5t62 -122t19.5 -164.5q0 -44 -5.5 -107.5t-18 -137t-32.5 -152.5t-49 -154t-68.5 -143t-90.5 -118q-59 -60 -142.5 -96t-195.5 -36 q-94 0 -161 25.5t-110 75t-63 122t-20 165.5zM252 371q0 -127 48 -188t151 -61q60 0 107.5 20.5t86.5 59.5t70.5 98.5t55.5 128t40.5 141t27 139.5t15 123t4.5 91q0 127 -47.5 188t-151.5 61q-59 0 -106.5 -20.5t-87.5 -59.5q-40 -40 -71 -99t-55 -127.5t-40 -141 t-26.5 -140t-15.5 -123t-5 -90.5z" />
<glyph unicode="1" horiz-adv-x="1038" d="M95 37q0 5 1.5 14.5t4 20.5t7 23t10.5 21t14 15.5t18 6.5h270l195 974l-281 -148q-16 -8 -26 -10.5t-16.5 0.5t-9 11t-2.5 20q0 11 2.5 27.5t8 33t14.5 31.5t23 23l337 191q5 3 11.5 5t15.5 4t21.5 2.5t29.5 0.5q25 0 40.5 -2t24 -5.5t10 -9t0.5 -11.5l-226 -1137h234 q14 0 19.5 -9.5t5.5 -26.5q0 -6 -1.5 -16.5t-4 -22t-6.5 -22.5t-10 -20.5t-13.5 -15t-16.5 -5.5h-677q-12 0 -19.5 10t-7.5 27z" />
<glyph unicode="2" horiz-adv-x="1038" d="M32 42q0 10 1.5 26t7.5 35t18 38.5t33 37.5l333 292q78 68 134.5 127.5t95 111t61.5 95t36 79.5t17 65.5t4 52.5q0 24 -7.5 51.5t-26 51.5t-52.5 40t-86 16q-57 0 -109 -17t-94 -37.5t-70.5 -38t-39.5 -17.5q-10 0 -16 10t-6 29q0 8 1.5 17.5t3 20.5t5 22t8 21t10 19.5 t12.5 16.5q11 11 43.5 29t78.5 35t102 29.5t116 12.5q96 0 159 -27t99.5 -68t51 -89t14.5 -91q0 -41 -6 -84t-23.5 -90.5t-49 -100.5t-82 -114.5t-122 -133t-170.5 -155.5l-250 -214h552q17 0 24 -12.5t7 -28.5q0 -6 -1.5 -17t-4.5 -22.5t-7.5 -23.5t-11 -21t-14.5 -15 t-18 -6h-715q-13 0 -22 3t-14 8.5t-7.5 13t-2.5 17.5z" />
<glyph unicode="3" horiz-adv-x="1038" d="M35 110q0 6 1 16.5t3 22.5t5 25.5t7.5 24t11 17t14.5 6.5q9 0 32.5 -15.5t61.5 -34t89.5 -34t118.5 -15.5q84 0 145.5 26t101.5 66.5t59.5 90t19.5 98.5q0 40 -14.5 75t-46 60.5t-82 40.5t-121.5 15h-139q-16 0 -24.5 8.5t-8.5 27.5q0 7 1.5 18t4.5 21.5t7.5 21.5t11 20 t14.5 14t19 5h113q74 0 136 22.5t106.5 62t69.5 91.5t25 111q0 71 -40.5 112t-134.5 41q-57 0 -109 -17.5t-94 -38t-71.5 -38.5t-41.5 -18q-9 0 -14 8.5t-5 23.5q0 8 2 23t6.5 32t12 33t17.5 26q11 11 43 29.5t78 36t103.5 30t118.5 12.5q79 0 138.5 -18.5t98.5 -53 t58.5 -84t19.5 -110.5q0 -70 -22.5 -131.5t-64 -109.5t-98.5 -82.5t-125 -49.5v-2q66 -7 112.5 -31.5t75.5 -60t42 -79t13 -88.5q0 -49 -12.5 -100t-39.5 -99t-68.5 -90.5t-100 -74t-133.5 -50t-170 -18.5q-50 0 -94.5 6t-84 16.5t-72 25t-58.5 31.5q-15 9 -21.5 21.5 t-6.5 28.5z" />
<glyph unicode="4" horiz-adv-x="1038" d="M24 333q0 7 1 18t3.5 24t6.5 27.5t9 28.5t11.5 27t15.5 24l624 787q6 8 17.5 14t28 10t39.5 5.5t54 1.5q33 0 56.5 -2.5t38.5 -6.5t21.5 -10.5t5.5 -15.5l-166 -826h146q15 0 21 -10.5t6 -27.5q0 -8 -1.5 -18t-4.5 -22t-7.5 -23.5t-11 -20.5t-14.5 -14.5t-17 -5.5h-146 l-54 -272q-2 -8 -7 -13.5t-16 -9.5t-27.5 -6t-40.5 -2q-25 0 -40.5 2t-24 6t-11.5 9.5t0 13.5l53 272h-534q-20 0 -27.5 9t-7.5 27zM205 439h418l139 701h-2z" />
<glyph unicode="5" horiz-adv-x="1038" d="M29 90q0 6 1 16.5t3.5 23t6 25t8.5 23.5t11.5 18t15.5 7q10 0 30 -12.5t53.5 -27t82 -27.5t115.5 -13q93 0 163.5 29.5t117 78t69.5 112t23 134.5q0 35 -12.5 67t-44 56t-82.5 37.5t-128 13.5q-72 0 -121.5 -6t-88.5 -6q-27 0 -36 13t-2 50l106 527q6 33 24.5 49t47.5 16 h573q14 0 21 -9t7 -28q0 -7 -1.5 -18t-4.5 -24t-7.5 -25.5t-10.5 -22.5t-14.5 -16.5t-19.5 -6.5h-483l-72 -363q35 4 64.5 6t66.5 2q110 0 186.5 -23.5t124.5 -63.5t69.5 -94.5t21.5 -114.5q0 -64 -15.5 -127t-46 -120t-77.5 -105.5t-110 -84t-142.5 -55.5t-176.5 -20 q-44 0 -86 5.5t-79 14.5t-68.5 21t-55.5 24q-14 7 -20.5 17.5t-6.5 26.5z" />
<glyph unicode="6" horiz-adv-x="1038" d="M106 337q0 39 5 101t17.5 138.5t35 160t59 165t87.5 156t120.5 131t160 90t203.5 33.5q65 0 117.5 -10t90.5 -24q24 -10 32.5 -20.5t8.5 -28.5q0 -7 -1 -16.5t-3 -20.5t-5.5 -22t-8 -20t-11 -14.5t-15.5 -5.5q-11 0 -27.5 7t-42.5 15.5t-62.5 15.5t-85.5 7 q-94 0 -168 -38t-129.5 -101t-94 -145.5t-59.5 -173.5q58 31 133.5 54t170.5 23q87 0 147.5 -22t99.5 -59.5t57 -88.5t18 -110q0 -55 -12.5 -116.5t-38 -120.5t-65.5 -112.5t-98 -94.5t-133.5 -65t-171.5 -24q-91 0 -153.5 26.5t-102.5 73.5t-57.5 112.5t-17.5 143.5z M278 348q0 -123 48.5 -175.5t140.5 -52.5q53 0 97 16.5t79 45t60.5 66t42.5 79t25.5 84t8.5 81.5q0 37 -10.5 68t-33 53t-59.5 33.5t-88 11.5q-37 0 -75.5 -6t-75.5 -17.5t-71 -27t-64 -33.5q-14 -69 -19.5 -125t-5.5 -101z" />
<glyph unicode="7" horiz-adv-x="1038" d="M168 23q2 9 10 22l709 1098h-616q-14 0 -20.5 10t-6.5 27q0 6 1 17.5t4 24t7.5 25.5t11 23.5t15 17t19.5 6.5h754q27 0 34 -10.5t7 -26.5q0 -12 -2.5 -29.5t-7 -37.5t-13.5 -41.5t-22 -41.5l-681 -1073q-8 -13 -17.5 -20.5t-23 -12t-32 -6t-44.5 -1.5q-34 0 -53 3t-27 10 t-6 16z" />
<glyph unicode="8" horiz-adv-x="1038" d="M46 248q0 68 24 127t71 110.5t116 96.5t158 85q-98 56 -142 122t-44 149q0 45 11.5 90t35 86.5t60 77.5t87 63t115 42.5t145.5 15.5q101 0 166 -24t103.5 -60.5t53.5 -80t15 -84.5q0 -66 -23.5 -123t-65 -105.5t-101 -89t-132.5 -75.5q62 -34 106 -68t71.5 -70.5 t40.5 -75.5t13 -83q0 -45 -12 -92t-37.5 -91t-65.5 -82t-96.5 -66.5t-130 -45t-166.5 -16.5q-97 0 -168 20.5t-117 56.5t-68.5 85t-22.5 105zM221 270q0 -30 11 -58.5t37 -50t69.5 -34t108.5 -12.5q81 0 139 21t95.5 55.5t55 78.5t17.5 90q0 32 -11 60.5t-36 56.5 t-65.5 56.5t-97.5 60.5q-95 -42 -157 -81t-99 -78t-52 -79.5t-15 -85.5zM400 956q0 -32 6.5 -58t24.5 -50.5t51.5 -49.5t88.5 -56q66 31 117.5 63.5t87 70t54.5 79t19 88.5q0 25 -9.5 49.5t-31 44t-57 31t-87.5 11.5q-70 0 -120 -20.5t-82 -52t-47 -72t-15 -78.5z" />
<glyph unicode="9" horiz-adv-x="1038" d="M41 67q0 5 1 15.5t3 21.5t5.5 22t8 20t11 14.5t15.5 5.5q11 0 29.5 -7t46.5 -16t66 -16t87 -7q101 0 177 36.5t132.5 99t95 145.5t62.5 176q-59 -31 -134 -54t-170 -23q-86 0 -147 21.5t-99.5 59.5t-56 89t-17.5 110q0 55 12 116.5t37.5 120.5t65.5 112.5t98 94.5 t133.5 65t171.5 24q91 0 153.5 -26.5t102.5 -73.5t57.5 -112.5t17.5 -142.5q0 -39 -4.5 -101.5t-17 -138.5t-35.5 -160.5t-60 -166.5t-89.5 -156t-124.5 -130.5t-166 -90t-213 -33.5q-33 0 -63.5 3t-57.5 8.5t-51 12.5t-43 14q-23 10 -31.5 20t-8.5 28zM332 802 q0 -37 10 -68t33 -53t59.5 -34t88.5 -12q37 0 75.5 6.5t75 18t70.5 26.5t64 33q13 69 19.5 126t6.5 101q0 123 -48.5 176.5t-140.5 53.5q-53 0 -97 -16.5t-78.5 -45.5t-60.5 -66.5t-43 -79.5t-25.5 -84.5t-8.5 -81.5z" />
<glyph unicode=":" horiz-adv-x="548" d="M109 49.5q0 22.5 6 56.5q6 32 15 54.5t23.5 36t35.5 19.5t51 6q32 0 51.5 -6t28.5 -19.5t10 -36t-5 -54.5q-5 -32 -14.5 -54t-24.5 -35.5t-36.5 -19.5t-52.5 -6t-50 5t-28.5 18t-9.5 35.5zM248.5 746q-0.5 22 6.5 54q6 33 15 55.5t23 36t35.5 19.5t52.5 6q30 0 49.5 -6 t29.5 -19.5t10.5 -36t-6.5 -55.5q-6 -32 -15.5 -54t-24 -35.5t-36 -19.5t-52.5 -6q-30 0 -49 6t-28.5 19.5t-10 35.5z" />
<glyph unicode=";" horiz-adv-x="548" d="M-77 -267.5q2 7.5 9 18.5l187 274l24 118q5 27 12.5 43t19.5 24t30.5 11t46.5 3q25 0 41.5 -2.5t26 -9t13.5 -16t4 -24.5q0 -57 -26 -114.5t-73 -113.5l-178 -204q-7 -8 -15 -13t-19 -8.5t-24.5 -5.5t-32.5 -2t-29.5 2.5t-14.5 7t-2 12zM248.5 745q-0.5 22 6.5 56 q7 36 17 59t24 35.5t35.5 17t51.5 4.5q32 0 51.5 -6.5t28 -20t8.5 -36t-7 -53.5q-6 -33 -15 -55t-23.5 -35t-36 -19.5t-53.5 -6.5q-31 0 -50 6t-28 19t-9.5 35z" />
<glyph unicode="&#x3c;" horiz-adv-x="1020" d="M87 538q0 12 2.5 30t8 35.5t15 32t22.5 20.5l858 393q20 9 28.5 3t8.5 -26q0 -22 -4.5 -45t-12.5 -42.5t-20 -35t-26 -21.5l-705 -311l579 -311q26 -15 26 -40q0 -13 -2 -28t-5 -30t-7.5 -28.5t-11 -23t-14 -13t-16.5 1.5l-710 398q-7 4 -10.5 13.5t-3.5 27.5z" />
<glyph unicode="=" horiz-adv-x="1020" d="M73 350q0 11 3 28.5t9.5 34t17 28.5t26.5 12h755q14 0 20.5 -10t6.5 -27q0 -6 -1 -16t-3.5 -22t-6.5 -23.5t-10.5 -21t-15 -15.5t-18.5 -6h-754q-13 0 -21 9t-8 29zM151 739q0 11 3 28t9.5 33.5t17 28.5t26.5 12h755q14 0 20.5 -9.5t6.5 -26.5q0 -7 -1 -17t-3.5 -21 t-6.5 -23t-10.5 -21.5t-15 -16t-19.5 -6.5h-754q-12 0 -20 9t-8 30z" />
<glyph unicode="&#x3e;" horiz-adv-x="1020" d="M34 124q0 22 5 45t13 43t20 35t26 21l705 311l-580 313q-25 13 -25 39q0 12 1.5 27.5t4.5 30.5t8 28.5t11 23t14 13t17 -1.5l709 -399q7 -4 11 -13.5t4 -25.5q0 -12 -2.5 -30t-8.5 -35.5t-15 -32.5t-22 -21l-858 -394q-20 -9 -29 -2.5t-9 25.5z" />
<glyph unicode="?" horiz-adv-x="949" d="M250 52q0 13 2.5 32t7.5 39t13 38.5t19 29.5q16 16 37 21.5t54 5.5q28 0 45.5 -4.5t27.5 -12.5t13 -20t3 -25q0 -14 -3 -33.5t-8 -39t-13 -37t-17 -27.5q-16 -15 -37.5 -22t-55.5 -7q-27 0 -44 4t-26.5 11.5t-13.5 19.5t-4 27zM281 1189q0 10 1.5 24.5t5.5 28.5t10 26.5 t14 20.5q13 13 44 28t72.5 27.5t88.5 21t91 8.5q65 0 116.5 -12t91 -33.5t67.5 -52t46.5 -66.5t26.5 -77t8 -84q0 -81 -24.5 -157t-76 -136.5t-131.5 -99.5t-191 -46l-54 -239q-4 -15 -23 -22.5t-58 -7.5q-21 0 -35.5 1.5t-23 5t-11.5 9.5t-1 14l48 277q4 23 11.5 37.5 t19 24t25.5 13t33 3.5h6q87 0 146 27.5t96 71t53.5 97t16.5 105.5q0 45 -13 83.5t-38.5 66t-64.5 43.5t-93 16q-60 0 -107.5 -13.5t-82.5 -30t-57.5 -29.5t-34.5 -13q-10 0 -14 8.5t-4 30.5z" />
<glyph unicode="@" horiz-adv-x="1831" d="M0 1294zM160 274q0 45 7 114t26 151.5t51.5 173t83.5 177.5t123 166.5t169 139t222 95t282 35.5q152 0 261.5 -35t179.5 -97.5t103 -149.5t33 -191q0 -55 -9.5 -127.5t-32 -149t-58.5 -151t-88 -132.5t-121 -93t-158 -35q-46 0 -82.5 12t-61.5 35.5t-36.5 57t-8.5 76.5 q-30 -44 -69.5 -78t-81.5 -57t-83.5 -34.5t-78.5 -11.5q-39 0 -69.5 8t-53 23t-38 36t-25 47.5t-14 56t-4.5 63.5q0 51 11 112.5t34.5 124.5t58.5 122.5t84 105.5t111 74t138 28q33 0 61.5 -7.5t54 -24t48 -40.5t44.5 -57l27 89q5 14 19.5 21t51.5 7t50 -7t8 -21l-138 -433 q-32 -104 -14.5 -151.5t84.5 -47.5q47 0 87 26.5t72 71t56 101.5t40 118t24 121.5t8 110.5q0 69 -20 132.5t-71 112.5t-137 78t-219 29q-131 0 -235.5 -32t-185 -85t-138.5 -122.5t-99 -146t-66.5 -154t-40 -147.5t-19.5 -127t-5 -89q0 -50 7.5 -99t27 -94t54.5 -83 t89.5 -66.5t132.5 -44.5t184 -16q76 0 136.5 9t104.5 19t71 18.5t35 8.5q11 0 15 -7.5t4 -22.5q0 -12 -2.5 -26t-6.5 -28t-10 -25.5t-13 -19.5q-7 -7 -37.5 -17t-78 -19.5t-110.5 -15.5t-135 -6q-125 0 -219.5 20t-163.5 55.5t-114.5 84.5t-73 106.5t-38.5 121t-11 129.5z M682 423q0 -65 23 -95t74 -30q34 0 78 23.5t86 64t77.5 94t53.5 114.5l36 113q-30 63 -65.5 96t-85.5 33q-45 0 -83 -21.5t-69 -56t-54 -79t-39 -90t-24 -89.5t-8 -77z" />
<glyph unicode="A" horiz-adv-x="1185" d="M-51 26q3 14 14 36l674 1202q7 11 15 18t21 11t33 5.5t49 1.5q33 0 53.5 -1.5t33 -5.5t17.5 -11.5t7 -18.5l194 -1202q2 -15 2 -26v-9q-2 -14 -11.5 -21t-29.5 -9t-54 -2q-22 0 -38 1.5t-24.5 5t-12.5 9.5t-5 15l-48 315h-539l-169 -312q-5 -10 -11.5 -16.5t-18 -10.5 t-30 -5.5t-45.5 -1.5q-30 0 -48 2.5t-25 9.5q-5 5 -5 13q0 3 1 7zM372 477h448l-97 645h-1z" />
<glyph unicode="B" horiz-adv-x="1114" d="M93 70l230 1154q7 39 32 54.5t52 15.5h278q99 0 166 -16.5t111.5 -48.5t66.5 -79t22 -108t-16.5 -115.5t-47 -100.5t-74 -81t-98.5 -58q42 -8 78.5 -29t62.5 -52.5t40.5 -74.5t14.5 -95q0 -53 -14 -106.5t-42.5 -102t-71 -90t-99.5 -72.5t-127.5 -48t-163.5 -17h-343 q-34 0 -50 16q-11 11 -10 30q0 11 3 24zM277 142h241q82 0 138.5 23.5t94.5 62t58 89.5t20 107q0 83 -59 128.5t-182 45.5h-221zM396 735h195q79 0 130 26t83.5 66.5t48 89.5t15.5 94q0 33 -11 59t-35.5 44.5t-62 29t-98.5 10.5h-182z" />
<glyph unicode="C" horiz-adv-x="1070" d="M115 456q0 95 20 195.5t59 195.5t97.5 179t136 147.5t174.5 100t213 36.5q73 0 136.5 -16.5t108.5 -41.5t65 -44.5t20 -45.5q0 -21 -7 -52t-18.5 -49t-24.5 -18q-14 0 -33 18.5t-51 40t-82.5 40t-126.5 18.5q-84 0 -153 -31.5t-124.5 -85t-97.5 -123.5t-69.5 -146.5 t-41.5 -154.5t-14 -148q0 -80 20 -142.5t58 -105.5t93 -65t125 -22q78 0 134.5 17.5t97 39t67.5 39t44 17.5q11 0 16 -8t5 -24q0 -5 -1.5 -14.5t-3.5 -20.5t-4.5 -24t-6.5 -24.5t-8.5 -21t-15 -19.5t-44 -29.5t-82 -37t-109 -30t-128.5 -12.5q-102 0 -184 30.5t-139.5 90 t-89 148t-31.5 203.5z" />
<glyph unicode="D" horiz-adv-x="1260" d="M91 36q-1 5 -1 12q0 10 3 22l230 1154q7 39 30.5 54.5t53.5 15.5h273q149 0 247 -31.5t163.5 -91.5t98 -146.5t32.5 -196.5q0 -65 -9 -135.5t-28.5 -141t-50.5 -138.5t-75.5 -129.5t-103 -113.5t-133.5 -90t-167 -59t-221 -21h-287q-13 0 -24.5 3.5t-19.5 11t-11 21.5z M279 144h178q122 0 204 29.5t145 80t107 117.5t72 141t41 151.5t13 149.5q0 74 -20.5 136t-64.5 106.5t-112.5 70t-181.5 25.5h-180z" />
<glyph unicode="E" horiz-adv-x="1000" d="M91 38q-1 5 -1 10q0 10 3 22l231 1154q7 39 31 54.5t47 15.5h613q23 0 23 -33q0 -5 -0.5 -15.5t-3 -22.5t-6 -25t-9.5 -23.5t-14.5 -17t-18.5 -6.5h-505l-82 -406h435q12 0 18 -8t6 -24q0 -5 -1.5 -15.5t-3.5 -23t-6 -24.5t-9.5 -21.5t-13.5 -16t-18 -6.5h-434l-94 -463 h515q10 0 16.5 -8t6.5 -25q0 -6 -1 -17t-3.5 -23t-6 -24.5t-9.5 -23t-14.5 -16.5t-18.5 -6h-622q-11 0 -21.5 3.5t-18 12t-10.5 22.5z" />
<glyph unicode="F" horiz-adv-x="941" d="M84 26l240 1198q7 39 31 54.5t47 15.5h581q14 0 18.5 -9.5t4.5 -24.5q0 -6 -0.5 -16t-3 -22.5t-6.5 -25.5t-10 -24t-14 -17.5t-18 -6.5h-473l-88 -440h448q12 0 17.5 -8.5t5.5 -23.5q0 -8 -1 -18.5t-3.5 -22t-6.5 -24.5t-10 -23t-14 -16.5t-18 -6.5h-447l-108 -539 q-1 -8 -6.5 -14t-16 -9.5t-27.5 -6t-42 -2.5t-41.5 2.5t-25.5 6t-12 9.5q-2 4 -2 8q0 3 1 6z" />
<glyph unicode="G" horiz-adv-x="1292" d="M110 474q0 107 24.5 210.5t70.5 196.5t113.5 172t155 136t192.5 90t227 33q70 0 131 -12.5t109 -30t81 -38.5t45 -32t16 -21t4 -25q0 -7 -1.5 -17.5t-4 -22t-6.5 -24t-9 -22t-11 -15t-13 -5.5q-15 0 -40.5 18t-68 40.5t-103.5 41t-146 18.5q-89 0 -166.5 -26.5 t-142.5 -73t-116 -110t-86.5 -138t-54 -156.5t-18.5 -166q0 -88 25.5 -155.5t73.5 -113.5t116 -69.5t152 -23.5q62 0 129.5 14.5t125.5 44.5l75 375h-299q-12 0 -18.5 8.5t-6.5 24.5q0 7 1.5 18.5t4 23.5t7 24t10.5 21.5t13.5 15t16.5 5.5h411q28 0 40.5 -19t5.5 -51 l-100 -498q-4 -19 -10.5 -30.5t-14.5 -20.5q-9 -9 -45.5 -26.5t-92 -35.5t-125 -31.5t-145.5 -13.5q-130 0 -229 33.5t-166 97.5t-102 155t-35 206z" />
<glyph unicode="H" horiz-adv-x="1276" d="M84 25l248 1244q1 7 7 13t17 9.5t27.5 6t41.5 2.5q24 0 40.5 -2.5t25.5 -6t11.5 -9.5t1.5 -13l-103 -519h588l104 519q1 7 6.5 13t16.5 9.5t27.5 6t42.5 2.5q24 0 40 -2.5t26 -5.5q10 -4 12 -10q1 -3 1 -7q0 -3 -1 -6l-248 -1244q-2 -7 -7.5 -13t-16 -9.5t-27 -6 t-42.5 -2.5q-24 0 -40 2.5t-25.5 6t-12.5 9.5t0 13l114 575h-589l-114 -575q-2 -7 -7 -13t-16 -9.5t-28 -6t-41 -2.5q-26 0 -42 2.5t-25 6t-12 9.5q-2 4 -2 8q0 2 1 5z" />
<glyph unicode="I" horiz-adv-x="516" d="M84 25l248 1244q1 7 7.5 13t17.5 9.5t27.5 6t40.5 2.5t40 -2.5t25.5 -6t12.5 -9.5q2 -4 2 -8q0 -3 -1 -5l-248 -1244q-1 -7 -6.5 -13t-16.5 -9.5t-28 -6t-41 -2.5q-26 0 -42 2.5t-25 6t-12 9.5q-2 4 -2 8q0 2 1 5z" />
<glyph unicode="J" horiz-adv-x="653" d="M-72 57q0 7 1.5 19t4 25t7 27t9.5 25t11 18.5t13 7.5q11 0 22 -7.5t26.5 -16t37.5 -16t54 -7.5q38 0 65 10t46.5 33.5t33.5 60.5t25 92l188 941q1 7 7 13t17 10t27.5 6t41.5 2q23 0 39 -2t25 -5.5t13 -9.5t3 -14l-191 -957q-14 -71 -39 -131.5t-65 -104.5t-96.5 -69 t-134.5 -25q-47 0 -86 7.5t-65.5 20t-33 23t-6.5 24.5z" />
<glyph unicode="K" horiz-adv-x="1064" d="M84 26l248 1243q1 7 7 13t17 9.5t28 6t41 2.5t40.5 -2.5t25.5 -6t12 -9.5t2 -13l-115 -576l566 574q8 9 17.5 15.5t22 10t30.5 5.5t42 2q26 0 42 -2.5t25 -6.5t12.5 -10t3.5 -14q0 -13 -10.5 -28t-32.5 -36l-537 -524l339 -603q9 -17 12.5 -27.5t3.5 -18.5q0 -9 -4 -16 t-13.5 -11t-27 -6.5t-44.5 -2.5q-28 0 -45.5 2t-28 5.5t-16 10t-9.5 15.5l-354 646l-128 -647q-1 -8 -6.5 -14t-16.5 -9.5t-28 -6t-41 -2.5q-25 0 -41.5 2.5t-25.5 6t-12 9.5q-2 4 -2 8q0 3 1 6z" />
<glyph unicode="L" horiz-adv-x="861" d="M91 38q-1 5 -1 10q0 10 3 22l239 1199q1 7 7 13t17 9.5t28 6t41 2.5t40.5 -2.5t25.5 -6t12 -9.5t1 -13l-223 -1120h464q13 0 18.5 -9t5.5 -25q0 -5 -1.5 -16t-4 -24t-6 -26t-9.5 -24t-14 -18t-18 -7h-573q-12 0 -22.5 3.5t-18.5 12t-11 22.5z" />
<glyph unicode="M" horiz-adv-x="1751" d="M84 25l237 1191q4 20 13 35t21 24.5t25.5 14t27.5 4.5h100q32 0 53.5 -6.5t36 -19.5t22.5 -33t12 -48l187 -935h5l578 935q15 27 30 46.5t33.5 33t41 20.5t50.5 7h114q15 0 27 -4.5t20 -13.5q10 -10 12 -24q1 -6 0 -13q0 -10 -2 -23l-237 -1191q-2 -7 -7 -13t-15 -9.5 t-26.5 -6t-41.5 -2.5q-24 0 -40 2.5t-25 6t-11.5 9.5t-0.5 13l225 1127h-2l-689 -1131q-8 -14 -29 -20.5t-61 -6.5q-41 0 -58 7.5t-18 19.5l-215 1132h-2l-225 -1128q-2 -7 -7 -13t-15 -9.5t-26.5 -6t-41.5 -2.5q-24 0 -40 2.5t-24 5.5q-10 4 -12 10q-1 3 -1 7q0 3 1 6z" />
<glyph unicode="N" horiz-adv-x="1320" d="M84 26l238 1194q8 40 33.5 57t51.5 17h79q24 0 42 -5t31 -18t23 -33.5t22 -52.5l245 -699q23 -65 45.5 -130t44.5 -131h2q14 82 30.5 170t32.5 170l141 701q2 8 7 13.5t15 9.5t25.5 6t39.5 2q23 0 38.5 -2t24 -6t11.5 -9.5t2 -13.5l-240 -1195q-3 -20 -12 -34t-20.5 -23 t-24.5 -13t-26 -4h-65q-26 0 -44 6t-31.5 20.5t-24 38t-22.5 58.5l-243 690q-25 74 -49.5 147.5t-47.5 147.5h-2q-13 -82 -28 -163t-31 -162l-150 -754q-2 -8 -7.5 -14t-16 -9.5t-27 -6t-39.5 -2.5t-38.5 2.5t-23.5 5.5q-9 4 -11 10q-1 3 -1 7q0 3 1 7z" />
<glyph unicode="O" horiz-adv-x="1340" d="M114 426q0 86 15 185t49.5 197.5t90 189.5t136 161.5t188.5 112t248 41.5q113 0 198.5 -29.5t143 -87t86.5 -142t29 -194.5q0 -77 -14 -172t-47 -193t-87.5 -190.5t-134.5 -164t-190 -115.5t-252 -44q-114 0 -200 28.5t-143.5 85t-86.5 139.5t-29 192zM299 443 q0 -71 15.5 -128.5t51.5 -98.5t93.5 -63.5t140.5 -22.5q103 0 181 37.5t135 98.5t95 138.5t61 157t32.5 154.5t9.5 132q0 70 -16 128.5t-51 100.5t-93 65.5t-140 23.5q-104 0 -182.5 -38.5t-136 -100.5t-95 -140.5t-60 -158.5t-32 -155t-9.5 -130z" />
<glyph unicode="P" horiz-adv-x="1058" d="M84 25l238 1195q8 40 33 57t58 17h255q50 0 88.5 -3.5t74.5 -11.5q54 -12 97.5 -37t73.5 -61.5t46 -84.5t16 -106q0 -53 -12.5 -111t-39.5 -113.5t-68.5 -105t-100.5 -87.5t-135.5 -59.5t-180.5 -21.5h-178l-93 -467q-2 -7 -7 -13t-16.5 -9.5t-28 -6t-41.5 -2.5 q-23 0 -39 2t-26 6q-8 3 -12 9q-2 4 -3 8q0 3 1 6zM378 633h163q71 0 120 16t86 42t62.5 61t41.5 72.5t23.5 76t7.5 71.5q0 62 -30.5 106.5t-94.5 62.5q-24 7 -53 9t-62 2h-162z" />
<glyph unicode="Q" horiz-adv-x="1360" d="M114 426q0 86 14.5 185t49 197.5t90 189.5t136 161.5t188.5 112t248 41.5q113 0 198.5 -29.5t143 -87t86.5 -142t29 -194.5q0 -50 -5.5 -110t-19 -123.5t-35.5 -129.5t-53 -129.5t-73.5 -121.5t-98.5 -109q56 -54 101.5 -86t80 -50t56 -27t28 -15t9 -12.5t2.5 -20.5 q0 -8 -1.5 -20t-4.5 -25t-7.5 -25.5t-10.5 -22.5t-13 -16t-16 -6q-8 0 -28 6t-47.5 18t-62 31.5t-72 46.5t-75.5 61t-75 76q-62 -34 -136.5 -51.5t-167.5 -17.5q-114 0 -199.5 28.5t-143 85t-86.5 139.5t-29 192zM298 443q0 -71 15.5 -128.5t51.5 -98.5t94 -63.5t141 -22.5 q102 0 180 37.5t135 98.5t95.5 138.5t61 157t32 154.5t9.5 132q0 70 -16 128.5t-51 100.5t-92.5 65.5t-140.5 23.5q-104 0 -182.5 -38.5t-135.5 -100.5t-95 -140.5t-60.5 -158.5t-32 -155t-9.5 -130z" />
<glyph unicode="R" horiz-adv-x="1112" d="M84 25l240 1199q8 39 32 54.5t53 15.5h281q92 0 161.5 -18t116.5 -52.5t70.5 -85t23.5 -115.5q0 -69 -19.5 -131t-59 -114t-99 -92.5t-138.5 -65.5q53 -19 86 -80t51 -161l53 -286q3 -19 5.5 -35.5t2.5 -29.5q0 -9 -5 -15.5t-16 -10.5t-30.5 -6t-47.5 -2q-26 0 -42 2 t-24.5 7t-12 12.5t-5.5 20.5l-51 304q-8 53 -22.5 96t-40.5 74.5t-66.5 49t-98.5 17.5h-115l-111 -552q-2 -7 -7 -13t-16 -9.5t-28 -6t-42 -2.5q-23 0 -39.5 2t-25.5 6q-8 3 -12 9q-2 4 -3 8q0 3 1 6zM394 716h152q89 0 151.5 24t102 63.5t58 89.5t18.5 103q0 34 -12 63 t-37.5 50t-67 32t-98.5 11h-179z" />
<glyph unicode="S" horiz-adv-x="926" d="M4 117q0 6 1.5 17t4.5 24t6.5 25.5t9 23t12 17t15.5 6.5q16 0 40 -16t59.5 -34.5t84.5 -34.5t115 -16q70 0 125 19.5t92.5 53t57.5 78.5t20 96q0 45 -19 78.5t-50 60.5t-71.5 50t-82 48t-81.5 53.5t-71 66t-50.5 86t-19.5 113.5q0 79 31 148t88 121t138 82t181 30 q48 0 91.5 -8t78.5 -19.5t60 -25t34 -22.5t13 -18.5t4 -23.5q0 -8 -1 -18.5t-3.5 -22t-6 -24t-8.5 -22t-11.5 -15.5t-14.5 -6q-11 0 -30.5 13t-50 27.5t-72.5 27.5t-97 13q-61 0 -107 -18.5t-77 -50t-46.5 -71.5t-15.5 -83q0 -44 19.5 -77t51 -60t72 -51t82.5 -49t83 -53.5 t72.5 -66t51 -86t19.5 -112.5q0 -85 -35 -159.5t-99.5 -130t-155.5 -88t-203 -32.5q-61 0 -113.5 10.5t-94.5 26t-71 32t-42 29.5t-13 38z" />
<glyph unicode="T" horiz-adv-x="998" d="M163 1182q0 7 1.5 17.5t4 23.5t6.5 25t10 22.5t13.5 17t17.5 6.5h900q13 0 18 -9.5t5 -25.5q0 -6 -0.5 -16.5t-3 -22.5t-6.5 -25.5t-10 -23.5t-14.5 -16.5t-18.5 -6.5h-364l-225 -1122q-2 -8 -7.5 -14t-16 -9.5t-27.5 -6t-42 -2.5t-41 2.5t-25 6t-12 9.5t-1 14l224 1122 h-362q-14 0 -19 9t-5 25z" />
<glyph unicode="U" horiz-adv-x="1314" d="M163 262q-6 36 -6 77q0 64 15 139l158 790q1 8 6.5 14t16.5 9.5t27.5 6t41.5 2.5t41 -2.5t25.5 -6t12 -9.5t0.5 -14l-157 -788q-12 -61 -12 -112q0 -22 2 -42q8 -66 39 -110t85.5 -66t130.5 -22q75 0 138.5 23t113 67.5t84 110t51.5 149.5l158 790q1 8 6.5 14t16 9.5 t27 6t41.5 2.5q24 0 40 -2.5t25.5 -6t12.5 -9.5t2 -14l-160 -797q-24 -122 -76 -214t-127 -153t-169 -92t-204 -31q-116 0 -201.5 31.5t-137 94t-67.5 155.5z" />
<glyph unicode="V" horiz-adv-x="1162" d="M202 1290q8 6 26 8t49 2q30 0 47.5 -1.5t27.5 -5.5t13.5 -11t5.5 -17l151 -1088h1l577 1089q5 10 11.5 16.5t17.5 10.5t29.5 5.5t48.5 1.5q31 0 49 -2.5t25 -9.5q5 -5 5 -13q0 -3 -1 -7q-3 -14 -15 -36l-662 -1202q-7 -11 -15 -18t-21 -11t-33 -5.5t-50 -1.5 q-32 0 -53 1.5t-33 5.5t-17.5 11.5t-6.5 18.5l-183 1210q-3 16 -3 27q0 16 9 22z" />
<glyph unicode="W" horiz-adv-x="1823" d="M220 1270q2 13 10.5 19.5t26 8.5t49.5 2q25 0 45.5 -2t29.5 -7t12 -14t3 -23l72 -1074h2l494 1082q5 11 11.5 18.5t17.5 11.5t29.5 6t49.5 2q27 0 43 -1.5t25 -6t11.5 -12t3.5 -18.5l82 -1082h2l502 1086q4 10 10 16.5t17.5 10.5t30 5.5t46.5 1.5q29 0 46 -2.5t24 -9.5 q5 -5 5 -13q0 -3 -1 -7q-3 -14 -12 -36l-582 -1195q-6 -14 -15.5 -22.5t-24.5 -13t-36 -6t-50 -1.5q-31 0 -52 1.5t-34 6t-19 12.5t-7 21l-77 980h-2l-442 -978q-5 -14 -14.5 -22.5t-22.5 -13t-34.5 -6t-52.5 -1.5q-34 0 -56 1.5t-35.5 6t-19.5 13.5t-7 23l-103 1199 q-1 11 -1 21q-1 6 0 12z" />
<glyph unicode="X" horiz-adv-x="1063" d="M-42 27q5 13 21 35l479 604l-221 566q-8 22 -7.5 35t10.5 20.5t31 10t55 2.5q27 0 43.5 -1.5t26 -6.5t14.5 -12.5t9 -19.5l176 -473l365 482q7 8 14 14.5t19 10t30 5t47 1.5q33 0 54 -2q20 -2 28 -10q5 -5 4 -12q0 -4 -2 -9q-4 -13 -19 -35l-454 -571l242 -598 q7 -22 7.5 -35.5t-9 -21t-30 -10t-55.5 -2.5q-29 0 -46 1.5t-26.5 5.5t-13.5 9.5t-7 14.5l-196 519l-392 -519q-7 -9 -14.5 -15t-19.5 -9.5t-31 -5t-48 -1.5q-33 0 -54 2q-20 2 -28 10q-4 5 -4 11q0 5 2 10z" />
<glyph unicode="Y" horiz-adv-x="998" d="M192 1272q0 10 7 16q8 7 26.5 9.5t53.5 2.5q27 0 44 -1.5t27 -6.5t14.5 -12.5t8.5 -20.5l103 -355q18 -62 32 -119.5t27 -119.5h2q36 60 73 119t78 119l245 361q6 10 13.5 17t19.5 11.5t30 6t48 1.5q36 0 55 -3.5t25 -11.5q2 -4 2 -9t-3 -12q-6 -13 -19 -31l-512 -730 l-95 -478q-2 -7 -7.5 -13t-16.5 -9.5t-28 -6t-41 -2.5q-25 0 -41 2.5t-25 6t-12 9.5t-2 13l96 478l-220 730q-8 28 -8 39z" />
<glyph unicode="Z" horiz-adv-x="959" d="M-24 46q0 6 1.5 17t4 23t5.5 24t6 19t7 15.5t11 18.5t17.5 24t26.5 32l774 931h-584q-25 0 -25 35q0 5 1 15.5t3.5 22.5t6 25t9.5 23t15 16.5t20 6.5h723q20 0 32 -11.5t12 -31.5q0 -12 -4.5 -38t-9.5 -44q-3 -9 -6.5 -17t-10.5 -18t-17.5 -24.5t-27.5 -34.5l-774 -930 h625q13 0 18 -8.5t5 -24.5q0 -6 -1 -16.5t-3 -23t-5.5 -25.5t-9 -23.5t-13.5 -17t-19 -6.5h-765q-24 0 -36 13.5t-12 32.5z" />
<glyph unicode="[" horiz-adv-x="628" d="M46 -283.5q-3 13.5 2 33.5l315 1579q8 39 31.5 54.5t47.5 15.5h255q20 0 20 -28q0 -6 -1.5 -15t-3.5 -19t-5.5 -21t-8.5 -19.5t-11.5 -14t-14.5 -5.5h-163l-295 -1476h163q10 0 15 -7.5t5 -20.5q0 -7 -1 -16t-3.5 -19.5t-6 -21t-8.5 -19t-11.5 -13t-14.5 -4.5h-256 q-12 0 -22 3.5t-17.5 11.5t-10.5 21.5z" />
<glyph unicode="\" horiz-adv-x="787" d="M205.5 1440q1.5 10 10.5 15t25.5 6.5t43.5 1.5q26 0 41 -1t23.5 -4.5t11.5 -8.5t5 -13l276 -1659q2 -17 0.5 -27t-10 -15t-25 -7t-42.5 -2t-42 1.5t-25 4t-12.5 8.5t-5.5 14l-273 1659q-3 17 -1.5 27z" />
<glyph unicode="]" horiz-adv-x="628" d="M-59 -291q0 6 1.5 15t3 19t5.5 20.5t9 19t11.5 13.5t14.5 5h162l295 1476h-162q-11 0 -16 7t-5 20q0 6 1 15.5t3 20t5.5 21.5t8.5 19t11.5 13.5t16.5 5.5h255q12 0 22.5 -3.5t18 -12t10 -22t-0.5 -32.5l-317 -1579q-7 -40 -30.5 -55t-46.5 -15h-256q-9 0 -14.5 7.5 t-5.5 21.5z" />
<glyph unicode="^" horiz-adv-x="1020" d="M132.5 594q3.5 11 14.5 30l413 648q6 9 15 15.5t22.5 10.5t31.5 6t43 2t42.5 -2t29 -6t18 -10.5t8.5 -15.5l161 -648q6 -19 4.5 -30.5t-10.5 -17.5t-27.5 -7.5t-46.5 -1.5q-27 0 -43.5 1.5t-25.5 5.5t-13 10t-5 14l-123 551l-3 -3l-328 -548q-6 -8 -13.5 -14t-20 -10 t-30 -5.5t-43.5 -1.5q-28 0 -44.5 1.5t-23 8t-3 17.5z" />
<glyph unicode="_" horiz-adv-x="1020" d="M-162 -332q0 6 1 15.5t3 20t6 22t9.5 21.5t13 15.5t17.5 5.5h962q13 0 19 -9.5t6 -25.5q0 -6 -1 -15.5t-3.5 -20t-6.5 -21.5t-10 -20.5t-13 -15t-17 -5.5h-963q-13 0 -18 9.5t-5 23.5z" />
<glyph unicode="`" horiz-adv-x="596" d="M0 951zM293.5 1373.5q-0.5 8.5 7 15t25 10t46.5 3.5q24 0 40 -1.5t27 -5.5t18.5 -11.5t14.5 -18.5l135 -231q7 -11 8.5 -19t-4 -13t-19 -8t-35.5 -3q-20 0 -33 1t-22 4.5t-16 10t-14 16.5l-171 233q-7 9 -7.5 17.5z" />
<glyph unicode="a" d="M81 306q0 56 10.5 127t34 145t61 144t90.5 125.5t123 89t159 33.5t152.5 -36t113.5 -99l19 91q4 16 23 23t59 7q20 0 33.5 -1.5t21.5 -5.5t10 -10t1 -13l-180 -901q-4 -17 -22 -24t-60 -7q-20 0 -33 2t-21 5.5t-11 9t0 14.5l33 170q-13 -32 -47 -70t-80.5 -70t-103.5 -53 t-116 -21q-80 0 -132.5 28t-83.5 74t-42.5 104t-11.5 119zM254 318q0 -35 5.5 -69.5t21 -63t42.5 -46t70 -17.5q55 0 110.5 30.5t103.5 84.5t85 127t55 161l34 165q-47 69 -101.5 103.5t-122.5 34.5q-54 0 -97.5 -25.5t-77 -67.5t-58 -95.5t-40 -110.5t-23 -112t-7.5 -99z " />
<glyph unicode="b" d="M65 25l266 1336q2 8 6.5 14t15 10t27 6t41.5 2q24 0 39 -2t24 -6t11 -10t1 -14l-80 -402q-5 -26 -12 -54t-14.5 -55.5t-15 -52t-13.5 -42.5q16 35 50.5 72.5t81 69t101.5 52.5t111 21q60 0 103 -16t73 -42.5t48.5 -60.5t28.5 -70t14 -71.5t4 -65.5q0 -60 -11 -132.5 t-35.5 -146t-61.5 -143t-90.5 -123t-123 -86t-156.5 -32.5q-90 0 -154 34t-114 98l-18 -88q-2 -17 -21.5 -24t-59.5 -7q-42 0 -56 8q-11 6 -11 17q0 3 1 6zM276 257q47 -69 101 -102t122 -33q52 0 94 24t76 64t59 91.5t41.5 108t25 113.5t8.5 107q0 27 -5 62t-19.5 65 t-42 50.5t-73.5 20.5q-54 0 -110 -31t-104 -85.5t-85.5 -128t-54.5 -160.5z" />
<glyph unicode="c" horiz-adv-x="852" d="M76 307q0 61 10.5 133.5t35.5 146t64 142.5t96 122.5t132 85.5t172 32q40 0 77 -6.5t69.5 -17.5t59 -27.5t41 -29.5t18 -22t3.5 -20q0 -18 -3.5 -37t-10.5 -35.5t-16.5 -27.5t-21.5 -11q-14 0 -29 14.5t-39.5 32.5t-62 33t-95.5 15q-64 0 -113.5 -26.5t-86 -69 t-60.5 -96.5t-39 -109t-21.5 -106.5t-6.5 -89.5q0 -103 45 -156t134 -53q65 0 111.5 16t79 36.5t53.5 36.5t37 16q8 0 12.5 -7.5t4.5 -21.5q0 -12 -2 -28.5t-6.5 -34t-11 -32.5t-18.5 -27.5t-42 -30.5t-69.5 -32.5t-85.5 -24t-95 -9.5q-161 0 -240.5 82t-79.5 244z" />
<glyph unicode="d" d="M81 311q0 58 11 130t35 144.5t61.5 142t90.5 123t122.5 86.5t157.5 33q43 0 81 -9.5t69 -26t57 -39.5t47 -48l102 510q1 7 6 13.5t15 10t26 6t41 2.5q24 0 39.5 -2.5t24.5 -6.5t11 -10q1 -4 2 -7q0 -3 -1 -6l-266 -1332q-3 -17 -21 -24t-60 -7q-21 0 -34 2t-21 5.5 t-10.5 9t-0.5 14.5l32 168q-13 -33 -47 -70.5t-80.5 -69t-103.5 -52t-116 -20.5t-102.5 15.5t-73 41.5t-48 60.5t-29 71t-14 73.5t-3.5 68zM254 322q0 -97 33 -148.5t106 -51.5q55 0 110.5 30t103.5 83t85 126t55 160l34 166q-47 69 -101.5 105t-122.5 36q-53 0 -95.5 -24.5 t-76.5 -65.5t-58.5 -94t-40.5 -109.5t-24 -111.5t-8 -101z" />
<glyph unicode="e" horiz-adv-x="978" d="M77 312q0 65 12.5 139.5t39.5 147.5t70 140t102.5 118t137.5 82t176 31q84 0 142.5 -21t96 -54t54.5 -73.5t17 -80.5q0 -69 -32 -124t-100 -94t-174 -60t-254 -21h-106q-7 -33 -9.5 -64t-2.5 -58q0 -100 49.5 -153t160.5 -53q64 0 115 9.5t88.5 20.5t61.5 20.5t33 9.5 t13.5 -6.5t4.5 -18.5q0 -10 -2 -24t-6 -28.5t-10.5 -27.5t-14.5 -22q-12 -12 -42.5 -23.5t-72.5 -21t-92 -15.5t-100 -6q-89 0 -156 20t-111.5 61.5t-66.5 103.5t-22 146zM288 562h102q105 0 175.5 13t113 35.5t60 52.5t17.5 63q0 51 -40 82.5t-114 31.5q-65 0 -115 -22.5 t-88.5 -60.5t-66 -88.5t-44.5 -106.5z" />
<glyph unicode="f" horiz-adv-x="625" d="M-195 -318q0 4 1.5 13.5t3.5 20t5 22t7 21.5t9 16t12 6t13.5 -1.5t14 -3t18 -3t26.5 -1.5q42 0 72.5 13t52 40.5t36 69.5t26.5 101l164 818h-128q-10 0 -15.5 6.5t-5.5 24.5q0 8 1 19.5t3.5 23.5t6.5 23t10 20t12.5 14.5t16.5 5.5h126l25 125q16 82 46 143.5t72.5 101.5 t98 59.5t122.5 19.5q22 0 46 -2.5t44.5 -7t36 -10.5t21.5 -12q6 -5 9 -14t3 -19q0 -4 -1 -12.5t-2.5 -19t-4.5 -22t-7 -21.5t-9 -16t-11 -6q-7 0 -17.5 4t-24.5 8.5t-33 8.5t-42 4q-43 0 -73.5 -13t-52.5 -40.5t-37 -69.5t-26 -99l-17 -90h201q11 0 17.5 -7.5t6.5 -24.5 q0 -11 -2 -23t-5 -23.5t-7.5 -22t-10 -18.5t-12.5 -13t-14 -5h-202l-171 -852q-17 -84 -46 -145.5t-71 -102t-97 -60t-124 -19.5q-45 0 -73.5 7t-35.5 13q-4 5 -6 11t-2 16z" />
<glyph unicode="g" d="M66 -265q0 6 0.5 17t3 22t6 23t9 21.5t13.5 15t17 5.5q12 0 30 -10.5t48 -23.5t74.5 -24t109.5 -11q54 0 97.5 11t76 33t53 56t30.5 81q17 91 34 151t28 93q-16 -37 -51 -74.5t-81 -69t-101 -51t-112 -19.5q-75 0 -127 25t-83.5 68.5t-45.5 103t-14 128.5q0 58 11 130.5 t35 146t61.5 143t90.5 124t122.5 87.5t157.5 33q89 0 152.5 -36t113.5 -99l19 91q4 16 23 23t59 7q20 0 33.5 -1.5t21.5 -5.5t10 -10t1 -13l-195 -972q-16 -80 -51.5 -140t-90.5 -99.5t-130.5 -59.5t-171.5 -20q-83 0 -151.5 16.5t-109.5 39.5q-15 10 -20.5 19.5t-5.5 24.5z M254 318q0 -43 7.5 -79t24 -61.5t43 -40.5t64.5 -15q55 0 110.5 30.5t103.5 84.5t85 127.5t55 160.5l34 165q-47 69 -101.5 103.5t-122.5 34.5q-54 0 -97 -25t-76.5 -66.5t-58.5 -95.5t-40.5 -110.5t-23 -112t-7.5 -100.5z" />
<glyph unicode="h" d="M65 25l266 1336q2 8 6.5 14t15 10t27 6t41.5 2q24 0 39.5 -2t24 -6t10.5 -10t1 -14l-80 -407q-5 -26 -12 -53t-14.5 -53.5t-15 -50.5t-13.5 -42q16 35 50 72.5t80 69t101.5 52.5t114.5 21q64 0 109 -18.5t73.5 -51t41.5 -77.5t13 -97q0 -36 -4 -70t-11 -69l-112 -562 q-2 -8 -7 -13.5t-15.5 -9.5t-26.5 -6t-41 -2q-24 0 -39.5 2t-24 6t-11 9.5t-1.5 13.5l111 556q5 26 8.5 58.5t3.5 56.5q0 29 -6 53t-19.5 41.5t-35 27.5t-52.5 10q-53 0 -108.5 -31t-103 -85.5t-85 -128.5t-54.5 -159l-80 -399q-2 -8 -7 -13.5t-15 -9.5t-26.5 -6t-40.5 -2 q-25 0 -40.5 2t-24 6t-10.5 10l-2 6q0 3 1 7z" />
<glyph unicode="i" horiz-adv-x="470" d="M65 25l179 900q1 7 6 13t15 10t26.5 6t41.5 2q24 0 39.5 -2t24 -6t11 -10t1.5 -13l-179 -900q-2 -8 -7 -13.5t-15 -9.5t-26.5 -6t-40.5 -2q-25 0 -40.5 2t-24 6t-10.5 10l-2 6q0 3 1 7zM281 1181v7q0 17 4 40q6 28 15 46.5t22.5 31t34.5 17t51 4.5q29 0 47.5 -4.5 t28.5 -16.5q9 -14 10 -32v-5q0 -17 -5 -41q-5 -28 -13.5 -47t-22.5 -30.5t-35 -16.5t-51 -5q-29 0 -48 5t-28 16.5t-10 30.5z" />
<glyph unicode="j" horiz-adv-x="490" d="M-197 -320q0 5 1.5 14.5t3.5 20.5t5 23t8 21.5t11 15.5t13 6t12 -1t11 -1.5t15.5 -1.5t24.5 -1q33 0 59 9.5t45.5 32.5t33.5 60t25 91l191 956q2 7 7 13t15.5 10t27 6t40.5 2q23 0 39 -2t24.5 -6t11 -10t1.5 -13l-193 -959q-15 -78 -39 -139.5t-62 -104t-92 -65 t-128 -22.5q-41 0 -68.5 6t-34.5 12q-4 5 -6 11t-2 16zM300 1185q0 18 5 43q6 28 14 46.5t22.5 31t34.5 17t50 4.5t49 -4.5t28 -17t10 -31.5v-5q0 -17 -5 -41q-6 -28 -14.5 -47t-22 -30.5t-34 -16.5t-50.5 -5q-29 0 -47.5 5t-28.5 16q-11 13 -11 35z" />
<glyph unicode="k" horiz-adv-x="931" d="M64 25l267 1336q2 8 6.5 14t15 10t27 6t41.5 2q24 0 39.5 -2t24 -6t10.5 -10t1 -14l-163 -814l417 377q8 9 18 15.5t23 10t30.5 5t41.5 1.5t40.5 -1.5t26 -5t13.5 -9t4 -12.5q0 -12 -8.5 -25t-33.5 -36l-391 -335l269 -453q10 -18 14 -30.5t4 -19.5q0 -9 -4 -15.5 t-14.5 -10.5t-28 -6.5t-43.5 -2.5q-28 0 -44 1.5t-26 5.5t-15 10t-9 15l-288 498l-99 -499q-2 -8 -7 -13.5t-15.5 -9.5t-27 -6t-40.5 -2t-39.5 2t-24 5.5t-11.5 9.5q-2 4 -2 8q0 3 1 6z" />
<glyph unicode="l" horiz-adv-x="470" d="M65 25l266 1336q2 8 6.5 14t15 10t27 6t41.5 2q24 0 39.5 -2t24 -6t10.5 -10q1 -4 1 -9v-5l-266 -1336q-2 -8 -7 -13.5t-15 -9.5t-26.5 -6t-40.5 -2q-25 0 -40.5 2t-24 6t-10.5 10l-2 6q0 3 1 7z" />
<glyph unicode="m" horiz-adv-x="1620" d="M65 25l181 901q1 7 5.5 13t14 10t24 5.5t34.5 1.5q21 0 34.5 -1.5t21 -5.5t9.5 -10t1 -13l-34 -172q15 34 49.5 72t80.5 70t100.5 53t111.5 21q60 0 103 -16.5t70.5 -45t40.5 -68t16 -86.5q20 35 55 73t81 69.5t100 52.5t110 21q67 0 112 -19t73 -52t40 -77t12 -96 q0 -35 -4 -69t-11 -70l-113 -562q-1 -8 -6 -13.5t-15.5 -9.5t-27 -6t-40.5 -2t-39.5 2t-24 6t-11.5 9.5t-1 13.5l111 556q5 29 8.5 55t3.5 52q0 64 -24.5 102t-85.5 38q-50 0 -103.5 -30.5t-101.5 -84t-85 -127t-54 -159.5l-80 -402q-2 -8 -7 -13.5t-15.5 -9.5t-27 -6 t-40.5 -2t-39.5 2t-23.5 6t-11 9.5t-2 13.5l111 556q7 30 9.5 59t2.5 54q0 61 -25 97.5t-85 36.5q-51 0 -104 -30.5t-101 -84t-85 -127t-54 -159.5l-80 -402q-2 -8 -7 -13.5t-15 -9.5t-26.5 -6t-40.5 -2q-25 0 -40.5 2t-24 6t-10.5 10l-2 6q0 3 1 7z" />
<glyph unicode="n" d="M65 25l181 901q1 7 5.5 13t14 10t24 5.5t34.5 1.5q21 0 34.5 -1.5t21 -5.5t9.5 -10t1 -13l-34 -172q15 34 49 72t81 70t103.5 53t117.5 21q67 0 112 -20.5t73 -54t40 -77.5t12 -92q0 -35 -4 -69t-11 -70l-113 -562q-2 -8 -6.5 -13.5t-15 -9.5t-26.5 -6t-41 -2 q-24 0 -39.5 2t-24 6t-11 9.5t-1.5 13.5l111 556q7 31 9.5 60t2.5 51q0 61 -26 98.5t-87 37.5q-53 0 -108.5 -30.5t-103 -84t-85 -127t-54.5 -159.5l-80 -402q-2 -8 -7 -13.5t-15 -9.5t-26.5 -6t-40.5 -2q-25 0 -40.5 2t-24 6t-10.5 10l-2 6q0 3 1 7z" />
<glyph unicode="o" horiz-adv-x="1051" d="M78 324q0 74 13.5 151t42.5 148t72.5 134.5t103 110.5t135 74.5t168.5 27.5q96 0 164.5 -23.5t113 -67.5t65.5 -108t21 -144q0 -74 -14 -151t-42.5 -148.5t-72.5 -134.5t-103.5 -110t-135 -74.5t-168.5 -27.5q-96 0 -164.5 23t-112.5 67t-65 108t-21 145zM251 334 q0 -50 11 -90t35.5 -68t63.5 -43t95 -15q61 0 109.5 21.5t87 58.5t67 86t47 105t27.5 114t9 114q0 50 -10.5 90t-35 67.5t-64 42.5t-95.5 15q-60 0 -109 -21.5t-87.5 -58t-67 -85.5t-47 -104.5t-27.5 -114t-9 -114.5z" />
<glyph unicode="p" d="M-7 -332l253 1258q2 16 20 23t60 7q21 0 34 -1.5t21 -5t10 -9.5t1 -14l-34 -171q14 33 47.5 70.5t80 70t103.5 53.5t116 21q76 0 127.5 -26t83.5 -69.5t46 -103t14 -127.5q0 -58 -11 -130.5t-35 -146.5t-61.5 -143.5t-90.5 -123.5t-122.5 -86.5t-157.5 -32.5q-45 0 -82 9 t-68 25t-57 37.5t-48 47.5l-85 -432q-2 -8 -6.5 -14t-14.5 -10t-26.5 -6t-41.5 -2q-23 0 -38.5 2t-24.5 6t-11.5 10t-1.5 14zM276 261q47 -70 101 -104.5t122 -34.5q53 0 96.5 25t77 67t58 95t41 110t24 113t7.5 101q0 43 -7.5 79t-24 62t-43 40t-65.5 14q-54 0 -110 -30 t-104 -84t-85.5 -127.5t-54.5 -160.5z" />
<glyph unicode="q" d="M81 305q0 55 10.5 126.5t34 145t60.5 144.5t90 126t123 89t160 34q89 0 152.5 -36t113.5 -99l19 91q4 16 23 23.5t59 7.5q20 0 33.5 -2t21.5 -6t10 -10t1 -13l-251 -1258q-2 -8 -7 -14t-15 -10t-26.5 -6t-41.5 -2q-23 0 -38.5 2t-24 6t-11.5 10t-2 14l66 325q5 26 12 53 t14.5 53.5t14.5 50.5t14 42q-16 -34 -51 -71.5t-81 -68.5t-101 -51t-112 -20q-71 0 -122.5 23t-84 66t-48 102.5t-15.5 132.5zM254 318q0 -99 35.5 -147.5t103.5 -48.5q55 0 110.5 30.5t103.5 84.5t85 127.5t55 160.5l34 165q-47 69 -101.5 103.5t-122.5 34.5 q-56 0 -100.5 -26.5t-78 -70.5t-57.5 -99t-39 -112t-21.5 -110t-6.5 -92z" />
<glyph unicode="r" horiz-adv-x="702" d="M65 25l179 901q1 7 6 13t15 10t24.5 5.5t34.5 1.5q21 0 34.5 -1.5t21 -5.5t9.5 -10t1 -13l-33 -164q23 41 54.5 79t68.5 66.5t77.5 45.5t79.5 17q17 0 34.5 -2.5t32.5 -6t26.5 -8t17.5 -10.5t6 -19q0 -4 -1.5 -15.5t-3.5 -26.5t-6 -31t-10 -29.5t-12.5 -22.5t-14.5 -9 t-17.5 3.5t-21 8.5t-26.5 8.5t-35 3.5q-34 0 -78.5 -29.5t-87.5 -81.5t-78.5 -123t-52.5 -154l-79 -401q-2 -8 -7 -13.5t-15 -9.5t-26.5 -6t-40.5 -2q-25 0 -40.5 2t-24 6t-10.5 10l-2 6q0 3 1 7z" />
<glyph unicode="s" horiz-adv-x="797" d="M9 93q0 8 1 19t4 23t6.5 23t8.5 20t10 14.5t12 5.5q12 0 29 -13.5t44.5 -29t68.5 -29t102 -13.5q55 0 94.5 13.5t65.5 36t38.5 52.5t12.5 63q0 42 -26 68.5t-65.5 48t-85.5 42.5t-85.5 49.5t-66 70t-26.5 105.5q0 66 26 122.5t73.5 98t114 64.5t147.5 23q38 0 73.5 -6 t65.5 -15t52 -20t33 -22q11 -10 11 -31q0 -10 -3 -26.5t-8.5 -32.5t-13 -27t-16.5 -11q-12 0 -28.5 9.5t-40.5 21.5t-57.5 22t-79.5 10q-44 0 -78 -12.5t-57 -34t-35 -49t-12 -57.5q0 -40 26.5 -66.5t66.5 -47.5t86.5 -41.5t86 -50t66 -71t26.5 -104.5q0 -70 -27.5 -130.5 t-79 -104t-124.5 -68t-163 -24.5q-47 0 -88.5 7t-75 18t-57.5 24.5t-37 25.5q-8 8 -11.5 16.5t-3.5 20.5z" />
<glyph unicode="t" horiz-adv-x="686" d="M113 846q0 14 3 32.5t9 34.5t15.5 27t22.5 11h126l43 214q1 7 6.5 13t15.5 10.5t26.5 6.5t40.5 2t39.5 -2t24 -6.5t11 -10.5t1.5 -13l-43 -214h230q15 0 20 -11t5 -25q0 -9 -1 -19.5t-4 -21.5t-8 -22t-10.5 -19.5t-12.5 -13.5t-16 -5h-230l-101 -502q-4 -21 -7 -47 t-3 -43q0 -51 21.5 -74.5t69.5 -23.5q27 0 47 4.5t34.5 9.5t25.5 9.5t19 4.5t12.5 -5.5t4.5 -20.5q0 -13 -2.5 -28.5t-6.5 -30.5t-10 -27t-13 -19q-8 -7 -24 -14t-37 -12.5t-44.5 -8.5t-46.5 -3q-56 0 -97 12t-69 37.5t-41.5 64t-13.5 92.5q0 12 1 27q2 14 4 30l4 32 q2 16 6 30l101 506h-125q-11 0 -17 6.5t-6 25.5z" />
<glyph unicode="u" d="M112 225q0 33 4.5 67.5t11.5 69.5l111 564q2 7 7 13t15.5 10t27 5.5t40.5 1.5t39.5 -1.5t24 -5.5t11 -10t1.5 -13l-110 -558q-6 -26 -9 -54t-3 -57q0 -30 5.5 -54.5t19 -42.5t35 -28t52.5 -10q53 0 108.5 30.5t103.5 84.5t85.5 128.5t55.5 162.5l79 398q1 7 6.5 13t16 10 t27 5.5t40.5 1.5t39.5 -1.5t24 -5.5t11 -10t1.5 -13l-181 -901q-1 -8 -6 -14t-14 -9.5t-23.5 -5.5t-35.5 -2q-20 0 -33.5 2t-21 5.5t-10 9.5t-0.5 14l33 169q-16 -34 -50.5 -71.5t-81 -69.5t-102 -52t-112.5 -20q-68 0 -114.5 18.5t-75 51t-41 77t-12.5 97.5z" />
<glyph unicode="v" horiz-adv-x="913" d="M124 918q0 13 4 20t13 11t24.5 5.5t41.5 1.5t42 -1.5t24.5 -5t11.5 -10t4 -15.5l108 -742v-12l5 6q59 89 108 172.5t91 172.5t79.5 187t76.5 216q3 9 8.5 15.5t16 10t28 5t43.5 1.5q24 0 39 -1.5t23.5 -4t12 -7t3.5 -10.5q0 -10 -3 -20.5t-7 -21.5q-37 -109 -83.5 -220.5 t-103 -222t-124 -217t-147.5 -205.5q-7 -11 -16 -17t-21.5 -9.5t-28.5 -4.5t-38 -1q-31 0 -50 2t-29.5 6t-15 11t-5.5 17l-133 853q-1 11 -1.5 19.5t-0.5 15.5z" />
<glyph unicode="w" horiz-adv-x="1464" d="M143 917q0 12 4 19.5t13.5 12t26 6t42.5 1.5t41.5 -1.5t24 -5t11.5 -10t4 -15.5l70 -744v-9l4 9l341 744q4 8 9 14.5t14 10.5t24 5.5t38 1.5t38.5 -1.5t24.5 -5t13 -9.5t5 -14l74 -741v-8l5 8q46 72 92 159.5t89 184t81.5 197.5t70.5 198q2 9 8 15.5t16.5 10t27.5 5 t43 1.5q24 0 39.5 -1.5t23.5 -4t10.5 -7t2.5 -10.5q0 -11 -2.5 -22.5t-5.5 -19.5q-38 -109 -83.5 -220.5t-100 -222t-117.5 -217t-135 -205.5q-7 -11 -17.5 -17t-24 -9.5t-30.5 -4.5t-38 -1q-26 0 -43.5 2t-28 6t-15 11t-4.5 17l-67 660l-303 -657q-5 -11 -13 -18.5t-21 -12 t-32.5 -6.5t-47.5 -2t-48 2t-32.5 6t-18.5 11t-6 17l-95 855q-1 9 -1.5 17.5t-0.5 14.5z" />
<glyph unicode="x" horiz-adv-x="887" d="M-35 43l374 444l-185 420q-6 14 -5 23.5t10.5 15.5t28.5 8t50 2q28 0 44 -1.5t24.5 -4.5t12 -8t6.5 -12l143 -336l270 336q6 6 12 11t17 8.5t27.5 5t43.5 1.5q30 0 49 -2t28 -7q8 -4 8 -12q-1 -1 -1 -3q-2 -10 -14 -23l-351 -425l196 -440q6 -14 4.5 -23.5t-12.5 -15.5 t-30.5 -8.5t-50.5 -2.5q-28 0 -44 1.5t-25 5t-12 9t-6 12.5l-150 355l-283 -355q-6 -7 -12.5 -12.5t-18.5 -8.5t-30.5 -5t-48.5 -2q-29 0 -47 2q-19 3 -27 9q-7 5 -7 12q0 10 12 26z" />
<glyph unicode="y" horiz-adv-x="916" d="M34 -313l244 313l-149 879q-2 12 -3 22t-1 17q0 11 3.5 18.5t13.5 12t26.5 6t40.5 1.5q27 0 42.5 -1.5t24 -5t12 -10.5t4.5 -17l117 -734h2q62 87 112 177t92 182.5t77.5 187t66.5 191.5q2 8 7.5 13.5t16 9.5t28.5 5.5t45 1.5q45 0 60 -6t15 -18q0 -11 -2 -22.5t-7 -21.5 q-33 -91 -72 -189.5t-91 -206t-121.5 -224.5t-165.5 -246l-259 -353q-6 -8 -15 -14t-22 -10.5t-31.5 -6.5t-43.5 -2q-27 0 -44.5 2.5t-26.5 8.5q-8 5 -8 14q0 11 12 26z" />
<glyph unicode="z" horiz-adv-x="809" d="M5 39q0 7 2 18t4 22.5t4.5 21.5t4.5 15q2 8 5 14.5t9 15t15 20.5t22 28l512 618h-376q-13 0 -19.5 8.5t-6.5 26.5q0 9 1.5 20t4 22.5t7 23t10.5 20t13.5 13.5t16.5 5h519q19 0 26.5 -9t7.5 -25q0 -5 -1 -15t-3 -20l-4 -20q-2 -10 -4 -18q-6 -22 -18.5 -41.5t-34.5 -45.5 l-509 -618h413q12 0 18 -9t6 -26q0 -8 -1 -19t-4 -22t-7 -22.5t-10 -20.5t-13 -14.5t-16 -5.5h-557q-19 0 -28 10.5t-9 28.5z" />
<glyph unicode="{" horiz-adv-x="644" d="M102 536q0 8 2 20t4.5 23t7 20.5t9.5 13.5q8 9 22 11.5t31.5 6.5t38.5 14t44 33q30 30 50.5 79t32.5 108l44 226q17 79 38.5 138.5t54.5 99.5t79.5 59.5t112.5 19.5q16 0 28.5 -0.5t23 -2t17.5 -4t11 -5.5q4 -4 5 -10.5t1 -14.5q0 -13 -3 -28.5t-9 -29.5t-15.5 -23.5 t-22.5 -9.5h-31q-28 0 -49 -8.5t-37.5 -33t-30 -67.5t-27.5 -112l-37 -187q-11 -58 -30 -109.5t-47 -93t-67.5 -70t-93.5 -39.5q37 -8 61.5 -29.5t38.5 -49.5t20 -60t6 -60q0 -26 -3 -53t-8 -52l-50 -246q-7 -41 -11 -72t-4 -55q0 -44 15 -60.5t43 -16.5h46q15 0 21 -9.5 t6 -22.5q0 -7 -2 -18.5t-5.5 -23t-8.5 -22.5t-11 -17q-4 -4 -10.5 -6.5t-16 -4.5t-23 -3t-31.5 -1q-52 0 -86 13t-53.5 36t-28 56.5t-8.5 75.5q0 26 4 68.5t14 95.5l50 243q4 19 7 44t3 44q0 30 -6 56t-19 45.5t-33.5 32t-49.5 16.5q-14 3 -19 10t-5 22z" />
<glyph unicode="|" horiz-adv-x="943" d="M234 -333l347 1736q1 7 6.5 13t15 10t25 6t37.5 2q23 0 37.5 -2t22.5 -6t10.5 -10t0.5 -13l-347 -1736q-2 -8 -7 -14t-14.5 -10t-25 -6t-37.5 -2q-23 0 -37.5 2t-22.5 6t-10.5 10t-0.5 14z" />
<glyph unicode="}" horiz-adv-x="644" d="M-28 -285q0 12 3 28t9 30t15.5 23.5t22.5 9.5h31q28 0 49 8.5t37.5 33t30 67.5t27.5 112l46 233q11 57 29.5 109t47.5 93.5t68.5 69.5t92.5 39q-38 8 -62 29.5t-38 50t-20 60t-6 59.5t2.5 54.5t8.5 51.5l41 201q7 40 11 71t4 55q0 44 -15 60.5t-43 16.5h-45 q-16 0 -22 9.5t-6 23.5q0 6 2 17.5t5 23t8.5 22.5t11.5 17q4 4 10 7t16 5t23.5 2.5t31.5 0.5q51 0 85 -13t54.5 -36t29 -56.5t8.5 -75.5q0 -26 -4.5 -68.5t-15.5 -95.5l-40 -197q-4 -19 -7 -44.5t-3 -44.5q0 -29 6 -55t18.5 -46t33.5 -32.5t50 -16.5q14 -2 19 -9.5t5 -21.5 q0 -9 -1.5 -20.5t-5 -22.5t-8 -21t-8.5 -14q-8 -8 -21 -11l-32 -7q-18 -4 -39 -14t-44 -33q-30 -30 -50.5 -78t-32.5 -108l-54 -272q-16 -79 -37.5 -138.5t-54.5 -99t-80 -59.5t-112 -20q-16 0 -28.5 0.5t-23 2t-17.5 4t-11 5.5q-3 4 -4.5 10.5t-1.5 14.5z" />
<glyph unicode="~" horiz-adv-x="1020" d="M147 824q0 62 17 118t52 98t87 67.5t124 25.5q59 0 99.5 -17.5t70 -43.5t51.5 -56t43.5 -56t46.5 -43t61 -17q34 0 58 13t41.5 36.5t26.5 55.5t11 70q1 16 18.5 21.5t48.5 5.5q20 0 31.5 -1.5t19 -5.5t10 -9.5t2.5 -13.5q0 -63 -19.5 -119t-55.5 -98.5t-87 -67 t-114 -24.5q-61 0 -102 17.5t-69.5 43.5t-49.5 56.5t-42.5 56.5t-47.5 43.5t-65 17.5q-34 0 -59 -14.5t-41 -38.5t-25.5 -55t-11.5 -66q-1 -18 -18 -23.5t-50 -5.5q-39 0 -50.5 7t-11.5 22z" />
<glyph unicode="&#xa1;" horiz-adv-x="667" d="M530.022 1130.01q0 -12.998 -2.49902 -31.9961q-2.5 -18.9971 -7.49902 -38.9951q-5 -19.9971 -12.999 -38.4951t-17.998 -29.4961q-15.998 -15.998 -36.9951 -21.4971q-20.9971 -5.5 -53.9932 -5.5q-28.9961 0 -46.9941 4.5q-17.998 4.49902 -27.4971 12.498 t-12.998 19.998q-3.5 11.998 -3.5 24.9971q0 13.998 3 33.4951q2.99902 19.498 8.49902 38.9951q5.49902 19.498 12.998 36.9961t18.498 27.4961q13.998 14.998 35.9951 21.998q21.998 6.99902 56.9932 6.99902q25.9971 0 43.4951 -4q17.498 -3.99902 26.9961 -11.498 q9.49902 -7.49902 12.999 -19.498q3.49902 -11.998 3.49902 -26.9971zM438.034 823.044q2 -5.99902 0 -13.998l-171.979 -953.884q-2.99902 -12.998 -8.99805 -21.9971q-6 -8.99902 -17.998 -14.499q-11.999 -5.49902 -29.9961 -7.99902q-17.998 -2.49902 -43.9951 -2.49902 q-26.9971 0 -43.9951 2.49902q-16.9971 2.5 -26.4961 8.49902q-9.49902 6 -11.499 14.998q-1.99902 8.99902 1 20.998l207.975 953.884q1 7.99902 5.99902 13.998q5 5.99902 14.998 9.99902q9.99902 3.99902 24.4971 5.99902q14.499 2 35.4961 2q21.9971 0 34.9961 -2 q12.998 -2 20.4971 -5.99902q7.49902 -4 9.49902 -9.99902z" />
<glyph unicode="&#xa2;" horiz-adv-x="1020" d="M203 489q0 52 9 117t30.5 132.5t55.5 133t84.5 119.5t118 91.5t155.5 48.5l29 145q1 7 6 13t14 10t23.5 6t35.5 2t34.5 -2t21 -6t9.5 -10t1 -13l-28 -145q49 -7 89.5 -25.5t78.5 -49.5q16 -15 22.5 -26.5t6.5 -27.5q0 -7 -1.5 -17.5t-4 -22t-6 -24t-9 -22t-13 -16 t-16.5 -6.5q-13 0 -29 16t-41 35.5t-63.5 35.5t-97.5 16q-64 0 -114.5 -24.5t-88.5 -64.5t-64.5 -91.5t-42.5 -106t-23.5 -107.5t-7.5 -94q0 -49 10 -89t32.5 -68.5t60 -44t92.5 -15.5q59 0 103.5 17.5t78 38.5t57.5 38.5t43 17.5q8 0 12.5 -7.5t4.5 -22.5q0 -11 -2.5 -28 t-7 -35.5t-11.5 -34.5t-17 -26q-15 -15 -40 -30.5t-55.5 -28.5t-63.5 -22.5t-67 -14.5l-29 -145q-3 -15 -20 -23t-59 -8q-21 0 -35 2t-22 6t-10.5 10t-0.5 13l31 147q-70 11 -119.5 40t-80.5 72t-45 99t-14 122z" />
<glyph unicode="&#xa3;" horiz-adv-x="1038" d="M0 37q0 7 1.5 17t4.5 21.5t8 22.5t11 20.5t13 15t15 5.5h123l92 454h-123q-12 0 -19.5 10t-7.5 26q0 5 1.5 15t4 21t6.5 22.5t10 20t13.5 14.5t16.5 6h123l29 140q24 122 68 206t103.5 137t134.5 76t161 23q36 0 71.5 -5.5t69.5 -17t63 -28t52 -39.5q11 -10 16 -21.5 t5 -24.5q0 -7 -1 -17.5t-3 -22.5t-5.5 -24t-8.5 -21t-12 -15.5t-16 -6.5q-14 0 -29.5 16t-41.5 35.5t-64.5 35.5t-98.5 16q-118 0 -192.5 -81t-106.5 -239l-24 -122h327q15 0 21 -11t6 -25q0 -6 -1 -16t-4 -21t-7 -22t-10 -20t-13 -14.5t-17 -5.5h-328l-91 -454h503 q12 0 18.5 -9.5t6.5 -24.5q0 -6 -1 -16t-4 -22t-7 -23.5t-10 -21t-13.5 -16t-16.5 -6.5h-795q-12 0 -19.5 10t-7.5 27z" />
<glyph unicode="&#xa4;" horiz-adv-x="1020" d="M-12.5 60q4.5 12 19.5 29l186 207q-22 29 -35.5 75t-13.5 101q0 52 9.5 105t29 102.5t48.5 95t69 84.5l-103 207q-7 17 -7.5 29t7.5 20t25.5 11.5t45.5 3.5q24 0 39 -1.5t24.5 -4t14 -7.5t7.5 -13l76 -169q38 18 84.5 28.5t97.5 10.5q49 0 89 -9.5t72 -29.5l142 172 q7 8 15 13t20 7.5t29 4t42 1.5q28 0 44 -4t21 -12.5t0.5 -20.5t-18.5 -29l-192 -211q14 -23 22.5 -47t12.5 -46t5 -40.5t1 -29.5q0 -54 -10 -106.5t-30 -102.5t-51 -96t-72 -85l103 -204q8 -17 8.5 -29t-7.5 -19.5t-25.5 -11t-45.5 -3.5q-24 0 -39.5 1t-25 4t-13.5 7.5 t-7 12.5l-76 170q-40 -19 -83 -29.5t-92 -10.5q-45 0 -83 7.5t-66 22.5l-142 -171q-7 -7 -15 -12t-20 -8t-29.5 -4t-40.5 -1q-28 0 -44.5 4t-21.5 11.5t-0.5 19.5zM299 499q0 -88 44.5 -134.5t134.5 -46.5q77 0 130.5 33.5t87 85t49 112.5t15.5 115q0 35 -9 68.5t-29.5 59.5 t-52.5 41.5t-79 15.5q-58 0 -102 -17.5t-76.5 -47t-54 -67t-34 -76.5t-18.5 -76t-6 -66z" />
<glyph unicode="&#xa5;" horiz-adv-x="1038" d="M74 190q0 7 2.5 22t8 30t13.5 26.5t21 11.5h276l31 160h-276q-10 0 -15 8.5t-5 24.5q0 5 1 13.5t3.5 18t6 20t8.5 18.5t11.5 13t14.5 5h276l11 53l-238 619q-8 21 -9.5 34.5t7 20.5t28 9.5t52.5 2.5q28 0 45 -1.5t26 -5t13.5 -9.5t8.5 -15l182 -504l378 504q7 9 15 15 t20.5 9.5t32 5t48.5 1.5q31 0 49 -2.5t24 -9.5t-0.5 -20.5t-22.5 -34.5l-487 -619l-11 -53h277q12 0 16.5 -9.5t4.5 -19.5q0 -7 -1 -16t-3.5 -19t-6 -20.5t-9 -18.5t-12 -13t-13.5 -5h-277l-31 -160h276q12 0 16.5 -9t4.5 -20q0 -5 -1 -14t-3 -19.5t-5.5 -20.5t-9 -19 t-12 -14t-14.5 -5h-277l-26 -135q-1 -8 -6.5 -13.5t-16.5 -9t-28 -5.5t-41 -2q-25 0 -41.5 2t-25.5 5.5t-12 9t-1 13.5l26 135h-276q-10 0 -15.5 8.5t-5.5 22.5z" />
<glyph unicode="&#xa6;" horiz-adv-x="1020" d="M266 -360l135 673q1 7 5.5 13t15 10.5t25.5 6.5t38 2q22 0 36.5 -2t22.5 -6.5t10.5 -10.5t1.5 -13l-135 -673q-2 -7 -6.5 -13t-14.5 -10t-25 -6t-38 -2q-22 0 -37 2t-23 6t-10.5 10t-0.5 13zM490 746q-3 6 0 13l132 663q2 7 7 13t14.5 10t25 6.5t38.5 2.5q22 0 36.5 -2.5 t22.5 -6.5t10.5 -10t1.5 -13l-133 -663q-3 -7 -7.5 -13t-14 -10.5t-25 -6t-37.5 -1.5q-23 0 -37.5 1.5t-22.5 6t-11 10.5z" />
<glyph unicode="&#xa7;" horiz-adv-x="1020" d="M69 -88q0 6 1.5 16.5t4 21.5t6 22.5t8.5 20.5t12 15t15 6q14 0 31 -13.5t44 -29.5t67.5 -29.5t100.5 -13.5q56 0 96.5 16t67 42t39 59t12.5 69q0 35 -19 60t-49 45.5t-69.5 38t-79.5 36t-79 40.5t-69.5 52.5t-49 71t-18.5 96.5q0 57 20 108.5t53 94.5t75.5 77t87.5 57 q-25 30 -35.5 63t-10.5 66q0 43 10 84t30.5 77t51.5 66t72 52t92 34t112 12q39 0 74 -5.5t63 -14t48.5 -20t32.5 -22.5q11 -12 11 -34q0 -6 -1 -15t-3.5 -20.5t-6 -23t-8 -21.5t-11 -16t-13.5 -6q-9 0 -23 11t-37 24t-57 24.5t-84 11.5q-43 0 -78 -14.5t-59 -37.5t-36.5 -54 t-12.5 -65q0 -37 18.5 -64.5t48.5 -48t69 -38t79.5 -36t79.5 -40t69 -52t48.5 -71.5t18.5 -97t-19 -106t-51 -93t-74.5 -77.5t-88.5 -58.5q25 -32 36.5 -67.5t11.5 -63.5q0 -37 -10 -76.5t-30.5 -76.5t-52.5 -70.5t-77 -58.5t-103.5 -40t-132.5 -15q-48 0 -88 7t-71.5 18.5 t-55 25t-37.5 25.5q-8 8 -12.5 16.5t-4.5 22.5zM308 575q0 -33 13 -57t35.5 -42.5t51 -33t60 -28.5t63.5 -29t60 -33q35 14 66.5 36.5t55 52t37.5 64.5t14 74q0 33 -13 57t-35 42.5t-50.5 33t-60 28t-64 28t-60.5 33.5q-35 -14 -67 -36.5t-55 -52t-37 -64.5t-14 -73z" />
<glyph unicode="&#xa8;" horiz-adv-x="804" d="M0 951zM280 1170.5q-1 18.5 3 45.5t11.5 45t20.5 29t31.5 15.5t44.5 4.5t43 -4.5t26.5 -15.5t11 -29t-2.5 -45t-12 -45.5t-21 -29t-32 -15t-44 -4.5q-27 0 -44 4.5t-26 15t-10 29zM634 1170.5q-2 18.5 3 45.5q4 27 11.5 45t20.5 29t31.5 15.5t44.5 4.5t43 -4.5 t26.5 -15.5t11 -29t-2.5 -45q-5 -27 -13 -45.5t-20.5 -29t-31.5 -15t-45 -4.5t-43 4.5t-25.5 15t-10.5 29z" />
<glyph unicode="&#xa9;" horiz-adv-x="1709" d="M201 484q0 48 5.5 113.5t20.5 139.5t41.5 151.5t68.5 151.5t103 139t143.5 114.5t189.5 78t243 28.5q116 0 204.5 -19.5t153 -54t107.5 -82t69 -103.5t36.5 -118t10.5 -127q0 -49 -5.5 -114.5t-20.5 -139t-41.5 -150.5t-69 -151t-103 -139.5t-143 -114.5t-189 -77.5 t-242.5 -28.5q-117 0 -206 19.5t-153.5 54.5t-107 82.5t-68.5 103.5t-36.5 117.5t-10.5 125.5zM333 504q0 -51 7 -101.5t25.5 -95.5t51.5 -83.5t85 -66.5t126.5 -44t175.5 -16q110 0 198 25t155 67t116 98.5t83 120t55.5 129.5t33 128.5t16 117.5t4.5 95q0 51 -7 101.5 t-26 95.5t-52 83t-85 66t-126 44t-174 16q-112 0 -200.5 -25.5t-156 -68.5t-116.5 -100t-83 -120.5t-55 -130t-32 -128.5t-15 -115.5t-4 -91.5zM529 538q0 53 10 118.5t32 131t57.5 127t86.5 109t120 76.5t157 29q76 0 130.5 -19.5t92.5 -48.5q13 -11 19 -20.5t6 -22.5 q0 -16 -3.5 -32.5t-9.5 -31t-14.5 -24t-20.5 -9.5q-13 0 -27 13.5t-36.5 30t-56.5 29.5t-87 13q-60 0 -105.5 -24t-79 -62t-56 -86.5t-36 -98t-19.5 -96.5t-6 -80q0 -93 41 -140.5t124 -47.5q60 0 102.5 15t72 32.5t49 32t33.5 14.5q8 0 13 -6t5 -20q0 -10 -2.5 -24t-6 -29 t-9.5 -28.5t-13 -20.5q-17 -15 -44.5 -31t-62.5 -29.5t-77.5 -21.5t-87.5 -8q-146 0 -218.5 73t-72.5 217z" />
<glyph unicode="&#xaa;" horiz-adv-x="882" d="M113 377q0 8 2 23.5t7 31t15 27t26 11.5h550q14 0 20 -7.5t6 -24.5q0 -7 -2 -22.5t-8.5 -31t-16.5 -27.5t-25 -12h-550q-14 0 -19 7t-5 25zM183 847q0 41 8 91t25.5 101t45.5 99.5t67.5 86t92 60.5t119.5 23q65 0 113 -23.5t85 -69.5l12 59q2 12 21.5 18t57.5 6t51 -6 t10 -18l-125 -630q-5 -12 -21.5 -18t-55.5 -6q-19 0 -31.5 1.5t-20 4.5t-10 7.5t-0.5 10.5l21 116q-12 -23 -36.5 -49.5t-59 -49t-76.5 -37t-87 -14.5q-61 0 -100.5 20t-63 53t-33 76t-9.5 88zM342 855q0 -22 4 -43.5t14.5 -38t29 -26.5t46.5 -10q34 0 73 21t74 59.5 t63 90.5t41 115l14 68q-32 44 -69.5 69.5t-84.5 25.5q-36 0 -65.5 -16t-52.5 -42.5t-39.5 -61.5t-27 -71.5t-15.5 -73t-5 -66.5z" />
<glyph unicode="&#xab;" horiz-adv-x="1049" d="M128 524q1 20 19 41l286 347q7 8 13.5 13t17 8t25 4t36.5 1q25 0 40.5 -3t22 -9t5.5 -14t-9 -19l-294 -383l138 -363q4 -10 3 -18.5t-8 -15t-22 -9.5t-40 -3q-22 0 -35 1t-20.5 4t-11 8t-6.5 13l-151 353q-10 24 -9 44zM497 523.5q1 19.5 19 40.5l279 329q7 7 14 12.5 t17 8.5t25 3.5t37 0.5q25 0 41 -2.5t23.5 -8t6.5 -13t-8 -17.5l-294 -366l146 -350q3 -10 2.5 -17t-8 -12t-23.5 -7.5t-41 -2.5q-22 0 -35 0.5t-20.5 3.5t-11 7t-6.5 13l-154 336q-10 22 -9 41.5z" />
<glyph unicode="&#xac;" horiz-adv-x="1020" d="M78 537q0 7 1 17.5t4 22t7.5 23.5t10 21.5t13.5 15.5t19 6h754q39 0 53 -14t5 -53l-51 -255q-3 -8 -7.5 -14.5t-14.5 -11t-24.5 -6.5t-34.5 -2t-34 2t-21.5 6.5t-10.5 11t-1 14.5l37 181h-679q-12 0 -19 8t-7 27z" />
<glyph unicode="&#xad;" horiz-adv-x="627" d="M72 472q0 5 1 14.5t3.5 21t6.5 23.5t10 21.5t13.5 15t18.5 5.5h419q14 0 19.5 -9t5.5 -24q0 -6 -0.5 -16t-3.5 -21.5t-7 -23t-9.5 -21.5t-14 -16t-18.5 -6h-419q-13 0 -19 9t-6 27z" />
<glyph unicode="&#x2010;" horiz-adv-x="627" d="M72 472q0 5 1 14.5t3.5 21t6.5 23.5t10 21.5t13.5 15t18.5 5.5h419q14 0 19.5 -9t5.5 -24q0 -6 -0.5 -16t-3.5 -21.5t-7 -23t-9.5 -21.5t-14 -16t-18.5 -6h-419q-13 0 -19 9t-6 27z" />
<glyph unicode="&#xae;" horiz-adv-x="1038" d="M237 975q0 96 34.5 175.5t93.5 136.5t134.5 88.5t156.5 31.5q88 0 155.5 -27.5t113.5 -75t70.5 -112t24.5 -138.5q0 -93 -35 -171t-93.5 -134t-133.5 -88t-156 -32q-89 0 -157.5 28.5t-114.5 76.5t-69.5 110.5t-23.5 130.5zM326 988q0 -67 20 -119t57 -88t89 -54.5 t116 -18.5q67 0 125.5 26t102.5 71t69 107t25 134q0 62 -18 113.5t-53 89.5t-87 59t-121 21q-67 0 -126.5 -26.5t-103.5 -72t-69.5 -108t-25.5 -134.5zM434 832l72 361q4 21 17.5 34t37.5 13h105q39 0 68 -7t47.5 -21t27.5 -33.5t9 -46.5q0 -26 -9.5 -47.5t-25 -37.5 t-37 -27t-44.5 -17q23 -7 38.5 -28t21.5 -58l10 -61q2 -14 2 -22t-5.5 -12.5t-17 -5.5t-33.5 -1q-33 0 -42.5 5t-11.5 21l-6 59q-6 38 -20 56t-47 18h-29l-28 -142q-2 -9 -13 -13t-41 -4q-32 0 -40 4t-6 13zM576 1050h41q27 0 44.5 5.5t28 15t14.5 22.5t4 28q0 8 -2.5 15.5 t-9.5 13t-20 9t-34 3.5h-44z" />
<glyph unicode="&#xaf;" horiz-adv-x="807" d="M0 951zM280 1196q0 7 2 23.5t8 32.5t15.5 28.5t26.5 12.5h479q12 0 16.5 -8.5t4.5 -22.5q0 -6 -1 -15t-3.5 -19.5t-6 -22t-8.5 -20.5t-12 -15t-16 -6h-479q-13 0 -19.5 7.5t-6.5 24.5z" />
<glyph unicode="&#x2c9;" horiz-adv-x="807" d="M0 951zM280 1196q0 7 2 23.5t8 32.5t15.5 28.5t26.5 12.5h479q12 0 16.5 -8.5t4.5 -22.5q0 -6 -1 -15t-3.5 -19.5t-6 -22t-8.5 -20.5t-12 -15t-16 -6h-479q-13 0 -19.5 7.5t-6.5 24.5z" />
<glyph unicode="&#xb0;" horiz-adv-x="694" d="M0 1294zM234 1107q0 57 21 104.5t56.5 80.5t83 51t100.5 18q52 0 94 -16t72 -44.5t45.5 -67t15.5 -82.5q0 -56 -20 -103t-55.5 -80.5t-82.5 -52t-100 -18.5q-54 0 -96.5 16t-72.5 44.5t-45.5 67t-15.5 82.5zM358 1117q0 -50 29.5 -83t85.5 -33q24 0 46.5 10.5t40 29 t28 44.5t10.5 59q0 47 -30 79.5t-85 32.5q-25 0 -47.5 -10t-39.5 -28t-27.5 -43.5t-10.5 -57.5z" />
<glyph unicode="&#xb1;" horiz-adv-x="1020" d="M3 38q0 14 3 32t10 34t17 27t23 11h778q14 0 20 -10t6 -27q0 -13 -3.5 -31t-10.5 -34.5t-17 -28t-25 -11.5h-774q-11 0 -19 9.5t-8 28.5zM123 690q0 7 1 17t4 21t7.5 22t10.5 19.5t14 14t18 5.5h324l72 362q2 7 7.5 13t15 10.5t24 7t34.5 2.5t33 -2.5t20.5 -7t9.5 -10.5 t1 -13l-73 -362h327q13 0 18.5 -9.5t5.5 -26.5q0 -8 -1.5 -19t-4 -22t-7 -22.5t-10.5 -20t-14 -14.5t-17 -6h-324l-73 -360q-2 -7 -6.5 -12.5t-14 -9.5t-23.5 -6.5t-35 -2.5q-19 0 -32.5 2.5t-21 6.5t-10.5 9.5t-1 12.5l72 360h-325q-13 0 -19.5 11t-6.5 30z" />
<glyph unicode="&#xb2;" horiz-adv-x="688" d="M132 752q0 11 2.5 24t8.5 27.5t15 28.5t24 26l191 156q59 48 99.5 89t64 75.5t33 65t9.5 58.5q0 36 -22.5 60t-74.5 24q-37 0 -69 -10t-57 -21t-42.5 -21t-28.5 -10q-6 0 -11 6t-5 22q0 10 2 23t5.5 26t8.5 24t12 18q11 11 35 22.5t55 22t67 17t69 6.5q63 0 106 -15.5 t69.5 -41t38 -57.5t11.5 -64q0 -46 -15.5 -90.5t-48.5 -91t-87 -98.5t-132 -113l-127 -102h323q10 0 14 -7t4 -22q0 -9 -2 -23.5t-6.5 -29t-12 -25t-18.5 -10.5h-471q-22 0 -29.5 7.5t-7.5 23.5z" />
<glyph unicode="&#xb3;" horiz-adv-x="685" d="M129 786q0 7 2.5 22t7 29.5t11.5 25.5t16 11t22.5 -8.5t35 -17.5t52 -17t74.5 -8q39 0 73 8.5t59.5 25.5t40 43t14.5 60q0 22 -8.5 40.5t-28.5 32.5t-52.5 21.5t-80.5 7.5h-73q-11 0 -16 8t-5 20q0 13 3 27.5t9 26.5t13 20t16 8h69q42 0 78.5 9t63 27t42.5 46t16 64 q0 15 -4.5 29t-15.5 25t-30.5 18t-49.5 7q-37 0 -70 -9.5t-60 -21t-45.5 -21t-27.5 -9.5q-14 0 -14 24q0 10 2.5 22.5t7 25t10 24t11.5 17.5q8 8 29.5 18.5t51.5 20.5t66.5 16.5t75.5 6.5q60 0 101.5 -13.5t67.5 -36.5t37.5 -53t11.5 -63q0 -47 -16 -84.5t-42 -66 t-61.5 -46.5t-74.5 -26v-2q39 -3 67.5 -17.5t47.5 -36t28.5 -47t9.5 -51.5q0 -57 -24 -104.5t-68.5 -82.5t-109 -54t-145.5 -19q-56 0 -108 10t-95 33q-9 6 -13.5 13t-4.5 22z" />
<glyph unicode="&#xb4;" horiz-adv-x="598" d="M0 951zM284 1115q2 8 9 19l154 231q7 11 15.5 18t20 11t28.5 6t42 2q28 0 44.5 -3.5t23 -10t5 -15t-9.5 -17.5l-191 -233q-7 -10 -13.5 -16t-16 -9.5t-22.5 -5t-33 -1.5q-22 0 -35 3t-18 8t-3 13z" />
<glyph unicode="&#xb5;" horiz-adv-x="1102" d="M-7 -332l251 1258q1 7 6 13t15.5 10t27 5.5t41.5 1.5q23 0 38.5 -1.5t24 -5.5t11 -10t1.5 -13l-113 -567q-10 -55 -11.5 -98.5t9 -74t35.5 -47t67 -16.5q54 0 109.5 30t104 83.5t86 127.5t56.5 162l80 400q1 7 6.5 13t15.5 10t27 5.5t41 1.5q23 0 38.5 -1.5t24 -5.5 t11.5 -10t2 -13l-132 -654q-8 -42 -10 -70.5t3.5 -45.5t18 -25t34.5 -8q33 0 51 5.5t33 5.5q6 0 9 -3.5t3 -10.5q0 -5 -1 -19.5t-5.5 -32.5t-10.5 -35t-16 -26q-5 -6 -16.5 -10.5t-26.5 -7.5t-32 -5t-34 -2q-94 0 -136.5 53t-24.5 158q-16 -34 -50.5 -71t-80.5 -68t-99 -51 t-106 -20q-29 0 -53 6t-41.5 16.5t-30 23t-18.5 26.5l-24 -167l-44 -220q-2 -8 -6 -14t-14.5 -10t-27 -6t-40.5 -2t-39.5 2t-24.5 6t-11.5 10t-1.5 14z" />
<glyph unicode="&#xb6;" horiz-adv-x="1200" d="M191 837q0 59 13.5 115t40.5 107t69 94t99 74.5t129 49t160 17.5h428q29 0 40 -17t6 -43l-289 -1439q-2 -7 -6 -12.5t-13 -8.5t-23 -5.5t-36 -2.5q-42 0 -55 8t-11 21l275 1370h-198l-274 -1370q-2 -7 -6.5 -12.5t-13.5 -8.5t-23.5 -5.5t-34.5 -2.5q-42 0 -55.5 8 t-10.5 21l148 738q-92 0 -159.5 22t-112 61.5t-66 96t-21.5 124.5z" />
<glyph unicode="&#xb7;" horiz-adv-x="517" d="M168 534q0 17 3.5 36.5t9 39t13.5 36t17 24.5q13 13 34 21t60 8q29 0 47 -5t27.5 -13.5t13 -20.5t3.5 -27q0 -17 -3.5 -36.5t-9 -39t-13.5 -36.5t-19 -27q-16 -17 -41 -22t-51 -5t-43.5 4t-28.5 13t-15 21t-4 29z" />
<glyph unicode="&#x2219;" horiz-adv-x="517" d="M168 534q0 17 3.5 36.5t9 39t13.5 36t17 24.5q13 13 34 21t60 8q29 0 47 -5t27.5 -13.5t13 -20.5t3.5 -27q0 -17 -3.5 -36.5t-9 -39t-13.5 -36.5t-19 -27q-16 -17 -41 -22t-51 -5t-43.5 4t-28.5 13t-15 21t-4 29z" />
<glyph unicode="&#xb8;" horiz-adv-x="629" d="M-23 -318q0 10 2 23t6.5 25t12.5 20.5t20 8.5h124q16 0 30.5 3.5t26 11.5t18.5 21.5t7 33.5q0 10 -2.5 26t-5.5 32l-29 113h140l19 -74q9 -33 13.5 -56.5t4.5 -44.5q0 -49 -15.5 -85t-44 -59t-69 -34.5t-90.5 -11.5q-26 0 -52 2t-47.5 6t-37 8.5t-21.5 8.5q-5 3 -7.5 8 t-2.5 14z" />
<glyph unicode="&#xb9;" horiz-adv-x="504" d="M204 1298q0 12 1.5 25.5t5.5 26t11 22.5t17 16l209 111q5 3 10.5 4.5t13 2.5t18 1.5t26.5 0.5q20 0 32.5 -1.5t19 -3.5t8 -5.5t1.5 -7.5l-151 -751q-2 -7 -6.5 -11.5t-13.5 -7t-23.5 -4t-34.5 -1.5q-19 0 -31.5 1t-20.5 4t-11 7.5t-2 11.5l124 620l-162 -78 q-26 -11 -33.5 -5t-7.5 22z" />
<glyph unicode="&#xba;" horiz-adv-x="865" d="M129 377q0 8 2 23.5t8 31t15.5 27t25.5 11.5h519q14 0 20 -7.5t6 -24.5q0 -7 -2.5 -22.5t-8.5 -31t-16 -27.5t-25 -12h-519q-14 0 -19.5 7t-5.5 25zM187 858q0 45 8 96t27 101.5t50 96.5t76 81t105.5 56t139.5 21q83 0 136.5 -23.5t84.5 -59t42.5 -79.5t11.5 -86 q0 -47 -9 -99t-28.5 -102.5t-51 -96t-76.5 -79.5t-104.5 -54.5t-134.5 -20.5q-84 0 -138 23.5t-85 59.5t-42.5 80t-11.5 85zM350 873q0 -28 6 -53t21 -44t40.5 -30.5t65.5 -11.5q44 0 78 16t59 42.5t41 60t26 68.5t14 68t4 59q0 28 -6 53t-21 44t-40.5 30.5t-64.5 11.5 q-45 0 -79 -16.5t-59 -43.5t-41 -61t-26 -69t-14 -67.5t-4 -56.5z" />
<glyph unicode="&#xbb;" horiz-adv-x="1049" d="M110.5 144.5q0.5 7.5 7.5 17.5l294 366l-146 350q-4 10 -3 17t8.5 12t23 8t41.5 3q22 0 35 -1t20 -4t11 -7.5t7 -12.5l153 -336q11 -22 10 -41.5t-19 -40.5l-280 -329q-6 -8 -13 -13t-17.5 -7.5t-25 -3.5t-36.5 -1q-25 0 -41 2.5t-23 8t-6.5 13zM475.5 127q1.5 8 9.5 18 l294 384l-139 363q-3 10 -2 18.5t8.5 15t22.5 9.5t40 3q22 0 34.5 -1t20 -4t11 -8t6.5 -13l151 -353q10 -24 9 -44t-19 -42l-287 -346q-6 -8 -12.5 -13t-17 -8t-25 -4t-36.5 -1q-26 0 -41 3t-22 9t-5.5 14z" />
<glyph unicode="&#xbc;" horiz-adv-x="1303" d="M615 154q0 11 2.5 26.5t7.5 31.5t11.5 32t16.5 27l309 362q8 8 31.5 14t71.5 6q27 0 45.5 -2t30.5 -5.5t17.5 -7.5t4.5 -10l-79 -394h73q10 0 14 -6.5t4 -16.5q0 -5 -2.5 -18.5t-7 -27.5t-11.5 -24.5t-18 -10.5h-74l-22 -113q-1 -6 -6 -10t-15 -7t-24 -4.5t-34 -1.5 q-19 0 -31 1.5t-18.5 4.5t-8.5 7t-2 10l23 113h-286q-13 0 -18 5.5t-5 18.5zM748 234h197l59 296h-2zM7 -21.5q-9 14.5 12 37.5l1158 1289q8 8 16 13.5t19 8.5t25.5 4.5t34.5 1.5q22 0 35.5 -3.5t18 -10.5t1.5 -17t-14 -21l-1158 -1289q-7 -9 -15 -13.5t-19.5 -8t-26 -5 t-34.5 -1.5q-44 0 -53 14.5zM196 1097q0 12 2 26t7 27t12.5 24t17.5 16l207 109q3 2 8 3t12.5 1.5t18.5 1t28 0.5q20 0 32.5 -1t19 -3t8.5 -4.5t1 -7.5l-126 -625q-1 -6 -5.5 -10.5t-13.5 -7.5t-23 -4t-34 -1q-19 0 -32 1t-21 4t-11 7.5t-2 10.5l99 497l-165 -79 q-24 -11 -32 -6t-8 21z" />
<glyph unicode="&#xbd;" horiz-adv-x="1375" d="M196 1097q0 12 2 26t7 27t12.5 24t17.5 16l207 109q3 2 8 3t12.5 1.5t18.5 1t28 0.5q20 0 32.5 -1t19 -3t8.5 -4.5t1 -7.5l-126 -625q-1 -6 -5.5 -10.5t-13.5 -7.5t-23 -4t-34 -1q-19 0 -32 1t-21 4t-11 7.5t-2 10.5l99 497l-165 -79q-24 -11 -32 -6t-8 21zM720 31 q0 9 2 22t7 27t14 28t23 24l160 125q51 40 84.5 71t53 57t28 49t8.5 48q0 12 -4 23.5t-14 20.5t-26 15.5t-38 6.5q-34 0 -61.5 -8t-49 -17.5t-36 -17t-21.5 -7.5q-8 0 -12.5 7.5t-4.5 20.5q0 10 2 23t6 25.5t11.5 23.5t17.5 16q44 23 91.5 35.5t97.5 12.5q57 0 95 -14.5 t61 -37t32.5 -50.5t9.5 -55q0 -43 -13 -80t-42.5 -73.5t-77 -76.5t-117.5 -89l-101 -75h281q11 0 14.5 -8t3.5 -19q0 -9 -2 -23.5t-7 -27.5t-11.5 -23t-16.5 -10h-412q-20 0 -28 7t-8 24zM7 -21.5q-9 14.5 12 37.5l1158 1289q8 8 16 13.5t19 8.5t25.5 4.5t34.5 1.5 q22 0 35.5 -3.5t18 -10.5t1.5 -17t-14 -21l-1158 -1289q-7 -9 -15 -13.5t-19.5 -8t-26 -5t-34.5 -1.5q-44 0 -53 14.5z" />
<glyph unicode="&#xbe;" horiz-adv-x="1383" d="M120 702q0 6 2 20t5.5 27t9.5 23t13 10q8 0 19.5 -6.5t31.5 -15.5t48 -15.5t69 -6.5q34 0 62.5 7t49 21.5t32 36t11.5 49.5q0 17 -7 30.5t-23.5 23.5t-44 15.5t-68.5 5.5h-68q-10 0 -15 6.5t-5 19.5q0 7 2 19.5t6 24.5t11 21t18 9h64q80 0 124.5 32t44.5 81q0 11 -4 22.5 t-14.5 20.5t-28.5 15.5t-47 6.5q-32 0 -58.5 -8t-48 -17.5t-37 -17t-23.5 -7.5t-12.5 5.5t-4.5 19.5q0 13 2.5 26t7.5 23.5t12 19t15 13.5q17 10 37.5 18.5t44 15t49.5 10t55 3.5q52 0 90 -10.5t63 -30.5t37.5 -48t12.5 -62q0 -33 -12.5 -62t-34.5 -51.5t-53 -38.5t-68 -24 q35 -3 60.5 -15t42 -29.5t24.5 -38.5t8 -43q0 -33 -10 -62.5t-28.5 -54t-45 -44.5t-60.5 -34t-74.5 -21.5t-87.5 -7.5q-53 0 -97.5 9.5t-82.5 29.5q-12 5 -16.5 11.5t-4.5 19.5zM86 -21.5q-9 14.5 12 37.5l1158 1289q8 8 16 13.5t19 8.5t25.5 4.5t34.5 1.5q22 0 35.5 -3.5 t18 -10.5t1.5 -17t-14 -21l-1158 -1289q-7 -9 -15 -13.5t-19.5 -8t-26 -5t-34.5 -1.5q-44 0 -53 14.5zM695 154q0 11 2.5 26.5t7.5 31.5t11.5 32t16.5 27l309 362q8 8 31.5 14t71.5 6q27 0 45.5 -2t30.5 -5.5t17.5 -7.5t4.5 -10l-79 -394h73q10 0 14 -6.5t4 -16.5 q0 -5 -2.5 -18.5t-7 -27.5t-11.5 -24.5t-18 -10.5h-74l-22 -113q-1 -6 -6 -10t-15 -7t-24 -4.5t-34 -1.5q-19 0 -31 1.5t-18.5 4.5t-8.5 7t-2 10l23 113h-286q-13 0 -18 5.5t-5 18.5zM828 234h197l59 296h-2z" />
<glyph unicode="&#xbf;" horiz-adv-x="949" d="M748.03 1130.01q0 -12.998 -2.49902 -31.9961q-2.5 -18.9971 -7.5 -38.9951q-4.99902 -19.9971 -12.998 -38.4951t-18.998 -29.4961q-15.998 -15.998 -36.9951 -21.4971q-20.9971 -5.5 -53.9932 -5.5q-27.9971 0 -45.4941 4.5q-17.498 4.49902 -27.4971 12.498 t-12.998 19.998q-3 11.998 -3 24.9971q0 13.998 3 33.4951q2.99902 19.498 7.99902 38.9951q4.99902 19.498 12.998 36.9961t16.998 27.4961q15.998 14.998 37.4951 21.998q21.4971 6.99902 55.4932 6.99902q26.9971 0 43.9951 -4q16.998 -3.99902 26.4961 -11.498 q9.49902 -7.49902 13.499 -19.498q3.99902 -11.998 3.99902 -26.9971zM717.034 -6.85449q0 -9.99902 -1.5 -24.4971q-1.49902 -14.498 -5.49902 -28.4971q-4 -13.998 -9.99902 -26.4961q-5.99902 -12.499 -13.998 -20.498q-12.998 -12.998 -43.9951 -27.9961 q-30.9961 -14.999 -72.4902 -27.4971q-41.4951 -12.498 -88.4893 -20.9971q-46.9951 -8.49902 -90.9893 -8.49902q-64.9922 0 -116.485 11.998q-51.4941 11.999 -90.9893 33.4961t-67.4922 51.9941q-27.9961 30.4961 -46.4941 66.4912q-18.498 35.9961 -26.4961 76.9912 q-8 40.9941 -8 83.9893q0 80.9902 24.4971 156.981q24.4971 75.9902 75.9912 136.482q51.4941 60.4932 131.484 99.4883t190.977 45.9941l53.9932 238.971q3.99902 14.998 22.9971 22.498q18.998 7.49902 57.9932 7.49902q20.9971 0 35.4951 -1.5t22.9971 -5 q8.49902 -3.49902 11.499 -9.49805q3 -6 1 -13.999l-47.9941 -276.966q-4 -22.9971 -11.499 -37.4951t-18.9971 -23.9971q-11.499 -9.49902 -25.4971 -12.999q-13.998 -3.49902 -32.9961 -3.49902h-5.99902q-86.9893 0 -145.982 -27.4971 q-58.9932 -27.4961 -95.9883 -70.9912t-53.4932 -96.9883t-16.498 -105.487q0 -44.9941 12.998 -83.4893q12.999 -38.4951 38.4951 -65.9922q25.4971 -27.4971 64.4922 -43.4951t92.9893 -15.998q59.9922 0 107.486 13.499q47.4941 13.498 82.4902 29.9961 q34.9951 16.498 57.4932 29.4961q22.4971 12.999 34.4951 12.999q9.99902 0 13.999 -8.49902q3.99902 -8.49902 3.99902 -30.4961z" />
<glyph unicode="&#xc0;" horiz-adv-x="1185" d="M-51 26q3 14 14 36l674 1202q7 11 15 18t21 11t33 5.5t49 1.5q33 0 53.5 -1.5t33 -5.5t17.5 -11.5t7 -18.5l194 -1202q2 -15 2 -26v-9q-2 -14 -11.5 -21t-29.5 -9t-54 -2q-22 0 -38 1.5t-24.5 5t-12.5 9.5t-5 15l-48 315h-539l-169 -312q-5 -10 -11.5 -16.5t-18 -10.5 t-30 -5.5t-45.5 -1.5q-30 0 -48 2.5t-25 9.5q-5 5 -5 13q0 3 1 7zM372 477h448l-97 645h-1zM112 1294zM465 1657q-2 9 5 16t25 11.5t48 4.5q25 0 42 -1t31 -5t24 -11.5t20 -20.5l179 -213q9 -11 11.5 -19t-3.5 -13.5t-19.5 -8t-35.5 -2.5q-21 0 -35 1.5t-24.5 5t-19.5 9 t-19 15.5l-217 212q-10 10 -12 19z" />
<glyph unicode="&#xc1;" horiz-adv-x="1185" d="M-51 26q3 14 14 36l674 1202q7 11 15 18t21 11t33 5.5t49 1.5q33 0 53.5 -1.5t33 -5.5t17.5 -11.5t7 -18.5l194 -1202q2 -15 2 -26v-9q-2 -14 -11.5 -21t-29.5 -9t-54 -2q-22 0 -38 1.5t-24.5 5t-12.5 9.5t-5 15l-48 315h-539l-169 -312q-5 -10 -11.5 -16.5t-18 -10.5 t-30 -5.5t-45.5 -1.5q-30 0 -48 2.5t-25 9.5q-5 5 -5 13q0 3 1 7zM372 477h448l-97 645h-1zM364 1294zM709 1405.5q-9 10.5 11 32.5l197 213q11 12 22.5 19.5t25 11.5t31 5.5t42.5 1.5q30 0 47 -4.5t24 -11.5t3.5 -16t-13.5 -19l-235 -212q-11 -9 -20 -15t-20 -9.5t-25.5 -5 t-34.5 -1.5q-46 0 -55 10.5z" />
<glyph unicode="&#xc2;" horiz-adv-x="1185" d="M-51 26q3 14 14 36l674 1202q7 11 15 18t21 11t33 5.5t49 1.5q33 0 53.5 -1.5t33 -5.5t17.5 -11.5t7 -18.5l194 -1202q2 -15 2 -26v-9q-2 -14 -11.5 -21t-29.5 -9t-54 -2q-22 0 -38 1.5t-24.5 5t-12.5 9.5t-5 15l-48 315h-539l-169 -312q-5 -10 -11.5 -16.5t-18 -10.5 t-30 -5.5t-45.5 -1.5q-30 0 -48 2.5t-25 9.5q-5 5 -5 13q0 3 1 7zM372 477h448l-97 645h-1zM151 1294zM474 1416q4 7 16 17l269 227q9 9 18.5 14.5t21 9t26.5 4.5t36 1t34.5 -1t23 -4.5t16.5 -9t14 -14.5l170 -227q7 -10 6.5 -17.5t-7.5 -12t-21 -6.5t-36 -2q-30 0 -47 1.5 t-27 4t-15 7t-9 9.5l-118 173l-193 -168q-10 -8 -19.5 -14t-23 -8.5t-32.5 -3.5t-46 -1q-25 0 -38.5 2.5t-18 7t-0.5 11.5z" />
<glyph unicode="&#xc3;" horiz-adv-x="1185" d="M-51 26q3 14 14 36l674 1202q7 11 15 18t21 11t33 5.5t49 1.5q33 0 53.5 -1.5t33 -5.5t17.5 -11.5t7 -18.5l194 -1202q2 -15 2 -26v-9q-2 -14 -11.5 -21t-29.5 -9t-54 -2q-22 0 -38 1.5t-24.5 5t-12.5 9.5t-5 15l-48 315h-539l-169 -312q-5 -10 -11.5 -16.5t-18 -10.5 t-30 -5.5t-45.5 -1.5q-30 0 -48 2.5t-25 9.5q-5 5 -5 13q0 3 1 7zM372 477h448l-97 645h-1zM138 1294zM465 1421q0 11 3 32t11.5 44.5t23.5 48t39 45t58 33t81 12.5q51 0 88.5 -18t68.5 -39t59 -39t60 -18q36 0 59 20.5t28 71.5q1 7 5 11t12 6.5t20 3.5t28 1q34 0 44 -6.5 t10 -18.5q0 -4 -1.5 -21.5t-8.5 -41.5t-20 -50.5t-36.5 -49t-59.5 -37.5t-87 -15q-52 0 -90 18t-68.5 39.5t-59 39t-60.5 17.5q-43 0 -62.5 -25t-24.5 -67q-1 -6 -5 -10t-11.5 -6.5t-19.5 -4t-28 -1.5q-33 0 -44.5 5.5t-11.5 19.5z" />
<glyph unicode="&#xc4;" horiz-adv-x="1185" d="M-51 26q3 14 14 36l674 1202q7 11 15 18t21 11t33 5.5t49 1.5q33 0 53.5 -1.5t33 -5.5t17.5 -11.5t7 -18.5l194 -1202q2 -15 2 -26v-9q-2 -14 -11.5 -21t-29.5 -9t-54 -2q-22 0 -38 1.5t-24.5 5t-12.5 9.5t-5 15l-48 315h-539l-169 -312q-5 -10 -11.5 -16.5t-18 -10.5 t-30 -5.5t-45.5 -1.5q-30 0 -48 2.5t-25 9.5q-5 5 -5 13q0 3 1 7zM372 477h448l-97 645h-1zM170 1294zM512.5 1481q-1.5 18 3.5 46q4 28 11.5 46.5t20 30t32 16t48.5 4.5q27 0 44.5 -4.5t27 -16t11.5 -30t-2 -46.5t-12 -46t-21.5 -29.5t-33 -16t-47.5 -4.5t-45.5 4.5 t-26.5 16t-10.5 29.5zM925.5 1481q-1.5 18 2.5 46q5 28 12 46.5t20.5 30t32.5 16t47 4.5t45.5 -4.5t27 -16t12 -30t-2.5 -46.5t-12.5 -46t-21 -29.5t-33 -16t-46.5 -4.5q-28 0 -45.5 4.5t-27 16t-11 29.5z" />
<glyph unicode="&#xc5;" horiz-adv-x="1185" d="M-51 26q3 14 14 36l674 1202q7 11 15 18t21 11t33 5.5t49 1.5q33 0 53.5 -1.5t33 -5.5t17.5 -11.5t7 -18.5l194 -1202q2 -15 2 -26v-9q-2 -14 -11.5 -21t-29.5 -9t-54 -2q-22 0 -38 1.5t-24.5 5t-12.5 9.5t-5 15l-48 315h-539l-169 -312q-5 -10 -11.5 -16.5t-18 -10.5 t-30 -5.5t-45.5 -1.5q-30 0 -48 2.5t-25 9.5q-5 5 -5 13q0 3 1 7zM372 477h448l-97 645h-1zM267 1294zM616 1519q0 30 6.5 57t20 50.5t33 43.5t45 34t56.5 21.5t66 7.5q49 0 83.5 -13.5t56.5 -36.5t32 -52.5t10 -59.5q0 -44 -16 -82.5t-45.5 -67t-71.5 -45t-95 -16.5 q-49 0 -83 13.5t-56 35.5t-32 50.5t-10 59.5zM728 1532q0 -15 4 -30.5t13.5 -27t26 -18.5t39.5 -7q24 0 43 8.5t32 23t20 34.5t7 44q0 15 -4.5 30.5t-14 27.5t-26 19.5t-39.5 7.5q-24 0 -43.5 -8.5t-32 -24t-19 -35.5t-6.5 -44z" />
<glyph unicode="&#xc6;" horiz-adv-x="1563" d="M-135.5 26.5q4.5 13.5 19.5 35.5l887 1195q8 12 17.5 19.5t24 11t34.5 5t49 1.5h681q24 0 24 -34q0 -7 -1.5 -17.5t-3.5 -22.5t-6 -24t-10 -22.5t-14 -16.5t-18 -6h-499l-82 -407h428q12 0 17.5 -9t5.5 -25q0 -7 -1 -17.5t-3.5 -23t-6.5 -24.5t-9.5 -22t-13 -16t-17.5 -6 h-429l-91 -458h507q11 0 17.5 -9t6.5 -24q0 -7 -1.5 -17.5t-4 -22.5t-6 -24.5t-9.5 -22.5t-13.5 -16.5t-16.5 -6.5h-615q-12 0 -23 3.5t-18 12t-10 22t0 32.5l50 246h-445l-212 -288q-8 -10 -16 -16.5t-21 -10.5t-32 -5.5t-49 -1.5q-29 0 -46.5 2.5t-23.5 9.5t-1.5 20.5z M359 454h380l138 697h-3z" />
<glyph unicode="&#xc7;" horiz-adv-x="1070" d="M116 456q0 95 19.5 195.5t59 195.5t97.5 179t136 147.5t174.5 100t212.5 36.5q73 0 136.5 -16.5t109 -41.5t65.5 -44.5t20 -45.5q0 -21 -7.5 -52t-18.5 -49t-25 -18t-32.5 18.5t-50.5 40t-82.5 40t-126.5 18.5q-84 0 -153.5 -31.5t-125 -85t-97 -123.5t-69.5 -146.5 t-41.5 -154.5t-13.5 -148q0 -80 20 -142.5t58 -105.5t93 -65t125 -22q77 0 133.5 17.5t97.5 39t68.5 39t42.5 17.5q12 0 17 -8t5 -24q0 -5 -1.5 -14.5t-3.5 -20.5t-5 -24t-6.5 -24.5t-8.5 -21t-15 -19.5t-48 -32t-110.5 -45.5t-160.5 -29.5l15 -60q9 -33 14 -56.5t5 -44.5 q0 -49 -16 -85t-44 -59t-69 -34.5t-91 -11.5q-25 0 -51 2t-47.5 6t-37 8.5t-22.5 8.5q-5 3 -7.5 8t-2.5 14q0 10 2.5 23t7 25t12.5 20.5t20 8.5h123q16 0 31 3.5t26.5 11.5t18 21.5t6.5 33.5q0 10 -2 26t-6 32l-26 105q-127 22 -202.5 89.5t-110 163t-34.5 211.5z" />
<glyph unicode="&#xc8;" horiz-adv-x="1000" d="M91 38q-1 5 -1 10q0 10 3 22l231 1154q7 39 31 54.5t47 15.5h613q23 0 23 -33q0 -5 -0.5 -15.5t-3 -22.5t-6 -25t-9.5 -23.5t-14.5 -17t-18.5 -6.5h-505l-82 -406h435q12 0 18 -8t6 -24q0 -5 -1.5 -15.5t-3.5 -23t-6 -24.5t-9.5 -21.5t-13.5 -16t-18 -6.5h-434l-94 -463 h515q10 0 16.5 -8t6.5 -25q0 -6 -1 -17t-3.5 -23t-6 -24.5t-9.5 -23t-14.5 -16.5t-18.5 -6h-622q-11 0 -21.5 3.5t-18 12t-10.5 22.5zM51 1294zM404 1657q-2 9 5 16t25 11.5t48 4.5q25 0 42 -1t31 -5t24 -11.5t20 -20.5l179 -213q9 -11 11.5 -19t-3.5 -13.5t-19.5 -8 t-35.5 -2.5q-21 0 -35 1.5t-24.5 5t-19.5 9t-19 15.5l-217 212q-10 10 -12 19z" />
<glyph unicode="&#xc9;" horiz-adv-x="1000" d="M91 38q-1 5 -1 10q0 10 3 22l231 1154q7 39 31 54.5t47 15.5h613q23 0 23 -33q0 -5 -0.5 -15.5t-3 -22.5t-6 -25t-9.5 -23.5t-14.5 -17t-18.5 -6.5h-505l-82 -406h435q12 0 18 -8t6 -24q0 -5 -1.5 -15.5t-3.5 -23t-6 -24.5t-9.5 -21.5t-13.5 -16t-18 -6.5h-434l-94 -463 h515q10 0 16.5 -8t6.5 -25q0 -6 -1 -17t-3.5 -23t-6 -24.5t-9.5 -23t-14.5 -16.5t-18.5 -6h-622q-11 0 -21.5 3.5t-18 12t-10.5 22.5zM299 1294zM644 1405.5q-9 10.5 11 32.5l197 213q11 12 22.5 19.5t25 11.5t31 5.5t42.5 1.5q30 0 47 -4.5t24 -11.5t3.5 -16t-13.5 -19 l-235 -212q-11 -9 -20 -15t-20 -9.5t-25.5 -5t-34.5 -1.5q-46 0 -55 10.5z" />
<glyph unicode="&#xca;" horiz-adv-x="1000" d="M91 38q-1 5 -1 10q0 10 3 22l231 1154q7 39 31 54.5t47 15.5h613q23 0 23 -33q0 -5 -0.5 -15.5t-3 -22.5t-6 -25t-9.5 -23.5t-14.5 -17t-18.5 -6.5h-505l-82 -406h435q12 0 18 -8t6 -24q0 -5 -1.5 -15.5t-3.5 -23t-6 -24.5t-9.5 -21.5t-13.5 -16t-18 -6.5h-434l-94 -463 h515q10 0 16.5 -8t6.5 -25q0 -6 -1 -17t-3.5 -23t-6 -24.5t-9.5 -23t-14.5 -16.5t-18.5 -6h-622q-11 0 -21.5 3.5t-18 12t-10.5 22.5zM67 1294zM390 1416q4 7 16 17l269 227q9 9 18.5 14.5t21 9t26.5 4.5t36 1t34.5 -1t23 -4.5t16.5 -9t14 -14.5l170 -227q7 -10 6.5 -17.5 t-7.5 -12t-21 -6.5t-36 -2q-30 0 -47 1.5t-27 4t-15 7t-9 9.5l-118 173l-193 -168q-10 -8 -19.5 -14t-23 -8.5t-32.5 -3.5t-46 -1q-25 0 -38.5 2.5t-18 7t-0.5 11.5z" />
<glyph unicode="&#xcb;" horiz-adv-x="1000" d="M91 38q-1 5 -1 10q0 10 3 22l231 1154q7 39 31 54.5t47 15.5h613q23 0 23 -33q0 -5 -0.5 -15.5t-3 -22.5t-6 -25t-9.5 -23.5t-14.5 -17t-18.5 -6.5h-505l-82 -406h435q12 0 18 -8t6 -24q0 -5 -1.5 -15.5t-3.5 -23t-6 -24.5t-9.5 -21.5t-13.5 -16t-18 -6.5h-434l-94 -463 h515q10 0 16.5 -8t6.5 -25q0 -6 -1 -17t-3.5 -23t-6 -24.5t-9.5 -23t-14.5 -16.5t-18.5 -6h-622q-11 0 -21.5 3.5t-18 12t-10.5 22.5zM84 1294zM426.5 1481q-1.5 18 3.5 46q4 28 11.5 46.5t20 30t32 16t48.5 4.5q27 0 44.5 -4.5t27 -16t11.5 -30t-2 -46.5t-12 -46 t-21.5 -29.5t-33 -16t-47.5 -4.5t-45.5 4.5t-26.5 16t-10.5 29.5zM839.5 1481q-1.5 18 2.5 46q5 28 12 46.5t20.5 30t32.5 16t47 4.5t45.5 -4.5t27 -16t12 -30t-2.5 -46.5t-12.5 -46t-21 -29.5t-33 -16t-46.5 -4.5q-28 0 -45.5 4.5t-27 16t-11 29.5z" />
<glyph unicode="&#xcc;" horiz-adv-x="516" d="M84 25l248 1244q1 7 7.5 13t17.5 9.5t27.5 6t40.5 2.5t40 -2.5t25.5 -6t12.5 -9.5q2 -4 2 -8q0 -3 -1 -5l-248 -1244q-1 -7 -6.5 -13t-16.5 -9.5t-28 -6t-41 -2.5q-26 0 -42 2.5t-25 6t-12 9.5q-2 4 -2 8q0 2 1 5zM-219 1294zM134 1657q-2 9 5 16t25 11.5t48 4.5 q25 0 42 -1t31 -5t24 -11.5t20 -20.5l179 -213q9 -11 11.5 -19t-3.5 -13.5t-19.5 -8t-35.5 -2.5q-21 0 -35 1.5t-24.5 5t-19.5 9t-19 15.5l-217 212q-10 10 -12 19z" />
<glyph unicode="&#xcd;" horiz-adv-x="516" d="M84 25l248 1244q1 7 7.5 13t17.5 9.5t27.5 6t40.5 2.5t40 -2.5t25.5 -6t12.5 -9.5q2 -4 2 -8q0 -3 -1 -5l-248 -1244q-1 -7 -6.5 -13t-16.5 -9.5t-28 -6t-41 -2.5q-26 0 -42 2.5t-25 6t-12 9.5q-2 4 -2 8q0 2 1 5zM22 1294zM367 1405.5q-9 10.5 11 32.5l197 213 q11 12 22.5 19.5t25 11.5t31 5.5t42.5 1.5q30 0 47 -4.5t24 -11.5t3.5 -16t-13.5 -19l-235 -212q-11 -9 -20 -15t-20 -9.5t-25.5 -5t-34.5 -1.5q-46 0 -55 10.5z" />
<glyph unicode="&#xce;" horiz-adv-x="516" d="M84 25l248 1244q1 7 7.5 13t17.5 9.5t27.5 6t40.5 2.5t40 -2.5t25.5 -6t12.5 -9.5q2 -4 2 -8q0 -3 -1 -5l-248 -1244q-1 -7 -6.5 -13t-16.5 -9.5t-28 -6t-41 -2.5q-26 0 -42 2.5t-25 6t-12 9.5q-2 4 -2 8q0 2 1 5zM-199 1294zM124 1416q4 7 16 17l269 227q9 9 18.5 14.5 t21 9t26.5 4.5t36 1t34.5 -1t23 -4.5t16.5 -9t14 -14.5l170 -227q7 -10 6.5 -17.5t-7.5 -12t-21 -6.5t-36 -2q-30 0 -47 1.5t-27 4t-15 7t-9 9.5l-118 173l-193 -168q-10 -8 -19.5 -14t-23 -8.5t-32.5 -3.5t-46 -1q-25 0 -38.5 2.5t-18 7t-0.5 11.5z" />
<glyph unicode="&#xcf;" horiz-adv-x="516" d="M84 25l248 1244q1 7 7.5 13t17.5 9.5t27.5 6t40.5 2.5t40 -2.5t25.5 -6t12.5 -9.5q2 -4 2 -8q0 -3 -1 -5l-248 -1244q-1 -7 -6.5 -13t-16.5 -9.5t-28 -6t-41 -2.5q-26 0 -42 2.5t-25 6t-12 9.5q-2 4 -2 8q0 2 1 5zM-178 1294zM164.5 1481q-1.5 18 3.5 46q4 28 11.5 46.5 t20 30t32 16t48.5 4.5q27 0 44.5 -4.5t27 -16t11.5 -30t-2 -46.5t-12 -46t-21.5 -29.5t-33 -16t-47.5 -4.5t-45.5 4.5t-26.5 16t-10.5 29.5zM577.5 1481q-1.5 18 2.5 46q5 28 12 46.5t20.5 30t32.5 16t47 4.5t45.5 -4.5t27 -16t12 -30t-2.5 -46.5t-12.5 -46t-21 -29.5 t-33 -16t-46.5 -4.5q-28 0 -45.5 4.5t-27 16t-11 29.5z" />
<glyph unicode="&#xd0;" horiz-adv-x="1279" d="M63 636q0 6 1.5 16.5t3.5 23t6 24.5t10 21.5t13.5 16t17.5 6.5h131l96 480q7 39 30 54.5t53 15.5h273q149 0 247.5 -32t163.5 -92t98 -146.5t33 -195.5q0 -90 -17 -186.5t-54 -188.5t-96 -174t-144.5 -144t-199 -98.5t-277.5 -36.5h-289q-27 0 -43.5 15.5t-8.5 54.5 l106 531h-130q-12 0 -18 8.5t-6 26.5zM298 144h177q122 0 204.5 29.5t145.5 80t107 117.5t72 141t41 151.5t13 149.5q0 74 -21 136t-65 107t-112.5 70t-181.5 25h-179l-82 -407h234q17 0 21 -11t4 -24q0 -9 -1 -20t-4 -23t-7.5 -24t-10.5 -21t-13 -14.5t-16 -5.5h-235z" />
<glyph unicode="&#xd1;" horiz-adv-x="1320" d="M84 26l238 1194q8 40 33.5 57t51.5 17h79q24 0 42 -5t31 -18t23 -33.5t22 -52.5l245 -699q23 -65 45.5 -130t44.5 -131h2q14 82 30.5 170t32.5 170l141 701q2 8 7 13.5t15 9.5t25.5 6t39.5 2q23 0 38.5 -2t24 -6t11.5 -9.5t2 -13.5l-240 -1195q-3 -20 -12 -34t-20.5 -23 t-24.5 -13t-26 -4h-65q-26 0 -44 6t-31.5 20.5t-24 38t-22.5 58.5l-243 690q-25 74 -49.5 147.5t-47.5 147.5h-2q-13 -82 -28 -163t-31 -162l-150 -754q-2 -8 -7.5 -14t-16 -9.5t-27 -6t-39.5 -2.5t-38.5 2.5t-23.5 5.5q-9 4 -11 10q-1 3 -1 7q0 3 1 7zM189 1294zM516 1421 q0 11 3 32t11.5 44.5t23.5 48t39 45t58 33t81 12.5q51 0 88.5 -18t68.5 -39t59 -39t60 -18q36 0 59 20.5t28 71.5q1 7 5 11t12 6.5t20 3.5t28 1q34 0 44 -6.5t10 -18.5q0 -4 -1.5 -21.5t-8.5 -41.5t-20 -50.5t-36.5 -49t-59.5 -37.5t-87 -15q-52 0 -90 18t-68.5 39.5t-59 39 t-60.5 17.5q-43 0 -62.5 -25t-24.5 -67q-1 -6 -5 -10t-11.5 -6.5t-19.5 -4t-28 -1.5q-33 0 -44.5 5.5t-11.5 19.5z" />
<glyph unicode="&#xd2;" horiz-adv-x="1340" d="M114 426q0 86 15 185t49.5 197.5t90 189.5t136 161.5t188.5 112t248 41.5q113 0 198.5 -29.5t143 -87t86.5 -142t29 -194.5q0 -77 -14 -172t-47 -193t-87.5 -190.5t-134.5 -164t-190 -115.5t-252 -44q-114 0 -200 28.5t-143.5 85t-86.5 139.5t-29 192zM299 443 q0 -71 15.5 -128.5t51.5 -98.5t93.5 -63.5t140.5 -22.5q103 0 181 37.5t135 98.5t95 138.5t61 157t32.5 154.5t9.5 132q0 70 -16 128.5t-51 100.5t-93 65.5t-140 23.5q-104 0 -182.5 -38.5t-136 -100.5t-95 -140.5t-60 -158.5t-32 -155t-9.5 -130zM185 1294zM538 1657 q-2 9 5 16t25 11.5t48 4.5q25 0 42 -1t31 -5t24 -11.5t20 -20.5l179 -213q9 -11 11.5 -19t-3.5 -13.5t-19.5 -8t-35.5 -2.5q-21 0 -35 1.5t-24.5 5t-19.5 9t-19 15.5l-217 212q-10 10 -12 19z" />
<glyph unicode="&#xd3;" horiz-adv-x="1340" d="M114 426q0 86 15 185t49.5 197.5t90 189.5t136 161.5t188.5 112t248 41.5q113 0 198.5 -29.5t143 -87t86.5 -142t29 -194.5q0 -77 -14 -172t-47 -193t-87.5 -190.5t-134.5 -164t-190 -115.5t-252 -44q-114 0 -200 28.5t-143.5 85t-86.5 139.5t-29 192zM299 443 q0 -71 15.5 -128.5t51.5 -98.5t93.5 -63.5t140.5 -22.5q103 0 181 37.5t135 98.5t95 138.5t61 157t32.5 154.5t9.5 132q0 70 -16 128.5t-51 100.5t-93 65.5t-140 23.5q-104 0 -182.5 -38.5t-136 -100.5t-95 -140.5t-60 -158.5t-32 -155t-9.5 -130zM406 1294zM751 1405.5 q-9 10.5 11 32.5l197 213q11 12 22.5 19.5t25 11.5t31 5.5t42.5 1.5q30 0 47 -4.5t24 -11.5t3.5 -16t-13.5 -19l-235 -212q-11 -9 -20 -15t-20 -9.5t-25.5 -5t-34.5 -1.5q-46 0 -55 10.5z" />
<glyph unicode="&#xd4;" horiz-adv-x="1340" d="M114 426q0 86 15 185t49.5 197.5t90 189.5t136 161.5t188.5 112t248 41.5q113 0 198.5 -29.5t143 -87t86.5 -142t29 -194.5q0 -77 -14 -172t-47 -193t-87.5 -190.5t-134.5 -164t-190 -115.5t-252 -44q-114 0 -200 28.5t-143.5 85t-86.5 139.5t-29 192zM299 443 q0 -71 15.5 -128.5t51.5 -98.5t93.5 -63.5t140.5 -22.5q103 0 181 37.5t135 98.5t95 138.5t61 157t32.5 154.5t9.5 132q0 70 -16 128.5t-51 100.5t-93 65.5t-140 23.5q-104 0 -182.5 -38.5t-136 -100.5t-95 -140.5t-60 -158.5t-32 -155t-9.5 -130zM210 1294zM533 1416 q4 7 16 17l269 227q9 9 18.5 14.5t21 9t26.5 4.5t36 1t34.5 -1t23 -4.5t16.5 -9t14 -14.5l170 -227q7 -10 6.5 -17.5t-7.5 -12t-21 -6.5t-36 -2q-30 0 -47 1.5t-27 4t-15 7t-9 9.5l-118 173l-193 -168q-10 -8 -19.5 -14t-23 -8.5t-32.5 -3.5t-46 -1q-25 0 -38.5 2.5t-18 7 t-0.5 11.5z" />
<glyph unicode="&#xd5;" horiz-adv-x="1340" d="M114 426q0 86 15 185t49.5 197.5t90 189.5t136 161.5t188.5 112t248 41.5q113 0 198.5 -29.5t143 -87t86.5 -142t29 -194.5q0 -77 -14 -172t-47 -193t-87.5 -190.5t-134.5 -164t-190 -115.5t-252 -44q-114 0 -200 28.5t-143.5 85t-86.5 139.5t-29 192zM299 443 q0 -71 15.5 -128.5t51.5 -98.5t93.5 -63.5t140.5 -22.5q103 0 181 37.5t135 98.5t95 138.5t61 157t32.5 154.5t9.5 132q0 70 -16 128.5t-51 100.5t-93 65.5t-140 23.5q-104 0 -182.5 -38.5t-136 -100.5t-95 -140.5t-60 -158.5t-32 -155t-9.5 -130zM203 1294zM530 1421 q0 11 3 32t11.5 44.5t23.5 48t39 45t58 33t81 12.5q51 0 88.5 -18t68.5 -39t59 -39t60 -18q36 0 59 20.5t28 71.5q1 7 5 11t12 6.5t20 3.5t28 1q34 0 44 -6.5t10 -18.5q0 -4 -1.5 -21.5t-8.5 -41.5t-20 -50.5t-36.5 -49t-59.5 -37.5t-87 -15q-52 0 -90 18t-68.5 39.5t-59 39 t-60.5 17.5q-43 0 -62.5 -25t-24.5 -67q-1 -6 -5 -10t-11.5 -6.5t-19.5 -4t-28 -1.5q-33 0 -44.5 5.5t-11.5 19.5z" />
<glyph unicode="&#xd6;" horiz-adv-x="1340" d="M114 426q0 86 15 185t49.5 197.5t90 189.5t136 161.5t188.5 112t248 41.5q113 0 198.5 -29.5t143 -87t86.5 -142t29 -194.5q0 -77 -14 -172t-47 -193t-87.5 -190.5t-134.5 -164t-190 -115.5t-252 -44q-114 0 -200 28.5t-143.5 85t-86.5 139.5t-29 192zM299 443 q0 -71 15.5 -128.5t51.5 -98.5t93.5 -63.5t140.5 -22.5q103 0 181 37.5t135 98.5t95 138.5t61 157t32.5 154.5t9.5 132q0 70 -16 128.5t-51 100.5t-93 65.5t-140 23.5q-104 0 -182.5 -38.5t-136 -100.5t-95 -140.5t-60 -158.5t-32 -155t-9.5 -130zM243 1294zM585.5 1481 q-1.5 18 3.5 46q4 28 11.5 46.5t20 30t32 16t48.5 4.5q27 0 44.5 -4.5t27 -16t11.5 -30t-2 -46.5t-12 -46t-21.5 -29.5t-33 -16t-47.5 -4.5t-45.5 4.5t-26.5 16t-10.5 29.5zM998.5 1481q-1.5 18 2.5 46q5 28 12 46.5t20.5 30t32.5 16t47 4.5t45.5 -4.5t27 -16t12 -30 t-2.5 -46.5t-12.5 -46t-21 -29.5t-33 -16t-46.5 -4.5q-28 0 -45.5 4.5t-27 16t-11 29.5z" />
<glyph unicode="&#xd7;" horiz-adv-x="1020" d="M51.5 241q-0.5 10 3.5 19t12 15l366 304l-242 301q-5 7 -6 14.5t3 17t14 20t25 23.5q16 13 28 21.5t21 11t15 0t12 -9.5l243 -304l362 302q8 7 18 9.5t20.5 0t21 -10t20.5 -19.5q22 -27 23 -47.5t-16 -34.5l-364 -304l241 -301q11 -14 3 -31.5t-39 -43.5q-16 -14 -28 -22 t-21.5 -10.5t-16 -0.5t-12.5 9l-241 304l-362 -301q-9 -7 -18 -9.5t-20 0t-22 9.5t-21 20q-11 13 -16.5 25.5t-6 22.5z" />
<glyph unicode="&#xd8;" horiz-adv-x="1347" d="M40 -199.5q2 9.5 10 21.5l187 268q-60 56 -91.5 139.5t-31.5 196.5q0 82 14 179t46.5 195.5t87.5 190.5t136 164t191.5 115t255.5 43q61 0 115 -9.5t98 -29.5l154 223q10 15 33.5 20t66.5 5q26 0 40.5 -4t20.5 -11t3.5 -16.5t-10.5 -21.5l-186 -266q62 -56 93 -141 t31 -193q0 -82 -14 -179.5t-47 -196t-88 -190.5t-135.5 -164t-191 -115t-254.5 -43q-64 0 -118 9.5t-96 29.5l-155 -226q-9 -14 -33 -19t-64 -5q-26 0 -42 4t-22 10.5t-4 16zM294 440q0 -58 11.5 -109.5t40.5 -88.5l623 897q-32 15 -70 23t-82 8q-81 0 -146 -23t-117 -62 t-91.5 -91t-68.5 -111t-48.5 -121t-31 -120.5t-16 -111t-4.5 -90.5zM449 155q30 -14 68.5 -22.5t83.5 -8.5q107 0 188 39.5t139 103.5t96 144t60 161.5t31 155.5t9 126q0 58 -11.5 109t-40.5 89z" />
<glyph unicode="&#xd9;" horiz-adv-x="1314" d="M163 262q-6 36 -6 77q0 64 15 139l158 790q1 8 6.5 14t16.5 9.5t27.5 6t41.5 2.5t41 -2.5t25.5 -6t12 -9.5t0.5 -14l-157 -788q-12 -61 -12 -112q0 -22 2 -42q8 -66 39 -110t85.5 -66t130.5 -22q75 0 138.5 23t113 67.5t84 110t51.5 149.5l158 790q1 8 6.5 14t16 9.5 t27 6t41.5 2.5q24 0 40 -2.5t25.5 -6t12.5 -9.5t2 -14l-160 -797q-24 -122 -76 -214t-127 -153t-169 -92t-204 -31q-116 0 -201.5 31.5t-137 94t-67.5 155.5zM161 1294zM514 1657q-2 9 5 16t25 11.5t48 4.5q25 0 42 -1t31 -5t24 -11.5t20 -20.5l179 -213q9 -11 11.5 -19 t-3.5 -13.5t-19.5 -8t-35.5 -2.5q-21 0 -35 1.5t-24.5 5t-19.5 9t-19 15.5l-217 212q-10 10 -12 19z" />
<glyph unicode="&#xda;" horiz-adv-x="1314" d="M163 262q-6 36 -6 77q0 64 15 139l158 790q1 8 6.5 14t16.5 9.5t27.5 6t41.5 2.5t41 -2.5t25.5 -6t12 -9.5t0.5 -14l-157 -788q-12 -61 -12 -112q0 -22 2 -42q8 -66 39 -110t85.5 -66t130.5 -22q75 0 138.5 23t113 67.5t84 110t51.5 149.5l158 790q1 8 6.5 14t16 9.5 t27 6t41.5 2.5q24 0 40 -2.5t25.5 -6t12.5 -9.5t2 -14l-160 -797q-24 -122 -76 -214t-127 -153t-169 -92t-204 -31q-116 0 -201.5 31.5t-137 94t-67.5 155.5zM409 1294zM754 1405.5q-9 10.5 11 32.5l197 213q11 12 22.5 19.5t25 11.5t31 5.5t42.5 1.5q30 0 47 -4.5t24 -11.5 t3.5 -16t-13.5 -19l-235 -212q-11 -9 -20 -15t-20 -9.5t-25.5 -5t-34.5 -1.5q-46 0 -55 10.5z" />
<glyph unicode="&#xdb;" horiz-adv-x="1314" d="M163 262q-6 36 -6 77q0 64 15 139l158 790q1 8 6.5 14t16.5 9.5t27.5 6t41.5 2.5t41 -2.5t25.5 -6t12 -9.5t0.5 -14l-157 -788q-12 -61 -12 -112q0 -22 2 -42q8 -66 39 -110t85.5 -66t130.5 -22q75 0 138.5 23t113 67.5t84 110t51.5 149.5l158 790q1 8 6.5 14t16 9.5 t27 6t41.5 2.5q24 0 40 -2.5t25.5 -6t12.5 -9.5t2 -14l-160 -797q-24 -122 -76 -214t-127 -153t-169 -92t-204 -31q-116 0 -201.5 31.5t-137 94t-67.5 155.5zM190 1294zM513 1416q4 7 16 17l269 227q9 9 18.5 14.5t21 9t26.5 4.5t36 1t34.5 -1t23 -4.5t16.5 -9t14 -14.5 l170 -227q7 -10 6.5 -17.5t-7.5 -12t-21 -6.5t-36 -2q-30 0 -47 1.5t-27 4t-15 7t-9 9.5l-118 173l-193 -168q-10 -8 -19.5 -14t-23 -8.5t-32.5 -3.5t-46 -1q-25 0 -38.5 2.5t-18 7t-0.5 11.5z" />
<glyph unicode="&#xdc;" horiz-adv-x="1314" d="M163 262q-6 36 -6 77q0 64 15 139l158 790q1 8 6.5 14t16.5 9.5t27.5 6t41.5 2.5t41 -2.5t25.5 -6t12 -9.5t0.5 -14l-157 -788q-12 -61 -12 -112q0 -22 2 -42q8 -66 39 -110t85.5 -66t130.5 -22q75 0 138.5 23t113 67.5t84 110t51.5 149.5l158 790q1 8 6.5 14t16 9.5 t27 6t41.5 2.5q24 0 40 -2.5t25.5 -6t12.5 -9.5t2 -14l-160 -797q-24 -122 -76 -214t-127 -153t-169 -92t-204 -31q-116 0 -201.5 31.5t-137 94t-67.5 155.5zM215 1294zM557.5 1481q-1.5 18 3.5 46q4 28 11.5 46.5t20 30t32 16t48.5 4.5q27 0 44.5 -4.5t27 -16t11.5 -30 t-2 -46.5t-12 -46t-21.5 -29.5t-33 -16t-47.5 -4.5t-45.5 4.5t-26.5 16t-10.5 29.5zM970.5 1481q-1.5 18 2.5 46q5 28 12 46.5t20.5 30t32.5 16t47 4.5t45.5 -4.5t27 -16t12 -30t-2.5 -46.5t-12.5 -46t-21 -29.5t-33 -16t-46.5 -4.5q-28 0 -45.5 4.5t-27 16t-11 29.5z" />
<glyph unicode="&#xdd;" horiz-adv-x="998" d="M192 1272q0 10 7 16q8 7 26.5 9.5t53.5 2.5q27 0 44 -1.5t27 -6.5t14.5 -12.5t8.5 -20.5l103 -355q18 -62 32 -119.5t27 -119.5h2q36 60 73 119t78 119l245 361q6 10 13.5 17t19.5 11.5t30 6t48 1.5q36 0 55 -3.5t25 -11.5q2 -4 2 -9t-3 -12q-6 -13 -19 -31l-512 -730 l-95 -478q-2 -7 -7.5 -13t-16.5 -9.5t-28 -6t-41 -2.5q-25 0 -41 2.5t-25 6t-12 9.5t-2 13l96 478l-220 730q-8 28 -8 39zM322 1294zM667 1405.5q-9 10.5 11 32.5l197 213q11 12 22.5 19.5t25 11.5t31 5.5t42.5 1.5q30 0 47 -4.5t24 -11.5t3.5 -16t-13.5 -19l-235 -212 q-11 -9 -20 -15t-20 -9.5t-25.5 -5t-34.5 -1.5q-46 0 -55 10.5z" />
<glyph unicode="&#xde;" horiz-adv-x="1058" d="M82 22l250 1249q1 7 6.5 13t16 10t27.5 6t41 2q26 0 42 -2t25 -6t12.5 -10t2.5 -13l-39 -195h159q54 0 91.5 -3.5t72.5 -11.5q63 -14 107.5 -43.5t72 -67.5t40 -82t12.5 -88q0 -62 -14 -123.5t-42 -117.5t-71.5 -104.5t-101.5 -84.5t-132 -56t-175 -20h-180l-50 -252 q-3 -8 -8 -13.5t-16 -9.5t-28 -6t-41 -2q-25 0 -41 2t-25 6t-12 9.5t-2 13.5zM334 415h164q105 0 167.5 35t100.5 86t55 108.5t17 103.5q0 30 -6.5 57.5t-21.5 50.5t-39 40.5t-59 27.5q-25 7 -56.5 9t-69.5 2h-149z" />
<glyph unicode="&#xdf;" horiz-adv-x="1080" d="M-213 -322q0 8 2.5 25t7.5 34t12.5 29.5t19.5 12.5q10 0 22.5 -2.5t42.5 -2.5q33 0 58.5 10t44 32.5t32 58.5t24.5 89l207 1046q17 85 52.5 157t90.5 123.5t130 80.5t171 29q85 0 145 -22t99.5 -58t58 -82.5t18.5 -93.5q0 -73 -24.5 -122.5t-60.5 -84t-78 -60t-78.5 -51 t-60.5 -57t-24 -77.5q0 -35 20 -61.5t50 -49t65.5 -46.5t65.5 -54.5t50 -72t20 -99.5q0 -77 -30 -138t-80 -103t-115 -64.5t-136 -22.5q-34 0 -65 4t-55.5 11.5t-42.5 16t-27 17.5q-5 6 -9 14t-4 20q0 8 1 18.5t3.5 22t6.5 22.5t9 20t11.5 14.5t14.5 5.5q10 0 22 -8.5 t30.5 -18t45 -17.5t64.5 -8t72 11t59 33t40 54t15 73q0 43 -20 72t-50 52.5t-65 45.5t-64.5 50t-49.5 66.5t-20 95.5q0 52 13.5 90.5t36.5 68t52 51.5t59.5 42t59.5 39t52.5 42t37 52t13.5 67q0 28 -9 54t-29.5 46t-52 32.5t-74.5 12.5q-58 0 -102.5 -21t-77 -57 t-53.5 -84.5t-32 -104.5l-207 -1036q-15 -76 -38.5 -136.5t-61 -103t-92 -65t-130.5 -22.5q-20 0 -37 1.5t-30 4.5t-22 6t-12 6q-8 8 -8 25z" />
<glyph unicode="&#xe0;" d="M81 306q0 56 10.5 127t34 145t61 144t90.5 125.5t123 89t159 33.5t152.5 -36t113.5 -99l19 91q4 16 23 23t59 7q20 0 33.5 -1.5t21.5 -5.5t10 -10t1 -13l-180 -901q-4 -17 -22 -24t-60 -7q-20 0 -33 2t-21 5.5t-11 9t0 14.5l33 170q-13 -32 -47 -70t-80.5 -70t-103.5 -53 t-116 -21q-80 0 -132.5 28t-83.5 74t-42.5 104t-11.5 119zM254 318q0 -35 5.5 -69.5t21 -63t42.5 -46t70 -17.5q55 0 110.5 30.5t103.5 84.5t85 127t55 161l34 165q-47 69 -101.5 103.5t-122.5 34.5q-54 0 -97.5 -25.5t-77 -67.5t-58 -95.5t-40 -110.5t-23 -112t-7.5 -99z M126 951zM419.5 1373.5q-0.5 8.5 7 15t25 10t46.5 3.5q24 0 40 -1.5t27 -5.5t18.5 -11.5t14.5 -18.5l135 -231q7 -11 8.5 -19t-4 -13t-19 -8t-35.5 -3q-20 0 -33 1t-22 4.5t-16 10t-14 16.5l-171 233q-7 9 -7.5 17.5z" />
<glyph unicode="&#xe1;" d="M81 306q0 56 10.5 127t34 145t61 144t90.5 125.5t123 89t159 33.5t152.5 -36t113.5 -99l19 91q4 16 23 23t59 7q20 0 33.5 -1.5t21.5 -5.5t10 -10t1 -13l-180 -901q-4 -17 -22 -24t-60 -7q-20 0 -33 2t-21 5.5t-11 9t0 14.5l33 170q-13 -32 -47 -70t-80.5 -70t-103.5 -53 t-116 -21q-80 0 -132.5 28t-83.5 74t-42.5 104t-11.5 119zM254 318q0 -35 5.5 -69.5t21 -63t42.5 -46t70 -17.5q55 0 110.5 30.5t103.5 84.5t85 127t55 161l34 165q-47 69 -101.5 103.5t-122.5 34.5q-54 0 -97.5 -25.5t-77 -67.5t-58 -95.5t-40 -110.5t-23 -112t-7.5 -99z M281 951zM565 1115q2 8 9 19l154 231q7 11 15.5 18t20 11t28.5 6t42 2q28 0 44.5 -3.5t23 -10t5 -15t-9.5 -17.5l-191 -233q-7 -10 -13.5 -16t-16 -9.5t-22.5 -5t-33 -1.5q-22 0 -35 3t-18 8t-3 13z" />
<glyph unicode="&#xe2;" d="M81 306q0 56 10.5 127t34 145t61 144t90.5 125.5t123 89t159 33.5t152.5 -36t113.5 -99l19 91q4 16 23 23t59 7q20 0 33.5 -1.5t21.5 -5.5t10 -10t1 -13l-180 -901q-4 -17 -22 -24t-60 -7q-20 0 -33 2t-21 5.5t-11 9t0 14.5l33 170q-13 -32 -47 -70t-80.5 -70t-103.5 -53 t-116 -21q-80 0 -132.5 28t-83.5 74t-42.5 104t-11.5 119zM254 318q0 -35 5.5 -69.5t21 -63t42.5 -46t70 -17.5q55 0 110.5 30.5t103.5 84.5t85 127t55 161l34 165q-47 69 -101.5 103.5t-122.5 34.5q-54 0 -97.5 -25.5t-77 -67.5t-58 -95.5t-40 -110.5t-23 -112t-7.5 -99z M140 951zM404 1104.5q-4 6.5 2 17t20 25.5l210 229q7 8 15 12.5t19 7.5t26.5 4.5t37.5 1.5q21 0 34.5 -1.5t23 -5t15.5 -8t11 -11.5l118 -229q8 -15 10.5 -25.5t-2.5 -17t-20 -10t-41 -3.5q-21 0 -33 1.5t-19.5 4.5t-12 9t-8.5 15l-94 180l-166 -180q-8 -10 -15 -15.5 t-16.5 -8.5t-22.5 -4.5t-32 -1.5q-27 0 -41.5 3.5t-18.5 10z" />
<glyph unicode="&#xe3;" d="M81 306q0 56 10.5 127t34 145t61 144t90.5 125.5t123 89t159 33.5t152.5 -36t113.5 -99l19 91q4 16 23 23t59 7q20 0 33.5 -1.5t21.5 -5.5t10 -10t1 -13l-180 -901q-4 -17 -22 -24t-60 -7q-20 0 -33 2t-21 5.5t-11 9t0 14.5l33 170q-13 -32 -47 -70t-80.5 -70t-103.5 -53 t-116 -21q-80 0 -132.5 28t-83.5 74t-42.5 104t-11.5 119zM254 318q0 -35 5.5 -69.5t21 -63t42.5 -46t70 -17.5q55 0 110.5 30.5t103.5 84.5t85 127t55 161l34 165q-47 69 -101.5 103.5t-122.5 34.5q-54 0 -97.5 -25.5t-77 -67.5t-58 -95.5t-40 -110.5t-23 -112t-7.5 -99z M58 951zM328 1125q0 6 1.5 25t8.5 45t21 54t37 51.5t57.5 39t83.5 15.5q37 0 65.5 -9.5t52 -24.5t43 -32t37.5 -32t36.5 -24.5t40.5 -9.5q35 0 57 26.5t28 78.5q1 16 13.5 21.5t46.5 5.5q37 0 47 -6.5t10 -21.5q0 -6 -2 -24.5t-9 -44.5t-20.5 -54.5t-37 -52.5t-58.5 -39.5 t-84 -15.5q-37 0 -65.5 9.5t-51.5 24.5t-42.5 32t-38 32t-37 24.5t-40.5 9.5q-40 0 -59 -29t-25 -77q-1 -7 -4 -12.5t-10 -8.5t-19 -4t-32 -1q-17 0 -27 1.5t-15 5t-7 9t-2 13.5z" />
<glyph unicode="&#xe4;" d="M81 306q0 56 10.5 127t34 145t61 144t90.5 125.5t123 89t159 33.5t152.5 -36t113.5 -99l19 91q4 16 23 23t59 7q20 0 33.5 -1.5t21.5 -5.5t10 -10t1 -13l-180 -901q-4 -17 -22 -24t-60 -7q-20 0 -33 2t-21 5.5t-11 9t0 14.5l33 170q-13 -32 -47 -70t-80.5 -70t-103.5 -53 t-116 -21q-80 0 -132.5 28t-83.5 74t-42.5 104t-11.5 119zM254 318q0 -35 5.5 -69.5t21 -63t42.5 -46t70 -17.5q55 0 110.5 30.5t103.5 84.5t85 127t55 161l34 165q-47 69 -101.5 103.5t-122.5 34.5q-54 0 -97.5 -25.5t-77 -67.5t-58 -95.5t-40 -110.5t-23 -112t-7.5 -99z M114 951zM394 1170.5q-1 18.5 3 45.5t11.5 45t20.5 29t31.5 15.5t44.5 4.5t43 -4.5t26.5 -15.5t11 -29t-2.5 -45t-12 -45.5t-21 -29t-32 -15t-44 -4.5q-27 0 -44 4.5t-26 15t-10 29zM748 1170.5q-2 18.5 3 45.5q4 27 11.5 45t20.5 29t31.5 15.5t44.5 4.5t43 -4.5t26.5 -15.5 t11 -29t-2.5 -45q-5 -27 -13 -45.5t-20.5 -29t-31.5 -15t-45 -4.5t-43 4.5t-25.5 15t-10.5 29z" />
<glyph unicode="&#xe5;" d="M81 306q0 56 10.5 127t34 145t61 144t90.5 125.5t123 89t159 33.5t152.5 -36t113.5 -99l19 91q4 16 23 23t59 7q20 0 33.5 -1.5t21.5 -5.5t10 -10t1 -13l-180 -901q-4 -17 -22 -24t-60 -7q-20 0 -33 2t-21 5.5t-11 9t0 14.5l33 170q-13 -32 -47 -70t-80.5 -70t-103.5 -53 t-116 -21q-80 0 -132.5 28t-83.5 74t-42.5 104t-11.5 119zM254 318q0 -35 5.5 -69.5t21 -63t42.5 -46t70 -17.5q55 0 110.5 30.5t103.5 84.5t85 127t55 161l34 165q-47 69 -101.5 103.5t-122.5 34.5q-54 0 -97.5 -25.5t-77 -67.5t-58 -95.5t-40 -110.5t-23 -112t-7.5 -99z M184 951zM472 1227q0 46 15 83.5t43.5 64.5t69.5 42.5t93 15.5q49 0 82.5 -13t54.5 -34t30 -49t9 -58q0 -46 -15 -83.5t-43.5 -64.5t-69.5 -42.5t-93 -15.5q-49 0 -82.5 12.5t-54.5 33.5t-30 49t-9 59zM581 1239q0 -15 4 -29.5t13 -26t25 -18.5t39 -7q47 0 73 29t26 80 q0 15 -4 30t-13.5 26.5t-25.5 18.5t-39 7q-47 0 -72.5 -29.5t-25.5 -80.5z" />
<glyph unicode="&#xe6;" horiz-adv-x="1545" d="M47 207q0 56 15.5 103.5t45.5 87t72.5 69.5t96 50.5t117.5 31t136 10.5h155l15 67q12 52 10 91.5t-21.5 66t-57 39.5t-95.5 13q-60 0 -112.5 -14.5t-93 -32t-67.5 -32t-38 -14.5t-17.5 10.5t-6.5 29.5q0 11 2 24t6 25.5t10 24t13 18.5q14 15 48.5 31.5t80 30.5t97.5 23.5 t104 9.5q62 0 109.5 -12t81 -33t54.5 -50t30 -64q32 37 71 66.5t84 50t93.5 31.5t97.5 11q85 0 144 -21t95.5 -54t53.5 -74t17 -82q0 -67 -31 -122.5t-97.5 -95t-173 -61t-258.5 -21.5h-107q-6 -33 -8.5 -62.5t-2.5 -56.5q0 -100 50.5 -153t164.5 -53q61 0 110.5 9.5 t87.5 20.5t61.5 20.5t33.5 9.5q17 0 17 -24q0 -13 -2 -28t-7 -29.5t-11 -26.5t-12 -19q-11 -11 -40.5 -22t-71 -21.5t-92 -16.5t-102.5 -6q-60 0 -110.5 11t-90 33t-68.5 53t-47 71q-43 -41 -87.5 -72.5t-90.5 -52.5t-93.5 -32t-96.5 -11q-76 0 -127.5 19.5t-83.5 51.5 t-46 72.5t-14 82.5zM219 227q0 -57 37 -87t97 -30q36 0 71 8.5t71.5 27.5t74.5 48.5t80 71.5q-2 9 -3 20t-1 24q0 31 3 65t10 64h-138q-81 0 -138 -16.5t-93.5 -45t-53.5 -67.5t-17 -83zM851 560h107q108 0 178.5 13.5t112 36.5t58.5 53t17 63q0 24 -9 45t-28 36.5t-48.5 24 t-69.5 8.5q-65 0 -117 -23t-91.5 -61t-67.5 -89t-42 -107z" />
<glyph unicode="&#xe7;" horiz-adv-x="852" d="M76 307q0 61 10.5 133.5t35.5 146t64 142.5t96 122.5t132 85.5t172 32q40 0 77 -6.5t69.5 -17.5t59 -27.5t41 -29.5t18 -22t3.5 -20q0 -18 -3.5 -37t-10.5 -35.5t-16.5 -27.5t-21.5 -11q-14 0 -29 14.5t-39.5 32.5t-62 33t-95.5 15q-64 0 -113.5 -26.5t-86 -69 t-60.5 -96.5t-39 -109t-21.5 -106.5t-6.5 -89.5q0 -103 45 -156t134 -53q65 0 111.5 16t79 36.5t53.5 36.5t37 16q8 0 12.5 -7.5t4.5 -21.5q0 -12 -2 -28.5t-6.5 -34t-11 -32.5t-18.5 -27.5t-45.5 -33t-89 -38.5t-112.5 -22l15 -58q9 -33 13.5 -56.5t4.5 -44.5 q0 -49 -15.5 -85t-44 -59t-69 -34.5t-91.5 -11.5q-25 0 -51 2t-47.5 6t-37 8.5t-21.5 8.5q-6 3 -8 8t-2 14q0 10 2 23t6.5 25t12.5 20.5t20 8.5h123q16 0 31 3.5t26.5 11.5t18.5 21.5t7 33.5q0 10 -2.5 26t-5.5 32l-26 104q-104 18 -164 96t-60 220z" />
<glyph unicode="&#xe8;" horiz-adv-x="978" d="M77 312q0 65 12.5 139.5t39.5 147.5t70 140t102.5 118t137.5 82t176 31q84 0 142.5 -21t96 -54t54.5 -73.5t17 -80.5q0 -69 -32 -124t-100 -94t-174 -60t-254 -21h-106q-7 -33 -9.5 -64t-2.5 -58q0 -100 49.5 -153t160.5 -53q64 0 115 9.5t88.5 20.5t61.5 20.5t33 9.5 t13.5 -6.5t4.5 -18.5q0 -10 -2 -24t-6 -28.5t-10.5 -27.5t-14.5 -22q-12 -12 -42.5 -23.5t-72.5 -21t-92 -15.5t-100 -6q-89 0 -156 20t-111.5 61.5t-66.5 103.5t-22 146zM288 562h102q105 0 175.5 13t113 35.5t60 52.5t17.5 63q0 51 -40 82.5t-114 31.5q-65 0 -115 -22.5 t-88.5 -60.5t-66 -88.5t-44.5 -106.5zM116 951zM409.5 1373.5q-0.5 8.5 7 15t25 10t46.5 3.5q24 0 40 -1.5t27 -5.5t18.5 -11.5t14.5 -18.5l135 -231q7 -11 8.5 -19t-4 -13t-19 -8t-35.5 -3q-20 0 -33 1t-22 4.5t-16 10t-14 16.5l-171 233q-7 9 -7.5 17.5z" />
<glyph unicode="&#xe9;" horiz-adv-x="978" d="M77 312q0 65 12.5 139.5t39.5 147.5t70 140t102.5 118t137.5 82t176 31q84 0 142.5 -21t96 -54t54.5 -73.5t17 -80.5q0 -69 -32 -124t-100 -94t-174 -60t-254 -21h-106q-7 -33 -9.5 -64t-2.5 -58q0 -100 49.5 -153t160.5 -53q64 0 115 9.5t88.5 20.5t61.5 20.5t33 9.5 t13.5 -6.5t4.5 -18.5q0 -10 -2 -24t-6 -28.5t-10.5 -27.5t-14.5 -22q-12 -12 -42.5 -23.5t-72.5 -21t-92 -15.5t-100 -6q-89 0 -156 20t-111.5 61.5t-66.5 103.5t-22 146zM288 562h102q105 0 175.5 13t113 35.5t60 52.5t17.5 63q0 51 -40 82.5t-114 31.5q-65 0 -115 -22.5 t-88.5 -60.5t-66 -88.5t-44.5 -106.5zM270 951zM554 1115q2 8 9 19l154 231q7 11 15.5 18t20 11t28.5 6t42 2q28 0 44.5 -3.5t23 -10t5 -15t-9.5 -17.5l-191 -233q-7 -10 -13.5 -16t-16 -9.5t-22.5 -5t-33 -1.5q-22 0 -35 3t-18 8t-3 13z" />
<glyph unicode="&#xea;" horiz-adv-x="978" d="M77 312q0 65 12.5 139.5t39.5 147.5t70 140t102.5 118t137.5 82t176 31q84 0 142.5 -21t96 -54t54.5 -73.5t17 -80.5q0 -69 -32 -124t-100 -94t-174 -60t-254 -21h-106q-7 -33 -9.5 -64t-2.5 -58q0 -100 49.5 -153t160.5 -53q64 0 115 9.5t88.5 20.5t61.5 20.5t33 9.5 t13.5 -6.5t4.5 -18.5q0 -10 -2 -24t-6 -28.5t-10.5 -27.5t-14.5 -22q-12 -12 -42.5 -23.5t-72.5 -21t-92 -15.5t-100 -6q-89 0 -156 20t-111.5 61.5t-66.5 103.5t-22 146zM288 562h102q105 0 175.5 13t113 35.5t60 52.5t17.5 63q0 51 -40 82.5t-114 31.5q-65 0 -115 -22.5 t-88.5 -60.5t-66 -88.5t-44.5 -106.5zM98 951zM362 1104.5q-4 6.5 2 17t20 25.5l210 229q7 8 15 12.5t19 7.5t26.5 4.5t37.5 1.5q21 0 34.5 -1.5t23 -5t15.5 -8t11 -11.5l118 -229q8 -15 10.5 -25.5t-2.5 -17t-20 -10t-41 -3.5q-21 0 -33 1.5t-19.5 4.5t-12 9t-8.5 15 l-94 180l-166 -180q-8 -10 -15 -15.5t-16.5 -8.5t-22.5 -4.5t-32 -1.5q-27 0 -41.5 3.5t-18.5 10z" />
<glyph unicode="&#xeb;" horiz-adv-x="978" d="M77 312q0 65 12.5 139.5t39.5 147.5t70 140t102.5 118t137.5 82t176 31q84 0 142.5 -21t96 -54t54.5 -73.5t17 -80.5q0 -69 -32 -124t-100 -94t-174 -60t-254 -21h-106q-7 -33 -9.5 -64t-2.5 -58q0 -100 49.5 -153t160.5 -53q64 0 115 9.5t88.5 20.5t61.5 20.5t33 9.5 t13.5 -6.5t4.5 -18.5q0 -10 -2 -24t-6 -28.5t-10.5 -27.5t-14.5 -22q-12 -12 -42.5 -23.5t-72.5 -21t-92 -15.5t-100 -6q-89 0 -156 20t-111.5 61.5t-66.5 103.5t-22 146zM288 562h102q105 0 175.5 13t113 35.5t60 52.5t17.5 63q0 51 -40 82.5t-114 31.5q-65 0 -115 -22.5 t-88.5 -60.5t-66 -88.5t-44.5 -106.5zM91 951zM371 1170.5q-1 18.5 3 45.5t11.5 45t20.5 29t31.5 15.5t44.5 4.5t43 -4.5t26.5 -15.5t11 -29t-2.5 -45t-12 -45.5t-21 -29t-32 -15t-44 -4.5q-27 0 -44 4.5t-26 15t-10 29zM725 1170.5q-2 18.5 3 45.5q4 27 11.5 45t20.5 29 t31.5 15.5t44.5 4.5t43 -4.5t26.5 -15.5t11 -29t-2.5 -45q-5 -27 -13 -45.5t-20.5 -29t-31.5 -15t-45 -4.5t-43 4.5t-25.5 15t-10.5 29z" />
<glyph unicode="&#xec;" horiz-adv-x="470" d="M65 25l179 900q1 8 6 13.5t15.5 10t27 6t40.5 1.5t39.5 -1.5t24 -6t11 -10t1.5 -13.5l-179 -900q-2 -8 -7 -13.5t-15 -9.5t-26.5 -6t-40.5 -2q-25 0 -40.5 2t-24 6t-11 9.5t-0.5 13.5zM-193 951zM100.5 1373.5q-0.5 8.5 7 15t25 10t46.5 3.5q24 0 40 -1.5t27 -5.5 t18.5 -11.5t14.5 -18.5l135 -231q7 -11 8.5 -19t-4 -13t-19 -8t-35.5 -3q-20 0 -33 1t-22 4.5t-16 10t-14 16.5l-171 233q-7 9 -7.5 17.5z" />
<glyph unicode="&#xed;" horiz-adv-x="470" d="M65 25l179 900q1 8 6 13.5t15.5 10t27 6t40.5 1.5t39.5 -1.5t24 -6t11 -10t1.5 -13.5l-179 -900q-2 -8 -7 -13.5t-15 -9.5t-26.5 -6t-40.5 -2q-25 0 -40.5 2t-24 6t-11 9.5t-0.5 13.5zM-8 951zM276 1115q2 8 9 19l154 231q7 11 15.5 18t20 11t28.5 6t42 2q28 0 44.5 -3.5 t23 -10t5 -15t-9.5 -17.5l-191 -233q-7 -10 -13.5 -16t-16 -9.5t-22.5 -5t-33 -1.5q-22 0 -35 3t-18 8t-3 13z" />
<glyph unicode="&#xee;" horiz-adv-x="470" d="M65 25l179 900q1 8 6 13.5t15.5 10t27 6t40.5 1.5t39.5 -1.5t24 -6t11 -10t1.5 -13.5l-179 -900q-2 -8 -7 -13.5t-15 -9.5t-26.5 -6t-40.5 -2q-25 0 -40.5 2t-24 6t-11 9.5t-0.5 13.5zM-176 951zM88 1104.5q-4 6.5 2 17t20 25.5l210 229q7 8 15 12.5t19 7.5t26.5 4.5 t37.5 1.5q21 0 34.5 -1.5t23 -5t15.5 -8t11 -11.5l118 -229q8 -15 10.5 -25.5t-2.5 -17t-20 -10t-41 -3.5q-21 0 -33 1.5t-19.5 4.5t-12 9t-8.5 15l-94 180l-166 -180q-8 -10 -15 -15.5t-16.5 -8.5t-22.5 -4.5t-32 -1.5q-27 0 -41.5 3.5t-18.5 10z" />
<glyph unicode="&#xef;" horiz-adv-x="470" d="M65 25l179 900q1 8 6 13.5t15.5 10t27 6t40.5 1.5t39.5 -1.5t24 -6t11 -10t1.5 -13.5l-179 -900q-2 -8 -7 -13.5t-15 -9.5t-26.5 -6t-40.5 -2q-25 0 -40.5 2t-24 6t-11 9.5t-0.5 13.5zM-146 951zM132 1170.5q-1 18.5 4 45.5t13 45t21.5 29t32 15.5t43.5 4.5q26 0 42 -4.5 t24 -15.5t9 -29t-4 -45t-13.5 -45.5t-21 -29t-31 -15t-43.5 -4.5q-26 0 -42.5 4.5t-24.5 15t-9 29zM442 1170.5q-1 18.5 4 45.5t13.5 45t21.5 29t32 15.5t44 4.5q26 0 42 -4.5t24 -15.5t9 -29t-4 -45q-6 -27 -14 -45.5t-21 -29t-31 -15t-43 -4.5q-26 0 -42.5 4.5t-25 15 t-9.5 29z" />
<glyph unicode="&#xf0;" horiz-adv-x="1076" d="M80 314q0 63 12 136t36.5 146t63 140t93.5 119.5t126.5 83.5t161.5 31q36 0 71.5 -8t68.5 -26.5t61.5 -49t49.5 -74.5q-10 31 -18.5 68t-21 78t-31.5 86.5t-49 94.5l-285 -69q-19 -5 -25 2.5t-6 23.5q0 14 3 29.5t9 29.5t15.5 24.5t22.5 13.5l203 49l-72 106q-6 10 -8 18 t5.5 13.5t25 8.5t50.5 3q29 0 49 -2t33.5 -6t22 -10t13.5 -14l48 -77l272 66q19 4 26.5 -3.5t7.5 -22.5q0 -10 -2 -25t-7.5 -29.5t-15.5 -26.5t-25 -15l-191 -47q25 -48 44.5 -96.5t32.5 -99.5t19.5 -104t6.5 -109q0 -70 -7 -141.5t-22.5 -140.5t-40 -133t-58.5 -120.5 t-77.5 -103t-98.5 -80t-121 -52t-145 -18.5q-90 0 -152 24t-100.5 68.5t-56 105.5t-17.5 135zM254 336q0 -106 42.5 -160t129.5 -54q64 0 115 22.5t89.5 59t66 83.5t45 96.5t25.5 97.5t8 86q0 58 -14 106.5t-40 82.5t-64 53t-87 19q-56 0 -101 -23.5t-80.5 -63t-60.5 -90.5 t-41.5 -105.5t-24.5 -109t-8 -100.5z" />
<glyph unicode="&#xf1;" d="M65 25l181 901q1 7 5.5 13t14 10t24 5.5t34.5 1.5q21 0 34.5 -1.5t21 -5.5t9.5 -10t1 -13l-34 -172q15 34 49 72t81 70t103.5 53t117.5 21q67 0 112 -20.5t73 -54t40 -77.5t12 -92q0 -35 -4 -69t-11 -70l-113 -562q-2 -8 -6.5 -13.5t-15 -9.5t-26.5 -6t-41 -2 q-24 0 -39.5 2t-24 6t-11 9.5t-1.5 13.5l111 556q7 31 9.5 60t2.5 51q0 61 -26 98.5t-87 37.5q-53 0 -108.5 -30.5t-103 -84t-85 -127t-54.5 -159.5l-80 -402q-2 -8 -7 -13.5t-15 -9.5t-26.5 -6t-40.5 -2q-25 0 -40.5 2t-24 6t-10.5 10l-2 6q0 3 1 7zM43 951zM313 1125 q0 6 1.5 25t8.5 45t21 54t37 51.5t57.5 39t83.5 15.5q37 0 65.5 -9.5t52 -24.5t43 -32t37.5 -32t36.5 -24.5t40.5 -9.5q35 0 57 26.5t28 78.5q1 16 13.5 21.5t46.5 5.5q37 0 47 -6.5t10 -21.5q0 -6 -2 -24.5t-9 -44.5t-20.5 -54.5t-37 -52.5t-58.5 -39.5t-84 -15.5 q-37 0 -65.5 9.5t-51.5 24.5t-42.5 32t-38 32t-37 24.5t-40.5 9.5q-40 0 -59 -29t-25 -77q-1 -7 -4 -12.5t-10 -8.5t-19 -4t-32 -1q-17 0 -27 1.5t-15 5t-7 9t-2 13.5z" />
<glyph unicode="&#xf2;" horiz-adv-x="1051" d="M78 324q0 74 13.5 151t42.5 148t72.5 134.5t103 110.5t135 74.5t168.5 27.5q96 0 164.5 -23.5t113 -67.5t65.5 -108t21 -144q0 -74 -14 -151t-42.5 -148.5t-72.5 -134.5t-103.5 -110t-135 -74.5t-168.5 -27.5q-96 0 -164.5 23t-112.5 67t-65 108t-21 145zM251 334 q0 -50 11 -90t35.5 -68t63.5 -43t95 -15q61 0 109.5 21.5t87 58.5t67 86t47 105t27.5 114t9 114q0 50 -10.5 90t-35 67.5t-64 42.5t-95.5 15q-60 0 -109 -21.5t-87.5 -58t-67 -85.5t-47 -104.5t-27.5 -114t-9 -114.5zM106 951zM399.5 1373.5q-0.5 8.5 7 15t25 10t46.5 3.5 q24 0 40 -1.5t27 -5.5t18.5 -11.5t14.5 -18.5l135 -231q7 -11 8.5 -19t-4 -13t-19 -8t-35.5 -3q-20 0 -33 1t-22 4.5t-16 10t-14 16.5l-171 233q-7 9 -7.5 17.5z" />
<glyph unicode="&#xf3;" horiz-adv-x="1051" d="M78 324q0 74 13.5 151t42.5 148t72.5 134.5t103 110.5t135 74.5t168.5 27.5q96 0 164.5 -23.5t113 -67.5t65.5 -108t21 -144q0 -74 -14 -151t-42.5 -148.5t-72.5 -134.5t-103.5 -110t-135 -74.5t-168.5 -27.5q-96 0 -164.5 23t-112.5 67t-65 108t-21 145zM251 334 q0 -50 11 -90t35.5 -68t63.5 -43t95 -15q61 0 109.5 21.5t87 58.5t67 86t47 105t27.5 114t9 114q0 50 -10.5 90t-35 67.5t-64 42.5t-95.5 15q-60 0 -109 -21.5t-87.5 -58t-67 -85.5t-47 -104.5t-27.5 -114t-9 -114.5zM298 951zM582 1115q2 8 9 19l154 231q7 11 15.5 18 t20 11t28.5 6t42 2q28 0 44.5 -3.5t23 -10t5 -15t-9.5 -17.5l-191 -233q-7 -10 -13.5 -16t-16 -9.5t-22.5 -5t-33 -1.5q-22 0 -35 3t-18 8t-3 13z" />
<glyph unicode="&#xf4;" horiz-adv-x="1051" d="M78 324q0 74 13.5 151t42.5 148t72.5 134.5t103 110.5t135 74.5t168.5 27.5q96 0 164.5 -23.5t113 -67.5t65.5 -108t21 -144q0 -74 -14 -151t-42.5 -148.5t-72.5 -134.5t-103.5 -110t-135 -74.5t-168.5 -27.5q-96 0 -164.5 23t-112.5 67t-65 108t-21 145zM251 334 q0 -50 11 -90t35.5 -68t63.5 -43t95 -15q61 0 109.5 21.5t87 58.5t67 86t47 105t27.5 114t9 114q0 50 -10.5 90t-35 67.5t-64 42.5t-95.5 15q-60 0 -109 -21.5t-87.5 -58t-67 -85.5t-47 -104.5t-27.5 -114t-9 -114.5zM114 951zM378 1104.5q-4 6.5 2 17t20 25.5l210 229 q7 8 15 12.5t19 7.5t26.5 4.5t37.5 1.5q21 0 34.5 -1.5t23 -5t15.5 -8t11 -11.5l118 -229q8 -15 10.5 -25.5t-2.5 -17t-20 -10t-41 -3.5q-21 0 -33 1.5t-19.5 4.5t-12 9t-8.5 15l-94 180l-166 -180q-8 -10 -15 -15.5t-16.5 -8.5t-22.5 -4.5t-32 -1.5q-27 0 -41.5 3.5 t-18.5 10z" />
<glyph unicode="&#xf5;" horiz-adv-x="1051" d="M78 324q0 74 13.5 151t42.5 148t72.5 134.5t103 110.5t135 74.5t168.5 27.5q96 0 164.5 -23.5t113 -67.5t65.5 -108t21 -144q0 -74 -14 -151t-42.5 -148.5t-72.5 -134.5t-103.5 -110t-135 -74.5t-168.5 -27.5q-96 0 -164.5 23t-112.5 67t-65 108t-21 145zM251 334 q0 -50 11 -90t35.5 -68t63.5 -43t95 -15q61 0 109.5 21.5t87 58.5t67 86t47 105t27.5 114t9 114q0 50 -10.5 90t-35 67.5t-64 42.5t-95.5 15q-60 0 -109 -21.5t-87.5 -58t-67 -85.5t-47 -104.5t-27.5 -114t-9 -114.5zM48 951zM318 1125q0 6 1.5 25t8.5 45t21 54t37 51.5 t57.5 39t83.5 15.5q37 0 65.5 -9.5t52 -24.5t43 -32t37.5 -32t36.5 -24.5t40.5 -9.5q35 0 57 26.5t28 78.5q1 16 13.5 21.5t46.5 5.5q37 0 47 -6.5t10 -21.5q0 -6 -2 -24.5t-9 -44.5t-20.5 -54.5t-37 -52.5t-58.5 -39.5t-84 -15.5q-37 0 -65.5 9.5t-51.5 24.5t-42.5 32 t-38 32t-37 24.5t-40.5 9.5q-40 0 -59 -29t-25 -77q-1 -7 -4 -12.5t-10 -8.5t-19 -4t-32 -1q-17 0 -27 1.5t-15 5t-7 9t-2 13.5z" />
<glyph unicode="&#xf6;" horiz-adv-x="1051" d="M78 324q0 74 13.5 151t42.5 148t72.5 134.5t103 110.5t135 74.5t168.5 27.5q96 0 164.5 -23.5t113 -67.5t65.5 -108t21 -144q0 -74 -14 -151t-42.5 -148.5t-72.5 -134.5t-103.5 -110t-135 -74.5t-168.5 -27.5q-96 0 -164.5 23t-112.5 67t-65 108t-21 145zM251 334 q0 -50 11 -90t35.5 -68t63.5 -43t95 -15q61 0 109.5 21.5t87 58.5t67 86t47 105t27.5 114t9 114q0 50 -10.5 90t-35 67.5t-64 42.5t-95.5 15q-60 0 -109 -21.5t-87.5 -58t-67 -85.5t-47 -104.5t-27.5 -114t-9 -114.5zM117 951zM397 1170.5q-1 18.5 3 45.5t11.5 45t20.5 29 t31.5 15.5t44.5 4.5t43 -4.5t26.5 -15.5t11 -29t-2.5 -45t-12 -45.5t-21 -29t-32 -15t-44 -4.5q-27 0 -44 4.5t-26 15t-10 29zM751 1170.5q-2 18.5 3 45.5q4 27 11.5 45t20.5 29t31.5 15.5t44.5 4.5t43 -4.5t26.5 -15.5t11 -29t-2.5 -45q-5 -27 -13 -45.5t-20.5 -29 t-31.5 -15t-45 -4.5t-43 4.5t-25.5 15t-10.5 29z" />
<glyph unicode="&#xf7;" horiz-adv-x="1020" d="M60 539q0 7 1.5 17.5t4.5 22.5t7 24t10 21.5t13 15.5t16 6h849q24 0 24 -37q0 -7 -1 -17t-3.5 -21.5t-6.5 -23t-10.5 -20.5t-13.5 -15t-16 -6h-849q-25 0 -25 33zM328.5 148.5q-0.5 22.5 5.5 55.5q7 34 17 58t26 38.5t40 20.5t57 6t54.5 -6t32 -20.5t11.5 -38.5t-5 -58 q-7 -33 -17 -55.5t-26.5 -36.5t-40.5 -20.5t-57 -6.5t-54.5 6.5t-32 20.5t-11 36.5zM476 887.5q-1 22.5 6 56.5q7 33 17 57t27 38.5t40 21t57 6.5q32 0 53.5 -6.5t32 -21t11 -38.5t-5.5 -57q-7 -34 -17 -56.5t-26.5 -37t-40.5 -21t-56 -6.5q-34 0 -55 6.5t-31.5 21t-11.5 37 z" />
<glyph unicode="&#xf8;" horiz-adv-x="1084" d="M57 -155q-10 11 5 32l121 180q-56 43 -80.5 111.5t-24.5 155.5q0 74 13.5 151t43 148t73.5 134.5t106 110.5t140.5 74.5t175.5 27.5q40 0 78.5 -4.5t79.5 -17.5l94 139q11 15 32 21t55 6q46 0 56 -10.5t-4 -33.5l-119 -174q59 -48 83.5 -115t24.5 -154q0 -74 -13.5 -151 t-42.5 -148.5t-73.5 -134.5t-106 -110t-140 -74.5t-176.5 -27.5q-26 0 -48.5 1.5t-43 4.5t-38 6.5t-31.5 8.5l-95 -141q-11 -16 -33 -21.5t-56 -5.5q-46 0 -56 11zM242 336q0 -47 11 -82.5t30 -56.5l426 629q-19 6 -46 9.5t-51 3.5q-66 0 -119 -22t-94 -60t-71 -88 t-49 -105.5t-28 -114t-9 -113.5zM378 125q17 -6 41.5 -10t56.5 -4q66 0 119.5 22t94.5 60t70.5 88t48.5 106t28 114t9 113q0 38 -9 75.5t-32 66.5z" />
<glyph unicode="&#xf9;" d="M112 225q0 33 4.5 67.5t11.5 69.5l111 564q2 7 7 13t15.5 10t27 5.5t40.5 1.5t39.5 -1.5t24 -5.5t11 -10t1.5 -13l-110 -558q-6 -26 -9 -54t-3 -57q0 -30 5.5 -54.5t19 -42.5t35 -28t52.5 -10q53 0 108.5 30.5t103.5 84.5t85.5 128.5t55.5 162.5l79 398q1 7 6.5 13t16 10 t27 5.5t40.5 1.5t39.5 -1.5t24 -5.5t11 -10t1.5 -13l-181 -901q-1 -8 -6 -14t-14 -9.5t-23.5 -5.5t-35.5 -2q-20 0 -33.5 2t-21 5.5t-10 9.5t-0.5 14l33 169q-16 -34 -50.5 -71.5t-81 -69.5t-102 -52t-112.5 -20q-68 0 -114.5 18.5t-75 51t-41 77t-12.5 97.5zM80 951z M373.5 1373.5q-0.5 8.5 7 15t25 10t46.5 3.5q24 0 40 -1.5t27 -5.5t18.5 -11.5t14.5 -18.5l135 -231q7 -11 8.5 -19t-4 -13t-19 -8t-35.5 -3q-20 0 -33 1t-22 4.5t-16 10t-14 16.5l-171 233q-7 9 -7.5 17.5z" />
<glyph unicode="&#xfa;" d="M112 225q0 33 4.5 67.5t11.5 69.5l111 564q2 7 7 13t15.5 10t27 5.5t40.5 1.5t39.5 -1.5t24 -5.5t11 -10t1.5 -13l-110 -558q-6 -26 -9 -54t-3 -57q0 -30 5.5 -54.5t19 -42.5t35 -28t52.5 -10q53 0 108.5 30.5t103.5 84.5t85.5 128.5t55.5 162.5l79 398q1 7 6.5 13t16 10 t27 5.5t40.5 1.5t39.5 -1.5t24 -5.5t11 -10t1.5 -13l-181 -901q-1 -8 -6 -14t-14 -9.5t-23.5 -5.5t-35.5 -2q-20 0 -33.5 2t-21 5.5t-10 9.5t-0.5 14l33 169q-16 -34 -50.5 -71.5t-81 -69.5t-102 -52t-112.5 -20q-68 0 -114.5 18.5t-75 51t-41 77t-12.5 97.5zM295 951z M579 1115q2 8 9 19l154 231q7 11 15.5 18t20 11t28.5 6t42 2q28 0 44.5 -3.5t23 -10t5 -15t-9.5 -17.5l-191 -233q-7 -10 -13.5 -16t-16 -9.5t-22.5 -5t-33 -1.5q-22 0 -35 3t-18 8t-3 13z" />
<glyph unicode="&#xfb;" d="M112 225q0 33 4.5 67.5t11.5 69.5l111 564q2 7 7 13t15.5 10t27 5.5t40.5 1.5t39.5 -1.5t24 -5.5t11 -10t1.5 -13l-110 -558q-6 -26 -9 -54t-3 -57q0 -30 5.5 -54.5t19 -42.5t35 -28t52.5 -10q53 0 108.5 30.5t103.5 84.5t85.5 128.5t55.5 162.5l79 398q1 7 6.5 13t16 10 t27 5.5t40.5 1.5t39.5 -1.5t24 -5.5t11 -10t1.5 -13l-181 -901q-1 -8 -6 -14t-14 -9.5t-23.5 -5.5t-35.5 -2q-20 0 -33.5 2t-21 5.5t-10 9.5t-0.5 14l33 169q-16 -34 -50.5 -71.5t-81 -69.5t-102 -52t-112.5 -20q-68 0 -114.5 18.5t-75 51t-41 77t-12.5 97.5zM115 951z M379 1104.5q-4 6.5 2 17t20 25.5l210 229q7 8 15 12.5t19 7.5t26.5 4.5t37.5 1.5q21 0 34.5 -1.5t23 -5t15.5 -8t11 -11.5l118 -229q8 -15 10.5 -25.5t-2.5 -17t-20 -10t-41 -3.5q-21 0 -33 1.5t-19.5 4.5t-12 9t-8.5 15l-94 180l-166 -180q-8 -10 -15 -15.5t-16.5 -8.5 t-22.5 -4.5t-32 -1.5q-27 0 -41.5 3.5t-18.5 10z" />
<glyph unicode="&#xfc;" d="M112 225q0 33 4.5 67.5t11.5 69.5l111 564q2 7 7 13t15.5 10t27 5.5t40.5 1.5t39.5 -1.5t24 -5.5t11 -10t1.5 -13l-110 -558q-6 -26 -9 -54t-3 -57q0 -30 5.5 -54.5t19 -42.5t35 -28t52.5 -10q53 0 108.5 30.5t103.5 84.5t85.5 128.5t55.5 162.5l79 398q1 7 6.5 13t16 10 t27 5.5t40.5 1.5t39.5 -1.5t24 -5.5t11 -10t1.5 -13l-181 -901q-1 -8 -6 -14t-14 -9.5t-23.5 -5.5t-35.5 -2q-20 0 -33.5 2t-21 5.5t-10 9.5t-0.5 14l33 169q-16 -34 -50.5 -71.5t-81 -69.5t-102 -52t-112.5 -20q-68 0 -114.5 18.5t-75 51t-41 77t-12.5 97.5zM107 951z M387 1170.5q-1 18.5 3 45.5t11.5 45t20.5 29t31.5 15.5t44.5 4.5t43 -4.5t26.5 -15.5t11 -29t-2.5 -45t-12 -45.5t-21 -29t-32 -15t-44 -4.5q-27 0 -44 4.5t-26 15t-10 29zM741 1170.5q-2 18.5 3 45.5q4 27 11.5 45t20.5 29t31.5 15.5t44.5 4.5t43 -4.5t26.5 -15.5t11 -29 t-2.5 -45q-5 -27 -13 -45.5t-20.5 -29t-31.5 -15t-45 -4.5t-43 4.5t-25.5 15t-10.5 29z" />
<glyph unicode="&#xfd;" horiz-adv-x="916" d="M34 -313l244 313l-149 879q-2 12 -3 22t-1 17q0 11 3.5 18.5t13.5 12t26.5 6t40.5 1.5q27 0 42.5 -1.5t24 -5t12 -10.5t4.5 -17l117 -734h2q62 87 112 177t92 182.5t77.5 187t66.5 191.5q2 8 7.5 13.5t16 9.5t28.5 5.5t45 1.5q45 0 60 -6t15 -18q0 -11 -2 -22.5t-7 -21.5 q-33 -91 -72 -189.5t-91 -206t-121.5 -224.5t-165.5 -246l-259 -353q-6 -8 -15 -14t-22 -10.5t-31.5 -6.5t-43.5 -2q-27 0 -44.5 2.5t-26.5 8.5q-8 5 -8 14q0 11 12 26zM198 951zM482 1115q2 8 9 19l154 231q7 11 15.5 18t20 11t28.5 6t42 2q28 0 44.5 -3.5t23 -10t5 -15 t-9.5 -17.5l-191 -233q-7 -10 -13.5 -16t-16 -9.5t-22.5 -5t-33 -1.5q-22 0 -35 3t-18 8t-3 13z" />
<glyph unicode="&#xfe;" d="M-7 -332l338 1693q2 8 7.5 14t16 10t27 6t39.5 2q24 0 39.5 -2t24 -6.5t10.5 -10.5t1 -13l-80 -402q-5 -24 -11 -49.5t-13 -51t-14.5 -51.5t-16.5 -52q15 34 49 71.5t80.5 69.5t102 53t112.5 21q76 0 127.5 -26t83.5 -69.5t46 -103t14 -127.5q0 -58 -11 -130.5 t-35 -146.5t-61.5 -143.5t-90.5 -123.5t-122.5 -86.5t-157.5 -32.5q-45 0 -82 9t-68 25t-57 37.5t-48 47.5l-85 -432q-2 -8 -6.5 -14t-14.5 -10t-26.5 -6t-41.5 -2q-23 0 -38.5 2t-24.5 6t-11.5 10t-1.5 14zM276 261q47 -70 101 -104.5t122 -34.5q53 0 96.5 25t77 67t58 95 t41 110t24 113t7.5 101q0 43 -7.5 79t-24 62t-43 40t-65.5 14q-54 0 -110 -31t-104.5 -86t-85.5 -128t-54 -157z" />
<glyph unicode="&#xff;" horiz-adv-x="916" d="M34 -313l244 313l-149 879q-2 12 -3 22t-1 17q0 11 3.5 18.5t13.5 12t26.5 6t40.5 1.5q27 0 42.5 -1.5t24 -5t12 -10.5t4.5 -17l117 -734h2q62 87 112 177t92 182.5t77.5 187t66.5 191.5q2 8 7.5 13.5t16 9.5t28.5 5.5t45 1.5q45 0 60 -6t15 -18q0 -11 -2 -22.5t-7 -21.5 q-33 -91 -72 -189.5t-91 -206t-121.5 -224.5t-165.5 -246l-259 -353q-6 -8 -15 -14t-22 -10.5t-31.5 -6.5t-43.5 -2q-27 0 -44.5 2.5t-26.5 8.5q-8 5 -8 14q0 11 12 26zM20 951zM300 1170.5q-1 18.5 3 45.5t11.5 45t20.5 29t31.5 15.5t44.5 4.5t43 -4.5t26.5 -15.5t11 -29 t-2.5 -45t-12 -45.5t-21 -29t-32 -15t-44 -4.5q-27 0 -44 4.5t-26 15t-10 29zM654 1170.5q-2 18.5 3 45.5q4 27 11.5 45t20.5 29t31.5 15.5t44.5 4.5t43 -4.5t26.5 -15.5t11 -29t-2.5 -45q-5 -27 -13 -45.5t-20.5 -29t-31.5 -15t-45 -4.5t-43 4.5t-25.5 15t-10.5 29z" />
<glyph unicode="&#x131;" horiz-adv-x="470" d="M65 25l179 900q1 8 6 13.5t15.5 10t27 6t40.5 1.5t39.5 -1.5t24 -6t11 -10t1.5 -13.5l-179 -900q-2 -8 -7 -13.5t-15 -9.5t-26.5 -6t-40.5 -2q-25 0 -40.5 2t-24 6t-11 9.5t-0.5 13.5z" />
<glyph unicode="&#x152;" horiz-adv-x="1775" d="M114 422q0 91 15.5 192.5t50.5 200.5t91 189.5t137 158.5t189.5 109t246.5 41q40 0 79 -4.5t73.5 -12.5t66 -19t54.5 -25q11 24 28.5 33t35.5 9h609q14 0 18.5 -9t4.5 -26q0 -6 -1 -16.5t-3.5 -22.5t-6 -24t-9.5 -22.5t-14 -16.5t-18 -6h-506l-81 -407h434q13 0 18.5 -9 t5.5 -25q0 -6 -1.5 -16.5t-4 -22.5t-6.5 -24.5t-10 -22.5t-13.5 -16.5t-17.5 -6.5h-434l-92 -458h514q13 0 18 -9t5 -24q0 -5 -0.5 -15.5t-3 -23t-6.5 -25t-9.5 -23t-13 -17t-18.5 -6.5h-615q-9 0 -18 2.5t-16.5 8t-11.5 15t-3 22.5q-65 -33 -139 -50t-159 -17 q-96 0 -168.5 18.5t-123.5 51t-84 75.5t-52.5 92t-27 101t-7.5 103zM298 446q0 -79 17.5 -138t55 -98.5t95.5 -59.5t138 -20q37 0 74.5 5.5t74.5 17.5t73.5 29.5t72.5 42.5l172 858q-49 38 -112.5 60.5t-142.5 22.5q-106 0 -185.5 -39.5t-137.5 -102.5t-95.5 -142 t-59.5 -159t-31 -153t-9 -124z" />
<glyph unicode="&#x153;" horiz-adv-x="1668" d="M78 325q0 74 13.5 150.5t42.5 148t73 134.5t104.5 110t137 74.5t171.5 27.5q124 0 204.5 -48.5t110.5 -141.5q30 43 67.5 78t83.5 60t100.5 38.5t118.5 13.5q83 0 142 -20.5t96.5 -53t54.5 -74t17 -81.5q0 -67 -31 -122t-98.5 -94t-174 -61t-255.5 -22h-107 q-6 -33 -9 -64t-3 -58q0 -100 49.5 -153t160.5 -53q65 0 115.5 9.5t88 20.5t61.5 20.5t33 9.5q18 0 18 -24q0 -12 -2 -26.5t-6.5 -29t-10.5 -27t-14 -20.5q-11 -11 -40.5 -22.5t-71 -21.5t-91.5 -16t-104 -6q-62 0 -112 10.5t-90 33t-69 56.5t-46 81q-32 -42 -71 -76 t-85 -57t-100 -35.5t-115 -12.5q-94 0 -161 23t-110.5 67.5t-64.5 108.5t-21 145zM251 334q0 -50 11 -90t35.5 -68t63.5 -43t95 -15q61 0 109.5 21.5t87 58.5t67 86t47 104.5t27.5 113.5t9 114q0 50 -10.5 90t-35 68t-64 43t-95.5 15q-60 0 -109 -21.5t-87.5 -58t-67 -85.5 t-47 -104.5t-27.5 -114t-9 -114.5zM978 562h102q106 0 176.5 13.5t113 36.5t59.5 52.5t17 61.5q0 51 -40 82.5t-115 31.5q-64 0 -114 -22.5t-88.5 -60.5t-66 -88.5t-44.5 -106.5z" />
<glyph unicode="&#x178;" horiz-adv-x="998" d="M192 1272q0 10 7 16q8 7 26.5 9.5t53.5 2.5q27 0 44 -1.5t27 -6.5t14.5 -12.5t8.5 -20.5l103 -355q18 -62 32 -119.5t27 -119.5h2q36 60 73 119t78 119l245 361q6 10 13.5 17t19.5 11.5t30 6t48 1.5q36 0 55 -3.5t25 -11.5q2 -4 2 -9t-3 -12q-6 -13 -19 -31l-512 -730 l-95 -478q-2 -7 -7.5 -13t-16.5 -9.5t-28 -6t-41 -2.5q-25 0 -41 2.5t-25 6t-12 9.5t-2 13l96 478l-220 730q-8 28 -8 39zM104 1294zM446.5 1481q-1.5 18 3.5 46q4 28 11.5 46.5t20 30t32 16t48.5 4.5q27 0 44.5 -4.5t27 -16t11.5 -30t-2 -46.5t-12 -46t-21.5 -29.5t-33 -16 t-47.5 -4.5t-45.5 4.5t-26.5 16t-10.5 29.5zM859.5 1481q-1.5 18 2.5 46q5 28 12 46.5t20.5 30t32.5 16t47 4.5t45.5 -4.5t27 -16t12 -30t-2.5 -46.5t-12.5 -46t-21 -29.5t-33 -16t-46.5 -4.5q-28 0 -45.5 4.5t-27 16t-11 29.5z" />
<glyph unicode="&#x2c6;" horiz-adv-x="809" d="M0 951zM264 1104.5q-4 6.5 2 17t20 25.5l210 229q7 8 15 12.5t19 7.5t26.5 4.5t37.5 1.5q21 0 34.5 -1.5t23 -5t15.5 -8t11 -11.5l118 -229q8 -15 10.5 -25.5t-2.5 -17t-20 -10t-41 -3.5q-21 0 -33 1.5t-19.5 4.5t-12 9t-8.5 15l-94 180l-166 -180q-8 -10 -15 -15.5 t-16.5 -8.5t-22.5 -4.5t-32 -1.5q-27 0 -41.5 3.5t-18.5 10z" />
<glyph unicode="&#x2da;" horiz-adv-x="657" d="M0 951zM288 1227q0 46 15 83.5t43.5 64.5t69.5 42.5t93 15.5q49 0 82.5 -13t54.5 -34t30 -49t9 -58q0 -46 -15 -83.5t-43.5 -64.5t-69.5 -42.5t-93 -15.5q-49 0 -82.5 12.5t-54.5 33.5t-30 49t-9 59zM397 1239q0 -15 4 -29.5t13 -26t25 -18.5t39 -7q47 0 73 29t26 80 q0 15 -4 30t-13.5 26.5t-25.5 18.5t-39 7q-47 0 -72.5 -29.5t-25.5 -80.5z" />
<glyph unicode="&#x2dc;" horiz-adv-x="922" d="M0 951zM270 1125q0 6 1.5 25t8.5 45t21 54t37 51.5t57.5 39t83.5 15.5q37 0 65.5 -9.5t52 -24.5t43 -32t37.5 -32t36.5 -24.5t40.5 -9.5q35 0 57 26.5t28 78.5q1 16 13.5 21.5t46.5 5.5q37 0 47 -6.5t10 -21.5q0 -6 -2 -24.5t-9 -44.5t-20.5 -54.5t-37 -52.5t-58.5 -39.5 t-84 -15.5q-37 0 -65.5 9.5t-51.5 24.5t-42.5 32t-38 32t-37 24.5t-40.5 9.5q-40 0 -59 -29t-25 -77q-1 -7 -4 -12.5t-10 -8.5t-19 -4t-32 -1q-17 0 -27 1.5t-15 5t-7 9t-2 13.5z" />
<glyph unicode="&#x3bc;" horiz-adv-x="1102" d="M-7 -332l251 1258q1 7 6 13t15.5 10t27 5.5t41.5 1.5q23 0 38.5 -1.5t24 -5.5t11 -10t1.5 -13l-113 -567q-10 -55 -11.5 -98.5t9 -74t35.5 -47t67 -16.5q54 0 109.5 30t104 83.5t86 127.5t56.5 162l80 400q1 7 6.5 13t15.5 10t27 5.5t41 1.5q23 0 38.5 -1.5t24 -5.5 t11.5 -10t2 -13l-132 -654q-8 -42 -10 -70.5t3.5 -45.5t18 -25t34.5 -8q33 0 51 5.5t33 5.5q6 0 9 -3.5t3 -10.5q0 -5 -1 -19.5t-5.5 -32.5t-10.5 -35t-16 -26q-5 -6 -16.5 -10.5t-26.5 -7.5t-32 -5t-34 -2q-94 0 -136.5 53t-24.5 158q-16 -34 -50.5 -71t-80.5 -68t-99 -51 t-106 -20q-29 0 -53 6t-41.5 16.5t-30 23t-18.5 26.5l-24 -167l-44 -220q-2 -8 -6 -14t-14.5 -10t-27 -6t-40.5 -2t-39.5 2t-24.5 6t-11.5 10t-1.5 14z" />
<glyph unicode="&#x2000;" horiz-adv-x="866" />
<glyph unicode="&#x2001;" horiz-adv-x="1733" />
<glyph unicode="&#x2002;" horiz-adv-x="866" />
<glyph unicode="&#x2003;" horiz-adv-x="1733" />
<glyph unicode="&#x2004;" horiz-adv-x="577" />
<glyph unicode="&#x2005;" horiz-adv-x="433" />
<glyph unicode="&#x2006;" horiz-adv-x="288" />
<glyph unicode="&#x2007;" horiz-adv-x="288" />
<glyph unicode="&#x2008;" horiz-adv-x="216" />
<glyph unicode="&#x2009;" horiz-adv-x="346" />
<glyph unicode="&#x200a;" horiz-adv-x="96" />
<glyph unicode="&#x2011;" horiz-adv-x="627" d="M72 472q0 5 1 14.5t3.5 21t6.5 23.5t10 21.5t13.5 15t18.5 5.5h419q14 0 19.5 -9t5.5 -24q0 -6 -0.5 -16t-3.5 -21.5t-7 -23t-9.5 -21.5t-14 -16t-18.5 -6h-419q-13 0 -19 9t-6 27z" />
<glyph unicode="&#x2012;" horiz-adv-x="627" d="M72 472q0 5 1 14.5t3.5 21t6.5 23.5t10 21.5t13.5 15t18.5 5.5h419q14 0 19.5 -9t5.5 -24q0 -6 -0.5 -16t-3.5 -21.5t-7 -23t-9.5 -21.5t-14 -16t-18.5 -6h-419q-13 0 -19 9t-6 27z" />
<glyph unicode="&#x2013;" horiz-adv-x="1020" d="M5 529q0 6 1 16.5t3.5 22.5t7 24.5t10.5 22.5t14 16.5t19 6.5h963q14 0 21 -9t7 -26q0 -7 -1.5 -17t-4 -22.5t-6.5 -25t-10.5 -22.5t-15 -16.5t-19.5 -6.5h-962q-15 0 -21 10t-6 26z" />
<glyph unicode="&#x2014;" horiz-adv-x="1854" d="M165 532q0 6 1 16.5t4 22.5t7.5 24.5t10.5 22t14.5 15.5t19.5 6h1480q14 0 20.5 -10t6.5 -24q0 -7 -1 -17.5t-3.5 -23.5t-7.5 -25.5t-11 -22.5t-15 -16.5t-20 -6.5h-1477q-16 0 -22.5 10t-6.5 29z" />
<glyph unicode="&#x2018;" horiz-adv-x="511" d="M236 937q0 57 25.5 115t72.5 113l178 206q14 15 34.5 22t57.5 7q18 0 29 -2.5t15.5 -7t3 -12.5t-8.5 -18l-189 -275l-23 -118q-5 -27 -12.5 -43t-20 -24.5t-31.5 -11.5t-46 -3q-25 0 -41.5 3t-26 9t-13.5 15.5t-4 24.5z" />
<glyph unicode="&#x2019;" horiz-adv-x="511" d="M128.5 906.5q1.5 7.5 8.5 18.5l188 275l23 118q5 26 13 42t20 25t31 12t47 3q25 0 41.5 -2.5t26 -9t13.5 -16.5t4 -24q0 -57 -25.5 -115t-73.5 -113l-178 -206q-7 -7 -15 -13t-19 -9.5t-25 -5t-32 -1.5t-29 2t-15.5 7t-3 12.5z" />
<glyph unicode="&#x201a;" horiz-adv-x="511" d="M-105.5 -269q1.5 8 8.5 19l188 275l23 118q5 27 13 43t20.5 24t31 11t46.5 3q25 0 41.5 -2.5t26 -9t13.5 -16t4 -24.5q0 -57 -25.5 -114.5t-72.5 -113.5l-179 -206q-13 -15 -34 -21.5t-58 -6.5q-18 0 -29 2.5t-15 6.5t-2.5 12z" />
<glyph unicode="&#x201c;" horiz-adv-x="857" d="M233 939q1 57 26 114.5t71 112.5l176 205q13 15 33 22t55 7q17 0 27.5 -2.5t15 -7t3 -12.5t-8.5 -18l-187 -274l-23 -117q-5 -27 -12.5 -42.5t-19.5 -24.5t-30 -12t-45 -3q-24 0 -39.5 3t-25 9t-13 16t-3.5 24zM590 939q1 57 26 114.5t71 112.5l176 205q13 15 33 22t55 7 q17 0 27.5 -2.5t15 -7t3 -12.5t-8.5 -18l-186 -274l-25 -117q-4 -27 -11.5 -42.5t-19.5 -24.5t-30 -12t-45 -3q-24 0 -40 3t-25 9t-12.5 16t-3.5 24z" />
<glyph unicode="&#x201d;" horiz-adv-x="857" d="M131.5 909q1.5 8 8.5 19l187 273l23 118q5 26 12.5 42t19.5 24.5t30 11.5t45 3q24 0 39.5 -2.5t25 -9t13 -16t3.5 -24.5q-1 -56 -26 -114t-71 -112l-176 -205q-13 -16 -33 -23t-55 -7q-17 0 -27.5 2.5t-15 7t-3 12.5zM488.5 909q1.5 8 8.5 19l187 273l23 118 q5 26 12.5 42t19.5 24.5t30 11.5t46 3q24 0 39 -2.5t24.5 -9t13 -16t3.5 -24.5q-1 -56 -26 -114t-71 -112l-175 -205q-14 -16 -34 -23t-55 -7q-17 0 -27.5 2.5t-15 7t-3 12.5z" />
<glyph unicode="&#x201e;" horiz-adv-x="857" d="M-102.5 -268q1.5 8 8.5 18l187 275l23 117q5 27 12.5 42.5t19 24t30 11.5t45.5 3q24 0 39.5 -2.5t24.5 -9t12.5 -16.5t3.5 -24q0 -57 -25 -114t-72 -113l-176 -204q-13 -16 -33 -22.5t-55 -6.5q-17 0 -27.5 2.5t-14.5 6.5t-2.5 12zM254.5 -268q1.5 8 8.5 18l187 275 l23 117q5 27 12.5 42.5t19 24t30 11.5t44.5 3q25 0 40.5 -2.5t24.5 -9t12.5 -16.5t3.5 -24q0 -57 -25.5 -114t-71.5 -113l-175 -204q-13 -16 -33.5 -22.5t-55.5 -6.5q-17 0 -27.5 2.5t-14.5 6.5t-2.5 12z" />
<glyph unicode="&#x2022;" horiz-adv-x="1020" d="M228 627q0 71 27 132t73 106t105.5 70t125.5 25q65 0 120.5 -25t96 -66.5t63 -96t22.5 -114.5q0 -71 -27.5 -131.5t-73 -105t-106 -70t-126.5 -25.5q-65 0 -120 24.5t-95 66t-62.5 96t-22.5 114.5z" />
<glyph unicode="&#x2026;" horiz-adv-x="1413" d="M73 62q0 15 3 34.5t8 38.5t12.5 35t18.5 27.5t31 18t57 6.5q29 0 46 -5t27 -14.5t13.5 -22.5t3.5 -29q0 -13 -2.5 -32t-7.5 -38.5t-12.5 -36.5t-19 -28.5t-33 -18t-55.5 -6.5q-27 0 -44.5 4.5t-27.5 13.5t-14 22t-4 31zM525 62q0 15 2.5 34.5t8 38.5t12.5 35t18 27.5 t31.5 18t57.5 6.5q28 0 45.5 -5t27.5 -14.5t13 -22.5t3 -29q0 -13 -2.5 -32t-7 -38.5t-12.5 -36.5t-19 -28.5t-33 -18t-55 -6.5q-28 0 -45 4.5t-27.5 13.5t-14 22t-3.5 31zM976 62q0 15 3 34.5t8 38.5t12.5 35t18.5 27.5t31 18t57 6.5q29 0 46 -5t27 -14.5t13.5 -22.5 t3.5 -29q0 -13 -2.5 -32t-7.5 -38.5t-12.5 -36.5t-19 -28.5t-33 -18t-55.5 -6.5q-27 0 -44.5 4.5t-27.5 13.5t-14 22t-4 31z" />
<glyph unicode="&#x202f;" horiz-adv-x="346" />
<glyph unicode="&#x2039;" horiz-adv-x="694" d="M126.5 524q2.5 20 20.5 41l286 347q6 8 13 13t17 8t25 4t37 1q25 0 40 -3t21.5 -9t5 -14t-9.5 -19l-294 -380l140 -366q3 -10 2.5 -18.5t-7.5 -15t-22 -9.5t-40 -3q-22 0 -35 1t-21 4t-12 8t-8 13l-151 353q-10 24 -7.5 44z" />
<glyph unicode="&#x203a;" horiz-adv-x="694" d="M122 127q1 8 10 18l293 382l-138 365q-3 10 -2.5 18.5t8 15t22.5 9.5t40 3q22 0 35 -1t20.5 -4t11.5 -8t7 -13l150 -353q10 -23 9 -43t-20 -43l-285 -346q-7 -8 -14 -13t-17 -8t-24.5 -4t-36.5 -1q-25 0 -41 3t-22.5 9t-5.5 14z" />
<glyph unicode="&#x2044;" horiz-adv-x="689" d="M-274 -21.5q-9 14.5 12 37.5l1158 1289q8 8 16 13.5t19 8.5t25.5 4.5t34.5 1.5q22 0 35.5 -3.5t18 -10.5t1.5 -17t-14 -21l-1158 -1289q-7 -9 -15 -13.5t-19.5 -8t-26 -5t-34.5 -1.5q-44 0 -53 14.5z" />
<glyph unicode="&#x205f;" horiz-adv-x="433" />
<glyph unicode="&#x2081;" horiz-adv-x="504" d="M20 375q0 12 1.5 25.5t5.5 26t11 22.5t17 16l209 111q5 3 10.5 4.5t13 2.5t18 1.5t26.5 0.5q20 0 32.5 -1.5t19 -3.5t8 -5.5t1.5 -7.5l-151 -751q-2 -7 -6.5 -11.5t-13.5 -7t-23.5 -4t-34.5 -1.5q-19 0 -31.5 1t-20.5 4t-11 7.5t-2 11.5l124 620l-162 -78 q-26 -11 -33.5 -5t-7.5 22z" />
<glyph unicode="&#x2082;" horiz-adv-x="688" d="M-52 -171q0 11 2.5 24t8.5 27.5t15 28.5t24 26l191 156q59 48 99.5 89t64 75.5t33 65t9.5 58.5q0 36 -22.5 60t-74.5 24q-37 0 -69 -10t-57 -21t-42.5 -21t-28.5 -10q-6 0 -11 6t-5 22q0 10 2 23t5.5 26t8.5 24t12 18q11 11 35 22.5t55 22t67 17t69 6.5q63 0 106 -15.5 t69.5 -41t38 -57.5t11.5 -64q0 -46 -15.5 -90.5t-48.5 -91t-87 -98.5t-132 -113l-127 -102h323q10 0 14 -7t4 -22q0 -9 -2 -23.5t-6.5 -29t-12 -25t-18.5 -10.5h-471q-22 0 -29.5 7.5t-7.5 23.5z" />
<glyph unicode="&#x2083;" horiz-adv-x="685" d="M-55 -137q0 7 2.5 22t7 29.5t11.5 25.5t16 11t22.5 -8.5t35 -17.5t52 -17t74.5 -8q39 0 73 8.5t59.5 25.5t40 43t14.5 60q0 22 -8.5 40.5t-28.5 32.5t-52.5 21.5t-80.5 7.5h-73q-11 0 -16 8t-5 20q0 13 3 27.5t9 26.5t13 20t16 8h69q42 0 78.5 9t63 27t42.5 46t16 64 q0 15 -4.5 29t-15.5 25t-30.5 18t-49.5 7q-37 0 -70 -9.5t-60 -21t-45.5 -21t-27.5 -9.5q-14 0 -14 24q0 10 2.5 22.5t7 25t10 24t11.5 17.5q8 8 29.5 18.5t51.5 20.5t66.5 16.5t75.5 6.5q60 0 101.5 -13.5t67.5 -36.5t37.5 -53t11.5 -63q0 -47 -16 -84.5t-42 -66 t-61.5 -46.5t-74.5 -26v-2q39 -3 67.5 -17.5t47.5 -36t28.5 -47t9.5 -51.5q0 -57 -24 -104.5t-68.5 -82.5t-109 -54t-145.5 -19q-56 0 -108 10t-95 33q-9 6 -13.5 13t-4.5 22z" />
<glyph unicode="&#x20ac;" horiz-adv-x="1038" d="M44 457q0 10 2 26.5t7.5 32t14.5 27.5t22 12h108q6 41 16 88t19 87h-108q-11 0 -16 6.5t-5 24.5q0 9 2.5 26t8.5 33.5t15.5 28.5t23.5 12h118q40 102 93 185t122 141.5t154.5 90.5t191.5 32q75 0 141.5 -18.5t113.5 -52.5q19 -14 24.5 -27.5t5.5 -29.5q0 -7 -1 -17.5 t-3.5 -22.5t-5.5 -24t-7.5 -21.5t-10.5 -15.5t-13 -6q-13 0 -32 14t-49 31t-72.5 31.5t-101.5 14.5q-132 0 -221 -80.5t-143 -224.5h304q12 0 17.5 -8t5.5 -26q0 -6 -1 -15t-3.5 -20.5t-6 -22t-9.5 -19.5t-12.5 -14.5t-16.5 -5.5h-323q-5 -19 -11 -41.5t-11 -45t-9 -45 t-7 -43.5h326q24 0 24 -32q0 -10 -3 -26.5t-9 -33t-16 -28t-24 -11.5h-311q0 -77 12.5 -132t41 -91t75.5 -53t116 -17q66 0 116.5 15.5t87 34.5t61 34.5t40.5 15.5q8 0 13 -7t5 -23t-2.5 -34t-7.5 -34.5t-13 -31t-18 -25.5q-17 -17 -49.5 -33.5t-73.5 -30t-89 -21t-96 -7.5 q-102 0 -177 29t-124 85.5t-72.5 138.5t-23.5 187h-118q-11 0 -16.5 7.5t-5.5 25.5z" />
<glyph unicode="&#x2122;" horiz-adv-x="1444" d="M215 1217.5q1 9.5 4 22.5q1 14 5 24.5t8.5 17t9 9.5t10.5 3h403q5 0 8.5 -3t5 -9.5t1 -17t-2.5 -24.5q-2 -13 -6 -22.5t-8 -16t-9 -9.5t-10 -3h-141l-91 -454q-1 -5 -4.5 -8t-11 -6t-19.5 -4.5t-30 -1.5q-17 0 -29 1.5t-18.5 4.5t-9.5 6t-2 8l91 454h-138q-6 0 -9.5 3 t-5.5 9.5t-1 16zM670 735l103 512q4 22 19 34.5t34 12.5h71q20 0 33 -3.5t21.5 -11.5t13.5 -21.5t9 -33.5l56 -344l202 344q20 35 42 52.5t55 17.5h81q20 0 29.5 -12.5t6.5 -34.5l-103 -512q-1 -5 -4 -8t-10 -6t-18 -4.5t-28 -1.5t-27.5 1.5t-16 4.5t-7.5 6t-1 8l89 446h-1 l-256 -450q-5 -8 -21.5 -12t-43.5 -4q-24 0 -36.5 4t-14.5 12l-74 450h-1l-90 -446q-1 -5 -4 -8t-9.5 -6t-18 -4.5t-27.5 -1.5q-17 0 -27.5 1.5t-16.5 4.5t-8 6t-1 8z" />
<glyph unicode="&#xe000;" horiz-adv-x="955" d="M0 955h955v-955h-955v955z" />
<glyph unicode="&#xfb01;" horiz-adv-x="1084" d="M-195 -318q0 4 1.5 13.5t3.5 20t5 22t7 21.5t9 16t12 6t13.5 -1.5t14 -3t18 -3t26.5 -1.5q42 0 72.5 13t52 40.5t36 69.5t26.5 101l164 818h-128q-10 0 -15.5 6.5t-5.5 24.5q0 8 1 19.5t3.5 23.5t6.5 23t10 20t12.5 14.5t16.5 5.5h126l25 123q16 83 46 144.5t72 102 t97 60.5t123 20q23 0 45 -2.5t40 -7t31 -9.5t18 -11q5 -5 7 -13t2 -18q0 -3 -1 -11.5t-3 -19t-4.5 -22.5t-6.5 -21.5t-9.5 -15.5t-11.5 -6q-7 0 -16 3t-21.5 6.5t-29 7t-38.5 3.5q-41 0 -70.5 -13t-50 -40.5t-35.5 -69.5t-26 -99l-17 -91h519q27 0 35.5 -14t4.5 -37 l-174 -875q-2 -8 -7 -13.5t-15.5 -9.5t-27 -6t-40.5 -2t-39.5 2t-23.5 6t-11 9.5t-2 13.5l158 789h-405l-171 -852q-17 -84 -46 -145.5t-71 -102t-97 -60t-124 -19.5q-45 0 -73.5 7t-35.5 13q-4 5 -6 11t-2 16zM897 1181q-1 19 4 47q6 28 14 46.5t22 31t34.5 17t50.5 4.5 t48 -4.5t27 -17t10 -31t-5 -46.5q-5 -28 -13 -47t-22 -30.5t-35 -16.5t-50 -5q-30 0 -48.5 5t-27 16.5t-9.5 30.5z" />
<glyph unicode="&#xfb02;" horiz-adv-x="1084" d="M-195 -318q0 4 1.5 13.5t3.5 20t5 22t7 21.5t9 16t12 6t13.5 -1.5t14 -3t18 -3t26.5 -1.5q42 0 72.5 13t52 40.5t36 69.5t26.5 101l164 818h-128q-10 0 -15.5 6.5t-5.5 24.5q0 8 1 19.5t3.5 23.5t6.5 23t10 20t12.5 14.5t16.5 5.5h126l25 125q16 82 47.5 143.5 t81.5 101.5t121 59.5t169 19.5q22 0 53.5 -2.5t61.5 -7t54 -10t30 -11.5l4 -6q2 -2 4 -6q1 8 6 15t15 11.5t26.5 7t43.5 2.5q23 0 38.5 -2t24 -6t11.5 -10t2 -14l-267 -1335q-4 -17 -24.5 -24.5t-62.5 -7.5q-25 0 -41 2.5t-24.5 6t-11.5 9.5t-2 14l244 1220q-2 -3 -6.5 -5 t-10.5 -2q-7 0 -21 3.5t-35.5 8.5t-51.5 8.5t-70 3.5q-65 0 -108 -13t-71 -40.5t-44.5 -69.5t-27.5 -99l-17 -90h184q11 0 17.5 -7.5t6.5 -24.5q0 -11 -1.5 -23t-5 -23.5t-8 -22t-10 -18.5t-12.5 -13t-15 -5h-184l-171 -852q-17 -84 -46 -145.5t-71 -102t-97 -60t-124 -19.5 q-45 0 -73.5 7t-35.5 13q-4 5 -6 11t-2 16z" />
<glyph unicode="&#xfb03;" horiz-adv-x="1654" d="M-195 -318q0 4 1.5 13.5t3.5 20t5 22t7 21.5t9 16t12 6t13.5 -1.5t14 -3t18 -3t26.5 -1.5q42 0 72.5 13t52 40.5t36 69.5t26.5 101l164 818h-128q-10 0 -15.5 6.5t-5.5 24.5q0 8 1 19.5t3.5 23.5t6.5 23t10 20t12.5 14.5t16.5 5.5h126l23 112q17 83 46.5 144t72 101.5 t98 60.5t123.5 20q22 0 45.5 -2.5t44 -7t36.5 -10.5t22 -12q5 -5 8 -14t3 -19q0 -4 -1 -12.5t-2.5 -19t-4.5 -22.5t-7 -21.5t-9 -15.5t-11 -6q-7 0 -17.5 4t-24.5 8.5t-33 8.5t-41 4q-44 0 -74.5 -13t-52 -40.5t-37 -69.5t-26.5 -99l-15 -79h405l24 123q17 83 46.5 144.5 t71.5 102t97 60.5t124 20q23 0 45 -2.5t40 -7t31 -9.5t19 -11q5 -5 6 -13t1 -18q0 -3 -0.5 -11.5t-2.5 -19t-4.5 -22t-6.5 -21t-9 -16t-11 -6.5q-8 0 -17.5 3t-22 6.5t-28.5 7t-38 3.5q-42 0 -71 -13t-50 -40.5t-35.5 -69.5t-26.5 -99l-17 -91h519q27 0 35.5 -13.5 t5.5 -37.5l-174 -875q-3 -8 -7.5 -13.5t-15 -9.5t-27 -6t-40.5 -2q-25 0 -40.5 2t-24 6t-11 9.5t-0.5 13.5l157 789h-405l-164 -817q-18 -91 -47.5 -157.5t-72 -109.5t-99 -63t-127.5 -20q-51 0 -87.5 7.5t-48.5 20.5q-9 8 -9 27q0 5 1 14.5t3 20.5t5 22.5t7.5 21t10 15.5 t12.5 6t16.5 -2.5t22 -6t28.5 -6.5t36 -3q41 0 71 13t51.5 39t36.5 67t26 97l163 814h-405l-171 -852q-17 -84 -46 -145.5t-71 -102t-97 -60t-124 -19.5q-45 0 -73.5 7t-35.5 13q-4 5 -6 11t-2 16zM1466.5 1181q-0.5 19 4.5 47q6 28 14.5 46.5t22 31t34.5 17t51 4.5 q29 0 47.5 -4.5t27.5 -17t10 -31t-5 -46.5q-5 -28 -13.5 -47t-22.5 -30.5t-34.5 -16.5t-50.5 -5t-48.5 5t-27.5 16.5t-9.5 30.5z" />
<glyph unicode="&#xfb04;" horiz-adv-x="1654" d="M-195 -318q0 4 1.5 13.5t3.5 20t5 22t7 21.5t9 16t12 6t13.5 -1.5t14 -3t18 -3t26.5 -1.5q42 0 72.5 13t52 40t36 69t26.5 102l164 818h-128q-10 0 -15.5 6.5t-5.5 24.5q0 8 1 19.5t3.5 23.5t6.5 23t10 20t12.5 14.5t16.5 5.5h126l23 112q17 83 46.5 144t72 101.5 t98 60.5t123.5 20q22 0 45.5 -2.5t44 -7t36.5 -10.5t22 -12q5 -5 8 -14t3 -19q0 -4 -1 -12.5t-2.5 -19t-4.5 -22.5t-7 -21.5t-9 -15.5t-11 -6q-7 0 -17.5 4t-24.5 8.5t-33 8.5t-41 4q-44 0 -74.5 -13t-52 -40.5t-37 -69.5t-26.5 -99l-15 -79h405l24 125q17 82 47.5 143.5 t80.5 101.5t122 60t170 20q22 0 53.5 -2.5t61.5 -7t53.5 -10t29.5 -11.5q3 -4 5 -6.5t4 -6.5q1 8 6 15t15 11.5t26.5 7t42.5 2.5q24 0 39.5 -2t24 -6t11 -10t0.5 -14l-265 -1336q-4 -17 -25 -24t-63 -7q-25 0 -41 2t-24.5 6t-11.5 9.5t-1 13.5l243 1222q-2 -3 -6 -5t-10 -2 q-8 0 -21.5 3.5t-35.5 8t-52 8.5t-70 4q-65 0 -108 -13t-71 -40.5t-44 -69.5t-28 -99l-17 -91h184q12 0 18 -7.5t6 -24.5q0 -11 -1.5 -23t-4.5 -23.5t-7.5 -22t-10.5 -18.5t-13 -13t-14 -5h-185l-163 -817q-19 -91 -48 -157.5t-72 -109.5t-99.5 -63t-127.5 -20 q-50 0 -86.5 7.5t-48.5 20.5q-10 8 -10 27q0 5 1 14.5t3 20.5t5 22.5t7.5 21t10 15.5t12.5 6t16.5 -2.5t22 -6t28.5 -6.5t36 -3q41 0 71 13t51.5 39t36.5 67t27 97l162 814h-405l-171 -852q-17 -84 -46 -145.5t-71 -102t-97 -60t-124 -19.5q-45 0 -73.5 7t-35.5 13 q-4 5 -6 11t-2 16z" />
<glyph horiz-adv-x="660" d="M0 1294zM353 1657q-2 9 5 16t25 11.5t48 4.5q25 0 42 -1t31 -5t24 -11.5t20 -20.5l179 -213q9 -11 11.5 -19t-3.5 -13.5t-19.5 -8t-35.5 -2.5q-21 0 -35 1.5t-24.5 5t-19.5 9t-19 15.5l-217 212q-10 10 -12 19z" />
<glyph horiz-adv-x="660" d="M0 1294zM345 1405.5q-9 10.5 11 32.5l197 213q11 12 22.5 19.5t25 11.5t31 5.5t42.5 1.5q30 0 47 -4.5t24 -11.5t3.5 -16t-13.5 -19l-235 -212q-11 -9 -20 -15t-20 -9.5t-25.5 -5t-34.5 -1.5q-46 0 -55 10.5z" />
<glyph horiz-adv-x="916" d="M0 1294zM323 1416q4 7 16 17l269 227q9 9 18.5 14.5t21 9t26.5 4.5t36 1t34.5 -1t23 -4.5t16.5 -9t14 -14.5l170 -227q7 -10 6.5 -17.5t-7.5 -12t-21 -6.5t-36 -2q-30 0 -47 1.5t-27 4t-15 7t-9 9.5l-118 173l-193 -168q-10 -8 -19.5 -14t-23 -8.5t-32.5 -3.5t-46 -1 q-25 0 -38.5 2.5t-18 7t-0.5 11.5z" />
<glyph horiz-adv-x="936" d="M0 1294zM327 1421q0 11 3 32t11.5 44.5t23.5 48t39 45t58 33t81 12.5q51 0 88.5 -18t68.5 -39t59 -39t60 -18q36 0 59 20.5t28 71.5q1 7 5 11t12 6.5t20 3.5t28 1q34 0 44 -6.5t10 -18.5q0 -4 -1.5 -21.5t-8.5 -41.5t-20 -50.5t-36.5 -49t-59.5 -37.5t-87 -15 q-52 0 -90 18t-68.5 39.5t-59 39t-60.5 17.5q-43 0 -62.5 -25t-24.5 -67q-1 -6 -5 -10t-11.5 -6.5t-19.5 -4t-28 -1.5q-33 0 -44.5 5.5t-11.5 19.5z" />
<glyph horiz-adv-x="757" d="M0 951zM278 1170.5q-1 18.5 4 45.5t13 45t21.5 29t32 15.5t43.5 4.5q26 0 42 -4.5t24 -15.5t9 -29t-4 -45t-13.5 -45.5t-21 -29t-31 -15t-43.5 -4.5q-26 0 -42.5 4.5t-24.5 15t-9 29zM588 1170.5q-1 18.5 4 45.5t13.5 45t21.5 29t32 15.5t44 4.5q26 0 42 -4.5t24 -15.5 t9 -29t-4 -45q-6 -27 -14 -45.5t-21 -29t-31 -15t-43 -4.5q-26 0 -42.5 4.5t-25 15t-9.5 29z" />
<glyph horiz-adv-x="871" d="M0 1294zM342.5 1481q-1.5 18 3.5 46q4 28 11.5 46.5t20 30t32 16t48.5 4.5q27 0 44.5 -4.5t27 -16t11.5 -30t-2 -46.5t-12 -46t-21.5 -29.5t-33 -16t-47.5 -4.5t-45.5 4.5t-26.5 16t-10.5 29.5zM755.5 1481q-1.5 18 2.5 46q5 28 12 46.5t20.5 30t32.5 16t47 4.5 t45.5 -4.5t27 -16t12 -30t-2.5 -46.5t-12.5 -46t-21 -29.5t-33 -16t-46.5 -4.5q-28 0 -45.5 4.5t-27 16t-11 29.5z" />
<glyph horiz-adv-x="672" d="M0 1294zM349 1519q0 30 6.5 57t20 50.5t33 43.5t45 34t56.5 21.5t66 7.5q49 0 83.5 -13.5t56.5 -36.5t32 -52.5t10 -59.5q0 -44 -16 -82.5t-45.5 -67t-71.5 -45t-95 -16.5q-49 0 -83 13.5t-56 35.5t-32 50.5t-10 59.5zM461 1532q0 -15 4 -30.5t13.5 -27t26 -18.5t39.5 -7 q24 0 43 8.5t32 23t20 34.5t7 44q0 15 -4.5 30.5t-14 27.5t-26 19.5t-39.5 7.5q-24 0 -43.5 -8.5t-32 -24t-19 -35.5t-6.5 -44z" />
<glyph horiz-adv-x="1020" d="M22 127q0 5 1.5 16t3.5 22.5t5.5 24t8.5 22.5t11.5 16.5t14.5 6.5q12 0 33 -14t57 -31.5t88 -31.5t128 -14q101 0 169 23t108.5 59t58 81t17.5 89q0 47 -22.5 78.5t-58.5 55.5t-83 42t-96 38t-96 43t-83 56t-58.5 80t-22.5 113q0 70 25 138t79 122t139 89.5t203 42.5 l61 201q2 6 5.5 11.5t11 9.5t20.5 5.5t33 1.5q22 0 36 -2t21 -6.5t8 -10.5t-2 -14l-61 -202q52 -9 100 -26.5t75 -37.5q19 -13 24 -22.5t5 -20.5q0 -7 -1.5 -18t-3.5 -23t-5.5 -25t-8 -23t-11 -16.5t-14.5 -6.5q-12 0 -31.5 13.5t-52 29t-80 29t-116.5 13.5 q-79 0 -132.5 -21.5t-86.5 -55t-47 -74.5t-14 -81q0 -43 22.5 -73t59 -53t83.5 -41.5t96 -38t96 -44t84 -59t59 -82.5t22 -115q0 -80 -29.5 -153t-93 -129t-160 -92.5t-229.5 -41.5l-66 -217q-5 -13 -18 -20.5t-53 -7.5q-22 0 -35.5 2.5t-20.5 6t-8 10t2 14.5l66 217 q-63 8 -116 24t-86 37q-23 15 -30.5 27t-7.5 34z" />
<glyph horiz-adv-x="1020" d="M-9 37q0 7 1.5 17t4.5 21.5t8 22.5t11 20.5t13 15t15 5.5h123l92 454h-123q-12 0 -19.5 10t-7.5 26q0 5 1.5 15t4 21t6.5 22.5t10 20t13.5 14.5t16.5 6h123l29 140q24 122 68 206t103.5 137t134.5 76t161 23q36 0 71.5 -5.5t69.5 -17t63 -28t52 -39.5q11 -10 16 -21.5 t5 -24.5q0 -7 -1 -17.5t-3 -22.5t-5.5 -24t-8.5 -21t-12 -15.5t-16 -6.5q-14 0 -29.5 16t-41.5 35.5t-64.5 35.5t-98.5 16q-118 0 -192.5 -81t-106.5 -239l-24 -122h327q15 0 21 -11t6 -25q0 -6 -1 -16t-4 -21t-7 -22t-10 -20t-13 -14.5t-17 -5.5h-328l-91 -454h503 q12 0 18.5 -9.5t6.5 -24.5q0 -6 -1 -16t-4 -22t-7 -23.5t-10 -21t-13.5 -16t-16.5 -6.5h-795q-12 0 -19.5 10t-7.5 27z" />
<glyph horiz-adv-x="669" d="M17 208q0 38 5.5 87t20.5 99.5t40 98.5t63.5 85t92.5 60.5t126 23.5q64 0 108.5 -17t71.5 -46.5t38.5 -70.5t11.5 -89q0 -35 -5.5 -82.5t-19.5 -98t-39 -99.5t-64 -88t-94 -62.5t-129 -23.5q-57 0 -100 15t-71 43t-42 69.5t-14 95.5zM157 215q0 -64 25 -91.5t79 -27.5 q40 0 70.5 19t52 49t35 67.5t21.5 75.5t11.5 70.5t3.5 54.5q0 58 -22.5 88.5t-82.5 30.5q-40 0 -70 -19.5t-51.5 -50.5t-35.5 -69t-22 -75t-11 -69.5t-3 -52.5z" />
<glyph horiz-adv-x="501" d="M48 450q0 12 2 26t7 27t12.5 24t17.5 16l207 109q3 2 8 3t12.5 1.5t18.5 1t28 0.5q20 0 32.5 -1t19 -3t8.5 -4.5t1 -7.5l-126 -625q-1 -6 -5.5 -10.5t-13.5 -7.5t-23 -4t-34 -1q-19 0 -32 1t-21 4t-11 7.5t-2 10.5l99 497l-165 -79q-24 -11 -32 -6t-8 21z" />
<glyph horiz-adv-x="594" d="M-26 31q0 9 2 22t7 27t14 28t23 24l160 125q51 40 84.5 71t53 57t28 49t8.5 48q0 12 -4 23.5t-14 20.5t-26 15.5t-38 6.5q-34 0 -61.5 -8t-49 -17.5t-36 -17t-21.5 -7.5q-8 0 -12.5 7.5t-4.5 20.5q0 10 2 23t6 25.5t11.5 23.5t17.5 16q44 23 91.5 35.5t97.5 12.5 q57 0 95 -14.5t61 -37t32.5 -50.5t9.5 -55q0 -43 -13 -80t-42.5 -73.5t-77 -76.5t-117.5 -89l-101 -75h281q11 0 14.5 -8t3.5 -19q0 -9 -2 -23.5t-7 -27.5t-11.5 -23t-16.5 -10h-412q-20 0 -28 7t-8 24z" />
<glyph horiz-adv-x="585" d="M-35 55q0 6 2 20t5.5 27t9.5 23t13 10q8 0 19.5 -6.5t31.5 -15.5t48 -15.5t69 -6.5q34 0 62.5 7t49 21.5t32 36t11.5 49.5q0 17 -7 30.5t-23.5 23.5t-44 15.5t-68.5 5.5h-68q-10 0 -15 6.5t-5 19.5q0 7 2 19.5t6 24.5t11 21t18 9h64q80 0 124.5 32t44.5 81q0 11 -4 22.5 t-14.5 20.5t-28.5 15.5t-47 6.5q-32 0 -58.5 -8t-48 -17.5t-37 -17t-23.5 -7.5t-12.5 5.5t-4.5 19.5q0 13 2.5 26t7.5 23.5t12 19t15 13.5q17 10 37.5 18.5t44 15t49.5 10t55 3.5q52 0 90 -10.5t63 -30.5t37.5 -48t12.5 -62q0 -33 -12.5 -62t-34.5 -51.5t-53 -38.5t-68 -24 q35 -3 60.5 -15t42 -29.5t24.5 -38.5t8 -43q0 -33 -10 -62.5t-28.5 -54t-45 -44.5t-60.5 -34t-74.5 -21.5t-87.5 -7.5q-53 0 -97.5 9.5t-82.5 29.5q-12 5 -16.5 11.5t-4.5 19.5z" />
<glyph horiz-adv-x="586" d="M-40 154q0 11 2.5 26.5t7.5 31.5t11.5 32t16.5 27l309 362q8 8 31.5 14t71.5 6q27 0 45.5 -2t30.5 -5.5t17.5 -7.5t4.5 -10l-79 -394h73q10 0 14 -6.5t4 -16.5q0 -5 -2.5 -18.5t-7 -27.5t-11.5 -24.5t-18 -10.5h-74l-22 -113q-1 -6 -6 -10t-15 -7t-24 -4.5t-34 -1.5 q-19 0 -31 1.5t-18.5 4.5t-8.5 7t-2 10l23 113h-286q-13 0 -18 5.5t-5 18.5zM93 234h197l59 296h-2z" />
</font>
</defs>
</svg>
