<?xml version="1.0" encoding="UTF-8" standalone="no"?>
<!-- Created with Inkscape (http://www.inkscape.org/) -->

<svg
   version="1.1"
   id="svg2"
   xml:space="preserve"
   width="262.02744"
   height="262"
   viewBox="0 0 262.02744 262.00001"
   xmlns="http://www.w3.org/2000/svg"
   xmlns:svg="http://www.w3.org/2000/svg"><defs
     id="defs6"><clipPath
       clipPathUnits="userSpaceOnUse"
       id="clipPath16"><path
         d="M 0,1000 H 1000 V 0 H 0 Z"
         id="path14" /></clipPath></defs><g
     id="g8"
     transform="matrix(1.3333333,0,0,-1.3333333,-346.23573,793.41328)"><g
       id="g10"><g
         id="g12"
         clip-path="url(#clipPath16)"><g
           id="g18"
           transform="translate(344.4474,590.8256)"><path
             d="M 0,0 C 1.075,-0.175 2.762,-0.275 4.339,-0.743 7.475,-1.675 8.178,-4.258 6.006,-6.76 5.23,-7.654 4.221,-8.393 3.206,-9.021 c -1.657,-1.024 -3.413,-1.887 -5.116,-2.837 -9.367,-5.224 -9.884,-14.644 -0.989,-20.635 5.096,-3.433 10.696,-4.507 16.708,-2.424 2.886,1 5.798,1.99 8.772,2.662 6.39,1.445 13.976,-2.69 16.416,-8.753 3.169,-7.874 -2.443,-16.432 -11.065,-16.944 -6.71,-0.399 -11.938,2.208 -15.735,7.675 -8.073,11.623 -26.329,9.474 -33.088,-3.057 -2.832,-5.249 -3.105,-10.67 -0.735,-16.075 2.118,-4.831 2.714,-9.59 0.587,-14.531 -2.668,-6.199 -8.519,-9.569 -14.984,-8.617 -5.282,0.777 -9.777,5.987 -10.018,12.474 -0.2,5.362 1.98,9.97 6.374,13.294 4.799,3.63 8.635,7.952 9.878,14.03 1.216,5.945 -0.763,10.873 -5.558,14.446 -4.096,3.052 -8.453,1.97 -12.61,-0.125 -2.885,-1.454 -5.562,-3.389 -8.55,-4.548 -3.286,-1.274 -5.158,0.509 -4.827,4.057 0.503,5.4 8.175,13.895 13.537,14.629 1.223,0.167 3.234,-0.467 3.81,-1.397 2.576,-4.159 6.484,-4.602 10.523,-3.893 6.915,1.215 12.745,4.546 16.842,10.429 2.067,2.967 3.076,6.129 1.046,9.616 -1.075,1.847 -0.352,3.384 1.077,4.712 C -10.57,-1.182 -5.694,-0.328 0,0"
             style="fill:#404040;fill-opacity:1;fill-rule:nonzero;stroke:none"
             id="path20" /></g><g
           id="g22"
           transform="translate(437.8513,467.761)"><path
             d="m 0,0 c -0.116,2.13 0.071,4.33 -0.4,6.378 -1.753,7.616 -9.843,10.631 -17.028,6.557 -6.614,-3.749 -9.24,-9.748 -10.155,-16.954 -0.82,-6.46 -4.191,-11.225 -10.403,-13.678 -4.847,-1.914 -9.359,-1.247 -13.216,2.278 -3.999,3.654 -4.721,8.377 -3.209,13.304 2.288,7.455 7.929,10.981 15.364,11.72 10.377,1.032 16.543,10.094 16.509,19.541 -0.037,10.134 -7.159,17.909 -17.107,19.113 -8.977,1.086 -15.194,7.465 -15.201,15.596 -0.008,8.646 7.739,14.415 16.035,11.941 6.084,-1.814 10.234,-7.271 11.389,-13.521 0.759,-4.107 2.259,-8.21 4.167,-11.935 2.259,-4.411 6.587,-6.445 11.386,-7.146 6.056,-0.883 11.374,3.797 11.725,10.255 0.142,2.595 -0.086,5.209 0.006,7.809 0.051,1.463 0.173,3.004 0.679,4.354 1.116,2.981 3.523,3.561 5.929,1.453 3.585,-3.141 5.28,-7.371 6.135,-11.906 0.37,-1.961 0.266,-4.06 0.076,-6.068 C 12.433,46.476 11.1,44.882 8.155,44.888 5.517,44.894 3.686,43.283 2.259,41.198 -2.01,34.961 -2.084,23.075 2.096,16.751 c 1.569,-2.375 3.618,-4.03 6.589,-4.07 2.572,-0.035 3.656,-1.581 3.986,-3.805 1.023,-6.914 -1.266,-12.85 -5.857,-17.869 -2.412,-2.636 -5.266,-1.849 -6.419,1.541 -0.406,1.196 -0.438,2.537 -0.527,3.82 -0.084,1.203 -0.018,2.417 -0.018,3.626 C -0.1,-0.004 -0.05,-0.002 0,0"
             style="fill:#939598;fill-opacity:1;fill-rule:nonzero;stroke:none"
             id="path24" /></g><g
           id="g26"
           transform="translate(341.5108,445.3824)"><path
             d="m 0,0 c 6.761,-0.315 11.746,2.783 15.635,8.061 3.854,5.23 9.085,7.747 15.504,6.796 6.635,-0.983 11.08,-5.941 11.181,-11.696 0.107,-6.11 -4.743,-11.709 -11.17,-13.233 -3.629,-0.86 -6.983,-0.316 -10.319,1.075 -4.909,2.046 -9.929,2.99 -15.231,1.694 -4.83,-1.181 -8.228,-4.401 -10.902,-8.214 -2.489,-3.55 -1.82,-8.301 1.481,-11.496 2.224,-2.152 5.108,-3.615 7.655,-5.444 1.786,-1.282 3.78,-2.426 5.174,-4.063 1.586,-1.862 0.891,-3.623 -1.311,-4.725 -4.736,-2.37 -16.221,-0.068 -19.535,4.129 -0.732,0.927 -1.241,2.839 -0.78,3.764 2.432,4.882 0.475,8.704 -2.636,12.184 -4.579,5.122 -10.404,8.07 -17.249,8.735 -3.303,0.321 -6.352,-0.604 -8.284,-3.555 -1.478,-2.256 -3.516,-2.492 -5.601,-1.575 -6.246,2.746 -10.285,7.554 -12.005,14.137 -0.739,2.826 1.734,4.841 4.678,3.698 2.656,-1.031 5.027,-2.775 7.614,-4.015 1.98,-0.95 4.039,-1.948 6.17,-2.331 8.324,-1.493 14.995,7.536 13.403,15.568 -1.071,5.409 -3.584,9.633 -7.942,12.954 -4.058,3.092 -7.23,6.717 -8.296,12.097 -1.198,6.046 2.73,12.737 7.299,14.586 5.568,2.253 11.982,0.236 15.573,-5.191 3.407,-5.148 3.598,-10.69 1.142,-16.221 -3.489,-7.858 -2.229,-14.896 3.39,-21.162 C -11.313,2.041 -6.175,-0.285 0,0"
             style="fill:#6f6f71;fill-opacity:1;fill-rule:nonzero;stroke:none"
             id="path28" /></g><g
           id="g30"
           transform="translate(381.4926,559.9806)"><path
             d="m 0,0 c 0.61,2.121 1.131,4.272 1.847,6.357 1.895,5.52 0.79,9.509 -3.909,12.971 -1.632,1.202 -3.52,2.052 -5.259,3.115 -1.496,0.915 -3.233,1.657 -4.33,2.934 -0.975,1.134 -1.886,3.058 -1.581,4.337 0.268,1.12 2.157,2.357 3.513,2.629 5.964,1.194 11.65,0.214 16.77,-3.21 3.034,-2.029 3.247,-3.462 2.161,-6.852 C 8.676,20.608 8.474,18.539 8.944,16.883 11.181,8.995 24.37,1.416 32.343,3.451 c 1.734,0.442 3.664,1.635 4.673,3.067 1.736,2.465 3.835,2.632 6.067,1.658 6.451,-2.817 10.46,-7.877 12.315,-14.595 0.623,-2.255 -0.935,-4.192 -3.278,-4.042 -1.694,0.109 -3.452,0.664 -4.989,1.414 -2.246,1.096 -4.26,2.655 -6.476,3.822 -5.65,2.977 -11.33,1.887 -14.596,-3.522 -3.206,-5.311 -9.048,-6.339 -14.335,-4.63 C 5.054,-11.222 0.351,-5.764 0,0"
             style="fill:#6f6f71;fill-opacity:1;fill-rule:nonzero;stroke:none"
             id="path32" /></g><g
           id="g34"
           transform="translate(277.2966,526.2576)"><path
             d="m 0,0 c 0,-1.581 -0.068,-3.166 0.012,-4.743 0.298,-5.89 4.669,-10.354 10.43,-10.711 5.856,-0.362 9.286,-2.713 10.647,-8.38 0.755,-3.143 0.841,-6.68 0.256,-9.861 -1.104,-6.006 -5.276,-9.276 -11.293,-9.779 -6.883,-0.575 -9.666,-5.732 -10.03,-11.608 -0.177,-2.869 0.32,-5.812 -0.129,-8.619 -0.268,-1.677 -1.461,-3.904 -2.83,-4.48 -1.041,-0.438 -3.477,0.955 -4.487,2.191 -3.632,4.451 -5.484,9.646 -5.061,15.494 0.236,3.264 1.533,4.581 4.803,4.889 2.883,0.272 4.853,1.975 6.098,4.345 4.129,7.857 4.178,15.836 0.089,23.728 -1.397,2.697 -3.673,4.511 -6.858,4.562 -2.788,0.045 -3.835,1.82 -4.066,4.058 -0.664,6.437 1.309,12.147 5.643,16.891 0.894,0.979 2.963,1.796 4.063,1.425 1.154,-0.39 2.232,-2.198 2.552,-3.571 C 0.27,3.98 -0.054,1.952 -0.054,0 -0.036,0 -0.018,0 0,0"
             style="fill:#939598;fill-opacity:1;fill-rule:nonzero;stroke:none"
             id="path36" /></g><g
           id="g38"
           transform="translate(375.9867,400.9397)"><path
             d="m 0,0 c -1.483,0.107 -3.067,-0.073 -4.419,0.405 -1.28,0.453 -3.022,1.427 -3.274,2.48 -0.292,1.221 0.41,3.279 1.403,4.087 2.277,1.853 5.095,3.024 7.498,4.745 2,1.432 4.117,2.982 5.476,4.964 2.321,3.385 2.027,7.128 0.29,10.86 -2.541,5.457 -1.858,9.118 2.335,13.39 3.79,3.861 8.387,5.69 13.833,5.262 4.036,-0.318 6.366,-3.119 8.72,-5.91 3.518,-4.169 7.037,-5.306 12.149,-3.475 2.325,0.833 4.407,2.337 6.616,3.505 1.551,0.821 3.055,1.845 4.712,2.329 3.697,1.08 5.967,-1.229 4.748,-4.859 -1.943,-5.789 -5.599,-10.248 -11.147,-12.951 -2.975,-1.45 -4.699,-0.965 -6.689,1.668 -1.87,2.474 -4.562,3.461 -7.36,3.199 C 26.524,28.913 19.592,25.353 14.982,18.056 13.249,15.312 12.752,12.379 14.467,9.367 15.632,7.323 14.632,5.791 13.166,4.486 9.419,1.15 4.866,0.131 0,0"
             style="fill:#404040;fill-opacity:1;fill-rule:nonzero;stroke:none"
             id="path40" /></g><g
           id="g42"
           transform="translate(456.1974,496.5625)"><path
             d="m 0,0 c -0.786,-3.177 -1.253,-6.316 -2.363,-9.208 -1.201,-3.128 -3.449,-3.198 -5.36,-0.497 -3.123,4.415 -3.144,15.081 -0.038,19.479 1.874,2.653 4.303,2.631 5.414,-0.355 C -1.235,6.43 -0.768,3.201 0,0"
             style="fill:#939598;fill-opacity:1;fill-rule:nonzero;stroke:none"
             id="path44" /></g><g
           id="g46"
           transform="translate(413.9304,571.5273)"><path
             d="m 0,0 c -6.967,1.025 -12.283,3.752 -15.972,9.075 -0.736,1.061 -1.066,2.969 -0.61,4.091 0.298,0.734 2.392,1.163 3.606,1.031 C -6.777,13.519 -1.832,10.351 2.128,5.698 2.952,4.73 3.587,2.789 3.157,1.794 2.729,0.804 0.852,0.439 0,0"
             style="fill:#6f6f71;fill-opacity:1;fill-rule:nonzero;stroke:none"
             id="path48" /></g><g
           id="g50"
           transform="translate(305.5228,569.5125)"><path
             d="m 0,0 c -0.832,0.544 -2.451,1.073 -3.014,2.153 -0.398,0.761 0.347,2.511 1.084,3.406 4.044,4.911 9.308,7.851 15.592,8.792 0.951,0.143 2.696,-0.36 2.913,-0.974 0.403,-1.144 0.391,-2.852 -0.217,-3.864 C 13.533,4.814 8.931,2.446 3.901,0.809 2.857,0.47 1.741,0.353 0,0"
             style="fill:#404040;fill-opacity:1;fill-rule:nonzero;stroke:none"
             id="path52" /></g><g
           id="g54"
           transform="translate(269.6207,496.7512)"><path
             d="m 0,0 c -0.994,-3.266 -1.564,-6.482 -2.945,-9.3 -1.41,-2.876 -3.812,-2.674 -5.066,0.258 -2.595,6.068 -2.557,12.263 -0.007,18.332 1.216,2.896 3.793,3.088 5.104,0.25 C -1.556,6.601 -0.972,3.306 0,0"
             style="fill:#939598;fill-opacity:1;fill-rule:nonzero;stroke:none"
             id="path56" /></g><g
           id="g58"
           transform="translate(413.6245,421.814)"><path
             d="M 0,0 C 0.904,-0.517 2.655,-0.939 2.977,-1.861 3.328,-2.865 2.702,-4.64 1.9,-5.547 c -4.178,-4.722 -9.249,-8.016 -15.75,-8.364 -2.95,-0.158 -3.984,1.497 -2.44,4.052 C -12.727,-3.962 -7.076,-1.316 0,0"
             style="fill:#404040;fill-opacity:1;fill-rule:nonzero;stroke:none"
             id="path60" /></g><g
           id="g62"
           transform="translate(305.8474,423.9244)"><path
             d="m 0,0 c 6.815,-1.302 12.148,-4.03 15.783,-9.387 1.802,-2.656 0.625,-4.598 -2.562,-4.324 -6.347,0.545 -11.345,3.777 -15.368,8.528 -0.714,0.844 -1.293,2.626 -0.874,3.397 C -2.499,-0.828 -0.874,-0.47 0,0"
             style="fill:#6f6f71;fill-opacity:1;fill-rule:nonzero;stroke:none"
             id="path64" /></g></g></g></g></svg>
