<?xml version="1.0" encoding="UTF-8" standalone="no"?>
<!-- Created with Inkscape (http://www.inkscape.org/) -->

<svg
   xmlns:dc="http://purl.org/dc/elements/1.1/"
   xmlns:cc="http://creativecommons.org/ns#"
   xmlns:rdf="http://www.w3.org/1999/02/22-rdf-syntax-ns#"
   xmlns:svg="http://www.w3.org/2000/svg"
   xmlns="http://www.w3.org/2000/svg"
   version="1.1"
   width="1027.0535"
   height="1402.9683"
   viewBox="0 0 1027.0535 1402.9683"
   id="svg2">
  <defs
     id="defs4" />
  <metadata
     id="metadata7">
    <rdf:RDF>
      <cc:Work
         rdf:about="">
        <dc:format>image/svg+xml</dc:format>
        <dc:type
           rdf:resource="http://purl.org/dc/dcmitype/StillImage" />
        <dc:title></dc:title>
        <cc:license
           rdf:resource="https://github.com/bpmn-io/bpmn-font/blob/master/LICENSE" />
        <dc:creator>
          <cc:Agent>
            <dc:title>Jörg Dotzki</dc:title>
          </cc:Agent>
        </dc:creator>
        <dc:subject>
          <rdf:Bag>
            <rdf:li>BPMN</rdf:li>
            <rdf:li>bpmn-io</rdf:li>
            <rdf:li>bpmn.io</rdf:li>
            <rdf:li>Font</rdf:li>
          </rdf:Bag>
        </dc:subject>
      </cc:Work>
    </rdf:RDF>
  </metadata>
  <path
     d="m 767.352,-91.28807 c -286.2304,6.5e-4 -572.46091,9.6e-4 -858.691365,0.002 l 0,1584.21097 1213.511765,0 0,-1219.8555 C 1003.8989,151.61688 885.6255,30.16441 767.352,-91.28807 z m -104.207,90 0,371.64844 369.0274,0 0,1032.56453 -1033.5117645,0 0,-1404.21101 C 220.15543,-1.28676 441.65023,-1.28707 663.145,-1.28811 z m 90,24.41211 250.5039,257.23633 -250.5039,0 z m -454.56053,42.60547 0,185.30274 -212.035165,0 0,159.54687 212.035165,0 0,185.30469 282.15043,-265.07813 z"
     id="path4136"
     style="font-size:medium;font-style:normal;font-variant:normal;font-weight:normal;font-stretch:normal;text-indent:0;text-align:start;text-decoration:none;line-height:normal;letter-spacing:normal;word-spacing:normal;text-transform:none;direction:ltr;block-progression:tb;writing-mode:lr-tb;text-anchor:start;baseline-shift:baseline;color:#000000;fill:#000000;fill-opacity:1;fill-rule:nonzero;stroke:none;visibility:visible;display:inline;overflow:visible;enable-background:accumulate;font-family:sans-serif" />
  <path
     d="M -4.512677e-6,701.48415 -4.512677e-6,0 328.92558,0 657.8512,0 l 0,187.95747 0,187.95748 184.6011,0 184.6011,0 0,513.52668 0,513.52667 -513.52672,0 -513.5266845126768,0 0,-701.48415 z M 445.68518,463.7037 C 521.9559,391.9968 583.5256,331.43532 582.5068,329.12263 581.488,326.80994 517.2187,265.36213 439.68624,192.57194 l -140.96811,-132.3458 -1.8625,94.07312 -1.8625,94.07312 -107.21997,0 -107.219965,0 0,83.90958 0,83.90959 107.404285,0 107.40427,0 0,91.18175 c 0,50.14997 2.62111,90.17484 5.82469,88.94416 3.20358,-1.23067 68.22801,-60.90686 144.49874,-132.61376 z"
     id="path3373"
     style="fill:#a0a0a0;stroke:none" />
</svg>
