<?xml version="1.0" encoding="UTF-8" standalone="no"?>
<!-- Created with Inkscape (http://www.inkscape.org/) -->

<svg
   xmlns:dc="http://purl.org/dc/elements/1.1/"
   xmlns:cc="http://creativecommons.org/ns#"
   xmlns:rdf="http://www.w3.org/1999/02/22-rdf-syntax-ns#"
   xmlns:svg="http://www.w3.org/2000/svg"
   xmlns="http://www.w3.org/2000/svg"
   version="1.1"
   width="1213.5117"
   height="1584.213"
   viewBox="0 0 1213.5117 1584.213"
   id="svg2">
  <defs
     id="defs4" />
  <metadata
     id="metadata7">
    <rdf:RDF>
      <cc:Work
         rdf:about="">
        <dc:format>image/svg+xml</dc:format>
        <dc:type
           rdf:resource="http://purl.org/dc/dcmitype/StillImage" />
        <dc:title></dc:title>
        <cc:license
           rdf:resource="https://github.com/bpmn-io/bpmn-font/blob/master/LICENSE" />
        <dc:creator>
          <cc:Agent>
            <dc:title>Jörg Dotzki</dc:title>
          </cc:Agent>
        </dc:creator>
        <dc:subject>
          <rdf:Bag>
            <rdf:li>BPMN</rdf:li>
            <rdf:li>bpmn-io</rdf:li>
            <rdf:li>bpmn.io</rdf:li>
            <rdf:li>Font</rdf:li>
          </rdf:Bag>
        </dc:subject>
      </cc:Work>
    </rdf:RDF>
  </metadata>
  <g
     transform="translate(-393.24414,739.74136)"
     id="layer1">
    <path
       d="m 1251.9355,-739.74136 c -286.23045,6.5e-4 -572.46091,10e-4 -858.69136,0.002 0,528.07032 0,1056.14066 0,1584.21096 404.50392,0 809.00786,0 1213.51176,0 0,-406.6185 0,-813.23699 0,-1219.85549 -118.2735,-121.45248 -236.5469,-242.90495 -354.8204,-364.35743 z m -104.207,90 c 0,123.88281 0,247.76563 0,371.64844 123.0091,0 246.0183,0 369.0274,0 0,344.18818 0,688.37628 0,1032.56448 -344.5039,0 -689.00784,0 -1033.51176,0 0,-468.0703 0,-936.14064 0,-1404.21096 221.49479,-6.5e-4 442.98957,-10e-4 664.48436,-0.002 z m 90,24.41211 c 83.5013,85.74544 167.0026,171.49089 250.5039,257.23633 -83.5013,0 -167.0026,0 -250.5039,0 0,-85.74544 0,-171.49089 0,-257.23633 z"
       id="path4136"
       style="font-size:medium;font-style:normal;font-variant:normal;font-weight:normal;font-stretch:normal;text-indent:0;text-align:start;text-decoration:none;line-height:normal;letter-spacing:normal;word-spacing:normal;text-transform:none;direction:ltr;block-progression:tb;writing-mode:lr-tb;text-anchor:start;baseline-shift:baseline;color:#000000;fill:#000000;fill-opacity:1;fill-rule:nonzero;stroke:none;visibility:visible;display:inline;overflow:visible;enable-background:accumulate;font-family:sans-serif" />
  </g>
</svg>
