<?xml version="1.0" encoding="UTF-8" standalone="no"?>
<!-- Created with Inkscape (http://www.inkscape.org/) -->

<svg
   xmlns:dc="http://purl.org/dc/elements/1.1/"
   xmlns:cc="http://creativecommons.org/ns#"
   xmlns:rdf="http://www.w3.org/1999/02/22-rdf-syntax-ns#"
   xmlns:svg="http://www.w3.org/2000/svg"
   xmlns="http://www.w3.org/2000/svg"
   version="1.1"
   width="1213.5117"
   height="1584.213"
   viewBox="0 0 1213.5117 1584.213"
   id="svg2">
  <defs
     id="defs4" />
  <metadata
     id="metadata7">
    <rdf:RDF>
      <cc:Work
         rdf:about="">
        <dc:format>image/svg+xml</dc:format>
        <dc:type
           rdf:resource="http://purl.org/dc/dcmitype/StillImage" />
        <dc:title></dc:title>
        <cc:license
           rdf:resource="https://github.com/bpmn-io/bpmn-font/blob/master/LICENSE" />
        <dc:creator>
          <cc:Agent>
            <dc:title>Jörg Dotzki</dc:title>
          </cc:Agent>
        </dc:creator>
        <dc:subject>
          <rdf:Bag>
            <rdf:li>BPMN</rdf:li>
            <rdf:li>bpmn-io</rdf:li>
            <rdf:li>bpmn.io</rdf:li>
            <rdf:li>Font</rdf:li>
          </rdf:Bag>
        </dc:subject>
      </cc:Work>
    </rdf:RDF>
  </metadata>
  <g
     transform="translate(-393.24414,739.74136)"
     id="layer1">
    <path
       d="m 1251.9355,207.89648 c -286.2304,6.5e-4 -572.46091,9.6e-4 -858.69136,0.002 l 0,1584.21092 1213.51176,0 0,-1219.85545 C 1488.4824,450.80143 1370.209,329.34896 1251.9355,207.89648 z m -104.207,90 0,371.64844 369.0274,0 0,1032.56448 -1033.51176,0 0,-1404.21096 c 221.49479,-6.5e-4 442.98959,-9.6e-4 664.48436,-0.002 z m 90,24.41211 250.5039,257.23633 -250.5039,0 z m -454.56053,42.60547 0,185.30274 -212.03516,0 0,159.54687 212.03516,0 0,185.30469 282.15043,-265.07813 z"
       transform="translate(0,-947.63784)"
       id="path4136"
       style="font-size:medium;font-style:normal;font-variant:normal;font-weight:normal;font-stretch:normal;text-indent:0;text-align:start;text-decoration:none;line-height:normal;letter-spacing:normal;word-spacing:normal;text-transform:none;direction:ltr;block-progression:tb;writing-mode:lr-tb;text-anchor:start;baseline-shift:baseline;color:#000000;fill:#000000;fill-opacity:1;fill-rule:nonzero;stroke:none;visibility:visible;display:inline;overflow:visible;enable-background:accumulate;font-family:sans-serif" />
  </g>
</svg>
