<?xml version="1.0" encoding="UTF-8" standalone="no"?>
<!-- Created with Inkscape (http://www.inkscape.org/) -->

<svg
   xmlns:dc="http://purl.org/dc/elements/1.1/"
   xmlns:cc="http://creativecommons.org/ns#"
   xmlns:rdf="http://www.w3.org/1999/02/22-rdf-syntax-ns#"
   xmlns:svg="http://www.w3.org/2000/svg"
   xmlns="http://www.w3.org/2000/svg"
   version="1.1"
   width="1027.0535"
   height="1402.9683"
   viewBox="0 0 1027.0535 1402.9683"
   id="svg2">
  <defs
     id="defs4" />
  <metadata
     id="metadata7">
    <rdf:RDF>
      <cc:Work
         rdf:about="">
        <dc:format>image/svg+xml</dc:format>
        <dc:type
           rdf:resource="http://purl.org/dc/dcmitype/StillImage" />
        <dc:title></dc:title>
        <cc:license
           rdf:resource="https://github.com/bpmn-io/bpmn-font/blob/master/LICENSE" />
        <dc:creator>
          <cc:Agent>
            <dc:title>Jörg Dotzki</dc:title>
          </cc:Agent>
        </dc:creator>
        <dc:subject>
          <rdf:Bag>
            <rdf:li>BPMN</rdf:li>
            <rdf:li>bpmn-io</rdf:li>
            <rdf:li>bpmn.io</rdf:li>
            <rdf:li>Font</rdf:li>
          </rdf:Bag>
        </dc:subject>
      </cc:Work>
    </rdf:RDF>
  </metadata>
  <path
     d="m 767.352,-91.28807 c -286.23045,6.5e-4 -572.46091,0.001 -858.691365,0.002 0,528.07032 0,1056.14066 0,1584.21097 404.503925,0 809.007865,0 1213.511765,0 0,-406.6185 0,-813.237 0,-1219.8555 C 1003.8989,151.61692 885.6255,30.16445 767.352,-91.28803 z m -104.207,90 c 0,123.88281 0,247.76563 0,371.64844 123.0091,0 246.0183,0 369.0274,0 0,344.18818 0,688.37623 0,1032.56443 -344.5039,0 -689.00784,0 -1033.5117645,0 0,-468.07025 0,-936.14059 0,-1404.21091 C 220.15543,-1.28676 441.65021,-1.28711 663.145,-1.28811 z m 90,24.41211 c 83.5013,85.74544 167.0026,171.49089 250.5039,257.23633 -83.5013,0 -167.0026,0 -250.5039,0 0,-85.74544 0,-171.49089 0,-257.23633 z"
     id="path4136"
     style="font-size:medium;font-style:normal;font-variant:normal;font-weight:normal;font-stretch:normal;text-indent:0;text-align:start;text-decoration:none;line-height:normal;letter-spacing:normal;word-spacing:normal;text-transform:none;direction:ltr;block-progression:tb;writing-mode:lr-tb;text-anchor:start;baseline-shift:baseline;color:#000000;fill:#000000;fill-opacity:1;fill-rule:nonzero;stroke:none;visibility:visible;display:inline;overflow:visible;enable-background:accumulate;font-family:sans-serif" />
  <path
     d="M -4.512677e-6,701.48415 -4.512677e-6,0 328.92558,0 657.8512,0 l 0,187.95747 0,187.95748 184.6011,0 184.6011,0 0,513.52668 0,513.52667 -513.52672,0 -513.5266845126768,0 0,-701.48415 z"
     id="path3343"
     style="fill:#a0a0a0;stroke:none" />
</svg>
