<?xml version="1.0" encoding="UTF-8" standalone="no"?>
<!-- Created with Inkscape (http://www.inkscape.org/) -->

<svg
   xmlns:dc="http://purl.org/dc/elements/1.1/"
   xmlns:cc="http://creativecommons.org/ns#"
   xmlns:rdf="http://www.w3.org/1999/02/22-rdf-syntax-ns#"
   xmlns:svg="http://www.w3.org/2000/svg"
   xmlns="http://www.w3.org/2000/svg"
   version="1.1"
   width="1027.0533"
   height="1402.9681"
   viewBox="0 0 1027.0533 1402.9681"
   id="svg2">
  <defs
     id="defs4" />
  <metadata
     id="metadata7">
    <rdf:RDF>
      <cc:Work
         rdf:about="">
        <dc:format>image/svg+xml</dc:format>
        <dc:type
           rdf:resource="http://purl.org/dc/dcmitype/StillImage" />
        <dc:title></dc:title>
        <cc:license
           rdf:resource="https://github.com/bpmn-io/bpmn-font/blob/master/LICENSE" />
        <dc:creator>
          <cc:Agent>
            <dc:title>Jörg Dotzki</dc:title>
          </cc:Agent>
        </dc:creator>
        <dc:subject>
          <rdf:Bag>
            <rdf:li>BPMN</rdf:li>
            <rdf:li>bpmn-io</rdf:li>
            <rdf:li>bpmn.io</rdf:li>
            <rdf:li>Font</rdf:li>
          </rdf:Bag>
        </dc:subject>
      </cc:Work>
    </rdf:RDF>
  </metadata>
  <path
     d="m 767.35199,-91.28812 c -286.2304,6.5e-4 -572.46091,9.6e-4 -858.69136,0.002 l 0,1584.21092 1213.51177,0 0,-1219.85545 C 1003.8989,151.61683 885.62549,30.16436 767.35199,-91.28812 z m -104.207,90 0,371.64844 369.02741,0 0,1032.56448 -1033.51177,0 0,-1404.21096 c 221.49479,-6.5e-4 442.98959,-9.6e-4 664.48436,-0.002 z m 90,24.41211 250.50391,257.23633 -250.50391,0 0,-257.23633 z m -454.56053,42.60547 0,46.23047 0,139.07227 -212.03516,0 0,159.54687 212.03516,0 0,185.30469 L 580.73489,330.80563 298.58446,65.72946 z m 40,92.46289 183.73243,172.61328 -183.73243,172.61329 0,-132.83985 -212.03516,0 0,-79.54687 212.03516,0 0,-132.83985 z"
     id="path4136"
     style="font-size:medium;font-style:normal;font-variant:normal;font-weight:normal;font-stretch:normal;text-indent:0;text-align:start;text-decoration:none;line-height:normal;letter-spacing:normal;word-spacing:normal;text-transform:none;direction:ltr;block-progression:tb;writing-mode:lr-tb;text-anchor:start;baseline-shift:baseline;color:#000000;fill:#000000;fill-opacity:1;fill-rule:nonzero;stroke:none;visibility:visible;display:inline;overflow:visible;enable-background:accumulate;font-family:sans-serif" />
  <path
     d="m -1.2965639e-5,701.4841 0,-701.4841 L 328.92555,0 l 328.92553,0 0,187.95746 0,187.95746 184.6011,0 184.60112,0 0,513.52664 0,513.52664 -513.52667,0 -513.526642965639,0 0,-701.4841 z M 445.68514,463.70366 C 521.95588,391.99677 583.52558,331.4353 582.50678,329.1226 581.48788,326.80991 517.21868,265.36211 439.68619,192.57193 L 298.7181,60.22614 l -1.86251,94.07311 -1.86249,94.07311 -107.21996,0 -107.219953,0 0,83.90958 0,83.90958 107.404263,0 107.40426,0 0,91.18174 c 0,50.14997 2.62111,90.17484 5.82469,88.94416 3.20358,-1.23067 68.22801,-60.90687 144.49874,-132.61376 z"
     id="path3320"
     style="fill:#a0a0a0;stroke:none" />
</svg>
