<?xml version="1.0" encoding="UTF-8" standalone="no"?>
<!-- Created with Inkscape (http://www.inkscape.org/) -->

<svg
   xmlns:dc="http://purl.org/dc/elements/1.1/"
   xmlns:cc="http://creativecommons.org/ns#"
   xmlns:rdf="http://www.w3.org/1999/02/22-rdf-syntax-ns#"
   xmlns:svg="http://www.w3.org/2000/svg"
   xmlns="http://www.w3.org/2000/svg"
   version="1.1"
   width="1500"
   height="1500"
   id="svg3891">
  <defs
     id="defs3893" />
  <metadata
     id="metadata3896">
    <rdf:RDF>
      <cc:Work
         rdf:about="">
        <dc:format>image/svg+xml</dc:format>
        <dc:type
           rdf:resource="http://purl.org/dc/dcmitype/StillImage" />
        <dc:title></dc:title>
      </cc:Work>
    </rdf:RDF>
  </metadata>
  <g
     transform="translate(-97.722172,547.14069)"
     id="layer1">
    <g
       transform="matrix(96.752895,0,0,96.752895,55.328158,-100816.34)"
       id="layer1-6">
      <path
         d="m 8.7407755,1040.0406 c 0,0.7088 0,1.4176 0,2.1265 -1.5939247,0 -3.1878494,0 -4.7817741,0 0,1.3385 0,2.6771 0,4.0157 1.5939247,0 3.1878494,0 4.7817741,0 0,0.7087 0,1.4175 0,2.1262 1.162238,-1.378 2.3244765,-2.756 3.4867145,-4.1341 -1.162238,-1.3781 -2.3244765,-2.7562 -3.4867145,-4.1343 z m 0.582468,1.5458 c 0.7199345,0.8562 1.4398675,1.7124 2.1598005,2.5686 -0.719933,0.8562 -1.439866,1.7124 -2.1598005,2.5686 0,-0.3854 0,-0.7708 0,-1.1563 -1.571248,0 -3.1424963,0 -4.7137447,0 0,-0.9346 0,-1.8692 0,-2.8038 1.5712484,0 3.1424967,0 4.7137447,0 0,-0.3923 0,-0.7847 0,-1.1771 z"
         id="path4481-5-4"
         style="font-size:medium;font-style:normal;font-variant:normal;font-weight:normal;font-stretch:normal;text-indent:0;text-align:start;text-decoration:none;line-height:normal;letter-spacing:normal;word-spacing:normal;text-transform:none;direction:ltr;block-progression:tb;writing-mode:lr-tb;text-anchor:start;baseline-shift:baseline;color:#000000;fill:#000000;fill-opacity:1;fill-rule:nonzero;stroke:none;visibility:visible;display:inline;overflow:visible;enable-background:accumulate;font-family:sans-serif" />
    </g>
  </g>
</svg>
