<?xml version="1.0" encoding="UTF-8" standalone="no"?>
<!-- Created with Inkscape (http://www.inkscape.org/) -->

<svg
   xmlns:dc="http://purl.org/dc/elements/1.1/"
   xmlns:cc="http://creativecommons.org/ns#"
   xmlns:rdf="http://www.w3.org/1999/02/22-rdf-syntax-ns#"
   xmlns:svg="http://www.w3.org/2000/svg"
   xmlns="http://www.w3.org/2000/svg"
   version="1.1"
   width="1000"
   height="1000"
   id="svg3891">
  <defs
     id="defs3893" />
  <metadata
     id="metadata3896">
    <rdf:RDF>
      <cc:Work
         rdf:about="">
        <dc:format>image/svg+xml</dc:format>
        <dc:type
           rdf:resource="http://purl.org/dc/dcmitype/StillImage" />
        <dc:title></dc:title>
      </cc:Work>
    </rdf:RDF>
  </metadata>
  <path
     d="m 491.54975,113.21091 c -171.52852,1.21202 -335.10028,113.88462 -398.318318,273.28516 -65.7902,155.80082 -29.419078,347.56962 88.884758,468.44142 115.0263,123.8297 304.55446,169.46411 463.30666,111.4277 166.3595,-56.6747 288.5728,-221.2307 292.9765,-397.1894 8.8625,-170.94524 -93.8743,-339.96923 -248.5585,-412.56644 -59.0266,-28.5789 -124.5452,-43.4576 -190.1172,-43.3711 -2.7264,-0.0372 -5.4512,-0.0466 -8.1739,-0.0273 z m 15.6426,79.97266 c 156.7062,0.70105 303.7146,116.51969 340.2578,269.17578 40.6988,149.01854 -27.8705,318.93594 -161.3613,397.01564 -136.3004,85.5433 -328.47043,62.7447 -440.39453,-53.1094 -118.11394,-113.9435 -139.14739,-311.08537 -48.53125,-447.73437 64.1785,-101.9465 182.05034,-166.46657 302.56058,-165.29297 2.4918,-0.0472 4.9813,-0.0658 7.4687,-0.0547 z m 105.9512,102.07226 c -39.9674,72.5091 -79.935,145.01824 -119.9024,217.52734 -37.03237,3.9378 -45.82998,60.12112 -11.6621,75.10552 22.5699,15.6663 40.2472,-10.3922 60.793,-9.4942 l 183.293,0 0,-50 -183.9375,0 c 38.4017,-69.66799 76.8034,-139.33589 115.2051,-209.00389 -14.5964,-8.0449 -29.1927,-16.08987 -43.7891,-24.13477 z"
     id="path4481"
     style="font-size:medium;font-style:normal;font-variant:normal;font-weight:normal;font-stretch:normal;text-indent:0;text-align:start;text-decoration:none;line-height:normal;letter-spacing:normal;word-spacing:normal;text-transform:none;direction:ltr;block-progression:tb;writing-mode:lr-tb;text-anchor:start;baseline-shift:baseline;color:#000000;fill:#000000;fill-opacity:1;fill-rule:nonzero;stroke:none;visibility:visible;display:inline;overflow:visible;enable-background:accumulate;font-family:sans-serif" />
</svg>
