<?xml version="1.0" encoding="UTF-8" standalone="no"?>
<svg
   xmlns:dc="http://purl.org/dc/elements/1.1/"
   xmlns:cc="http://creativecommons.org/ns#"
   xmlns:rdf="http://www.w3.org/1999/02/22-rdf-syntax-ns#"
   xmlns:svg="http://www.w3.org/2000/svg"
   xmlns="http://www.w3.org/2000/svg"
   xmlns:sodipodi="http://sodipodi.sourceforge.net/DTD/sodipodi-0.dtd"
   xmlns:inkscape="http://www.inkscape.org/namespaces/inkscape"
   width="717.75848"
   height="700.64001"
   id="svg3891"
   version="1.1"
   inkscape:version="0.48.2 r9819"
   sodipodi:docname="message.svg">
  <sodipodi:namedview
     pagecolor="#ffffff"
     bordercolor="#666666"
     borderopacity="1"
     objecttolerance="10"
     gridtolerance="10"
     guidetolerance="10"
     inkscape:pageopacity="0"
     inkscape:pageshadow="2"
     inkscape:window-width="640"
     inkscape:window-height="480"
     id="namedview4411"
     showgrid="false"
     fit-margin-top="0"
     fit-margin-left="0"
     fit-margin-right="0"
     fit-margin-bottom="0"
     inkscape:zoom="0.11523438"
     inkscape:cx="705.99788"
     inkscape:cy="267.98097"
     inkscape:window-x="0"
     inkscape:window-y="0"
     inkscape:window-maximized="0"
     inkscape:current-layer="svg3891" />
  <defs
     id="defs3893" />
  <metadata
     id="metadata3896">
    <rdf:RDF>
      <cc:Work
         rdf:about="">
        <dc:format>image/svg+xml</dc:format>
        <dc:type
           rdf:resource="http://purl.org/dc/dcmitype/StillImage" />
        <dc:title></dc:title>
      </cc:Work>
    </rdf:RDF>
  </metadata>
  <path
     id="path4481"
     d="m 0,155.99997 c 0,213.36589 8.677966,331.27411 8.677966,544.64001 279.750004,0 420.652544,0 700.402544,0 0,-213.3659 8.67797,-322.59615 8.67797,-535.96204 -279.75,0 -438.00848,-8.67797 -717.75848,-8.67797 z m 125.68783,56.61408 c 155.43814,0 310.87631,0 466.31441,0 -82.5961,50.82447 -165.1995,162.39825 -247.7853,174.57169 C 271.37659,328.99182 198.53197,270.80323 125.68783,212.61405 z m 535.58158,6.80525 c 0,127.07227 0,297.53431 0,424.60661 -213.1641,0 -382.9383,0 -596.102365,0 0,-127.0625 0,-297.51482 0,-424.57732 C 171.71782,304.60095 243.55192,372.40335 350.10747,457.54975 456.72557,372.39355 554.65611,304.5814 661.26941,219.4193 z"
     inkscape:connector-curvature="0"
     sodipodi:nodetypes="ccccccccccccccc" />
</svg>
