<?xml version="1.0" encoding="UTF-8" standalone="no"?>
<!-- Created with Inkscape (http://www.inkscape.org/) -->

<svg
   xmlns:dc="http://purl.org/dc/elements/1.1/"
   xmlns:cc="http://creativecommons.org/ns#"
   xmlns:rdf="http://www.w3.org/1999/02/22-rdf-syntax-ns#"
   xmlns:svg="http://www.w3.org/2000/svg"
   xmlns="http://www.w3.org/2000/svg"
   version="1.1"
   width="812.28918"
   height="812.48224"
   id="svg3891">
  <defs
     id="defs3893" />
  <metadata
     id="metadata3896">
    <rdf:RDF>
      <cc:Work
         rdf:about="">
        <dc:format>image/svg+xml</dc:format>
        <dc:type
           rdf:resource="http://purl.org/dc/dcmitype/StillImage" />
        <dc:title></dc:title>
      </cc:Work>
    </rdf:RDF>
  </metadata>
  <g
     transform="translate(-617.85776,377.87139)"
     id="layer1">
    <g
       transform="matrix(96.752895,0,0,96.752895,55.328158,-100816.34)"
       id="layer1-6">
      <path
         d="m 1005.0781,617.76172 0,0.41601 c 0,0.01 -8.36696,1.54883 -8.37112,1.54883 -0.01,0 -6.8522,4.64453 -6.85742,4.64453 -0.01,0 -4.76342,7.0625 -4.76758,7.0625 0,0.01 -1.61028,8.41797 -1.61328,8.41797 l 0,286.24219 -202.64063,-202.63867 0.01,0 c -0.01,0 -7.19583,-4.64453 -7.19922,-4.64453 -0.012,0 -8.01684,-1.62688 -8.07813,-1.63867 -0.0775,0.0122 -8.31518,1.54296 -8.31836,1.54296 -0.01,-0.01 -7.06584,4.74024 -7.06835,4.74024 l -26.63282,26.61719 c 0,0 -4.86045,7.16015 -4.86133,7.16015 -0.01,0 -1.5041,8.22266 -1.5039,8.22266 2e-4,0.01 1.61378,8.12695 1.61523,8.12695 2.1e-4,0.01 4.61243,7.16016 4.61524,7.16016 l 202.53906,202.54297 -286.45703,0 -0.0566,-0.0684 c 0,0.01 -8.33159,1.83789 -8.33594,1.83789 -0.01,0.01 -6.85092,4.64453 -6.85547,4.64453 l 0,-0.0488 c -0.01,0.01 -4.76313,7.06445 -4.76758,7.06445 -0.01,0 -1.61194,8.41607 -1.61523,8.41607 l 0,37.666 c 0,0 1.60063,8.5156 1.6582,8.5156 0,0.019 4.74561,6.8691 4.7461,6.8691 0.01,0 6.89425,4.6446 6.89648,4.6446 0.01,0.019 8.36732,1.8379 8.37109,1.8379 l 286.35938,0 -202.36719,202.3671 0,-0.076 c -0.01,0.01 -4.86007,7.1601 -4.86133,7.1601 -0.01,0.01 -1.50586,8.2227 -1.50586,8.2227 2.1e-4,0.019 1.61603,8.1269 1.61719,8.1269 0,0 4.63062,7.1602 4.61524,7.1602 l 26.63671,26.6172 c 0.01,0.01 7.27806,4.7402 7.28125,4.7402 0,0 8.10404,1.6446 8.10743,1.6446 0.012,0 8.21254,-1.5469 8.21679,-1.5469 0,0 7.17132,-4.8379 7.17383,-4.8379 l 202.66797,-202.668 0,286.8613 -0.0527,-0.057 c 0,0.01 1.66004,8.5137 1.6582,8.5137 0,0.01 4.74414,6.8691 4.74414,6.8691 0.01,0.01 6.89474,4.6445 6.89648,4.6445 0,0 8.30856,1.7412 8.37106,1.8379 l 37.6543,-0.01 c 0.01,0 8.5313,-1.7403 8.5371,-1.7403 0,0 6.8507,-4.6445 6.8555,-4.6445 0.01,-0.01 4.7413,-6.8691 4.7461,-6.8691 0,0 1.6329,-8.5157 1.6367,-8.5157 l 0,-286.6972 202.5235,202.5136 c -0.01,0.019 7.2754,4.7403 7.2793,4.7403 0.01,0.01 8.1064,1.5488 8.1093,1.5488 0.012,0 8.212,-1.5488 8.2168,-1.5488 0,0 7.171,-4.8379 7.1758,-4.8379 l 26.625,-26.6348 c 0.01,0 4.7193,-7.0644 4.7793,-7.0644 -2e-4,-0.019 1.6403,-8.3193 1.5996,-8.416 -2e-4,-0.01 -1.6172,-8.1289 -1.6191,-8.1289 -0.012,0.01 -4.7135,-7.2559 -4.7754,-7.2559 l -202.0156,-202.0293 285.957,0 c 0.01,0.01 8.5313,-1.7422 8.5351,-1.7422 0.01,0 6.8526,-4.6445 6.8555,-4.6445 0.01,-0.019 4.7403,-6.8692 4.7461,-6.8692 0,0 1.6329,-8.5136 1.6367,-8.5136 l 0,-37.6563 c 0,-0.01 -1.6259,-8.32121 -1.623,-8.41796 -0.01,-0.01 -4.7213,-7.0625 -4.7793,-7.0625 -0.01,-0.01 -6.8955,-4.64453 -6.8984,-4.64453 0,0.01 -8.5079,-1.83699 -8.5118,-1.74024 l -286.8242,0 202.9258,-202.91992 c 0.01,-0.01 4.7174,-7.06445 4.7773,-7.06445 -2e-4,-0.0194 1.6426,-8.32032 1.6426,-8.32032 -2e-4,-0.01 -1.6162,-8.12695 -1.6172,-8.12695 -0.01,-0.01 -4.8457,-7.16016 -4.8476,-7.16016 L 1297.76,723.13416 c -0.01,0 -7.042,-4.74024 -7.0449,-4.74024 -0.01,-0.01 -8.1065,-1.54687 -8.1113,-1.54687 -0.012,0 -8.3467,1.54687 -8.3496,1.54687 -0.01,0.01 -7.0665,4.74024 -7.0684,4.74024 l -202.6719,202.66992 0,-286.26367 c 0,-0.01 -1.6259,-8.32122 -1.623,-8.41797 -0.01,-0.0194 -4.7207,-7.0625 -4.7207,-7.0625 -0.01,-0.01 -6.8946,-4.64453 -6.8965,-4.64453 -0.01,0 -8.5313,-1.64454 -8.5332,-1.64454 z m -239.51951,99.41016 c 3.1e-4,-5e-5 0.0332,-0.006 0.0332,-0.006 l -0.0625,0 c 1e-5,0 0.0291,0.006 0.0293,0.006 z"
         transform="matrix(0.01033561,0,0,0.01033561,-0.57185015,1031.7077)"
         id="rect3092"
         style="font-size:medium;font-style:normal;font-variant:normal;font-weight:normal;font-stretch:normal;text-indent:0;text-align:start;text-decoration:none;line-height:normal;letter-spacing:normal;word-spacing:normal;text-transform:none;direction:ltr;block-progression:tb;writing-mode:lr-tb;text-anchor:start;baseline-shift:baseline;color:#000000;fill:#000000;fill-opacity:1;fill-rule:nonzero;stroke:none;visibility:visible;display:inline;overflow:visible;enable-background:accumulate;font-family:sans-serif" />
    </g>
  </g>
</svg>
