<?xml version="1.0" encoding="UTF-8" standalone="no"?>
<!-- Created with Inkscape (http://www.inkscape.org/) -->

<svg
   xmlns:dc="http://purl.org/dc/elements/1.1/"
   xmlns:cc="http://creativecommons.org/ns#"
   xmlns:rdf="http://www.w3.org/1999/02/22-rdf-syntax-ns#"
   xmlns:svg="http://www.w3.org/2000/svg"
   xmlns="http://www.w3.org/2000/svg"
   version="1.1"
   width="860.00018"
   height="860.00793"
   id="svg3891">
  <defs
     id="defs3893" />
  <metadata
     id="metadata3896">
    <rdf:RDF>
      <cc:Work
         rdf:about="">
        <dc:format>image/svg+xml</dc:format>
        <dc:type
           rdf:resource="http://purl.org/dc/dcmitype/StillImage" />
        <dc:title></dc:title>
      </cc:Work>
    </rdf:RDF>
  </metadata>
  <g
     transform="translate(-594.00011,401.63312)"
     id="layer1">
    <g
       transform="matrix(96.752895,0,0,96.752895,55.328158,-100816.34)"
       id="layer1-6">
      <path
         d="m 1024,594 c -237.23182,0 -430,192.77939 -430,430.0078 0,237.2284 192.76818,430 430,430 237.2318,0 430,-192.7716 430,-430 C 1454,786.77939 1261.2318,594 1024,594 z m 0,47.68945 c 211.4073,0 382.3223,170.91329 382.3223,382.31835 0,211.4051 -170.915,382.3301 -382.3223,382.3301 -211.40721,0 -382.32227,-170.925 -382.32227,-382.3301 0,-211.40506 170.91506,-382.31835 382.32227,-382.31835 z"
         transform="matrix(0.01033561,0,0,0.01033561,-0.57185015,1031.7077)"
         id="rect3092"
         style="font-size:medium;font-style:normal;font-variant:normal;font-weight:normal;font-stretch:normal;text-indent:0;text-align:start;text-decoration:none;line-height:normal;letter-spacing:normal;word-spacing:normal;text-transform:none;direction:ltr;block-progression:tb;writing-mode:lr-tb;text-anchor:start;baseline-shift:baseline;color:#000000;fill:#000000;fill-opacity:1;fill-rule:nonzero;stroke:none;visibility:visible;display:inline;overflow:visible;enable-background:accumulate;font-family:sans-serif" />
    </g>
  </g>
</svg>
