<?xml version="1.0" encoding="UTF-8" standalone="no"?>
<!-- Created with Inkscape (http://www.inkscape.org/) -->

<svg
   xmlns:dc="http://purl.org/dc/elements/1.1/"
   xmlns:cc="http://creativecommons.org/ns#"
   xmlns:rdf="http://www.w3.org/1999/02/22-rdf-syntax-ns#"
   xmlns:svg="http://www.w3.org/2000/svg"
   xmlns="http://www.w3.org/2000/svg"
   version="1.1"
   width="937.547"
   height="937.55457"
   id="svg3891">
  <defs
     id="defs3893" />
  <metadata
     id="metadata3896">
    <rdf:RDF>
      <cc:Work
         rdf:about="">
        <dc:format>image/svg+xml</dc:format>
        <dc:type
           rdf:resource="http://purl.org/dc/dcmitype/StillImage" />
        <dc:title></dc:title>
      </cc:Work>
    </rdf:RDF>
  </metadata>
  <g
     transform="translate(-555.22687,440.41243)"
     id="layer1">
    <g
       transform="matrix(96.752895,0,0,96.752895,55.328158,-100816.34)"
       id="layer1-6">
      <path
         d="m 1002.1543,555.2207 c 0,0.01 -9.65727,1.83789 -9.66211,1.83789 -0.01,0 -7.90826,5.32227 -7.91407,5.32227 -0.01,0.01 -5.49711,8.12695 -5.50195,8.12695 0,0.01 -1.85941,9.67578 -1.86328,9.67578 l 0,396.85157 -397.02539,0 -0.0664,-0.0781 c 0,0.01 -9.61821,2.12891 -9.62304,2.12891 -0.01,0.01 -7.90727,5.32226 -7.91211,5.32226 l 0.008,-0.0976 c -0.01,0.01 -5.49712,8.12695 -5.50195,8.12695 -0.01,0 -1.86137,9.67582 -1.86524,9.67582 l 0,43.4707 c 0,0 1.84827,9.7819 1.91406,9.8496 0,0.01 5.47852,7.9336 5.47852,7.9336 0.0101,0.01 7.95705,5.3223 7.95898,5.3223 0.01,0.01 9.65629,2.1269 9.66016,2.1269 l 396.97852,0 0,396.7852 -0.0625,-0.059 c 0,0.01 1.91599,9.8496 1.91406,9.8496 0,0.01 5.47656,7.9336 5.47656,7.9336 0.0101,0.01 7.959,5.3203 7.96094,5.3203 0,0 9.59054,2.0321 9.66214,2.1289 l 43.4609,-0.01 c 0.011,0 9.8463,-2.0312 9.8516,-2.0312 0,0 7.9082,-5.3203 7.914,-5.3203 0.01,-0.01 5.4708,-7.9356 5.4766,-7.9356 0,0 1.8867,-9.8203 1.8906,-9.8203 l 0,-396.8027 396.8789,0 c 0.011,0.01 9.8467,-2.0313 9.8516,-2.0313 0.01,0 7.9092,-5.3222 7.914,-5.3222 0.01,-0.01 5.4708,-7.9336 5.4766,-7.9336 0,0 1.8858,-9.8204 1.8906,-9.8204 l 0,-43.4609 c 0,-0.01 -1.8779,-9.57904 -1.875,-9.67579 -0.01,-0.01 -5.4498,-8.12695 -5.5175,-8.12695 -0.01,-0.01 -7.9581,-5.32032 -7.961,-5.32032 0,0.01 -9.8194,-2.12995 -9.8242,-2.0332 l -396.8379,0 0,-396.8418 c 0,-0.01 -1.8779,-9.57707 -1.875,-9.67383 -0.01,-0.01 -5.4492,-8.1289 -5.4492,-8.1289 -0.01,-0.01 -7.9571,-5.32031 -7.959,-5.32031 -0.01,0 -9.8474,-1.93555 -9.8516,-1.93555 z"
         transform="matrix(0.01033561,0,0,0.01033561,-0.57185015,1031.7077)"
         id="rect3092"
         style="font-size:medium;font-style:normal;font-variant:normal;font-weight:normal;font-stretch:normal;text-indent:0;text-align:start;text-decoration:none;line-height:normal;letter-spacing:normal;word-spacing:normal;text-transform:none;direction:ltr;block-progression:tb;writing-mode:lr-tb;text-anchor:start;baseline-shift:baseline;color:#000000;fill:#000000;fill-opacity:1;fill-rule:nonzero;stroke:none;visibility:visible;display:inline;overflow:visible;enable-background:accumulate;font-family:sans-serif" />
    </g>
  </g>
</svg>
