<?xml version="1.0" encoding="UTF-8" standalone="no"?>
<!-- Created with Inkscape (http://www.inkscape.org/) -->

<svg
   xmlns:dc="http://purl.org/dc/elements/1.1/"
   xmlns:cc="http://creativecommons.org/ns#"
   xmlns:rdf="http://www.w3.org/1999/02/22-rdf-syntax-ns#"
   xmlns:svg="http://www.w3.org/2000/svg"
   xmlns="http://www.w3.org/2000/svg"
   version="1.1"
   width="981.37207"
   height="769.73608"
   viewBox="0 0 981.37207 769.73608"
   id="svg2">
  <defs
     id="defs4" />
  <metadata
     id="metadata7">
    <rdf:RDF>
      <cc:Work
         rdf:about="">
        <dc:format>image/svg+xml</dc:format>
        <dc:type
           rdf:resource="http://purl.org/dc/dcmitype/StillImage" />
        <dc:title></dc:title>
        <cc:license
           rdf:resource="https://github.com/bpmn-io/bpmn-font/blob/master/LICENSE" />
        <dc:creator>
          <cc:Agent>
            <dc:title>Jörg Dotzki</dc:title>
          </cc:Agent>
        </dc:creator>
        <dc:subject>
          <rdf:Bag>
            <rdf:li>BPMN</rdf:li>
            <rdf:li>bpmn-io</rdf:li>
            <rdf:li>bpmn.io</rdf:li>
            <rdf:li>Font</rdf:li>
          </rdf:Bag>
        </dc:subject>
      </cc:Work>
    </rdf:RDF>
  </metadata>
  <g
     transform="translate(-256.4184,537.98541)"
     id="layer1">
    <path
       d="m 695.49414,409.66797 c -13.39574,0.32208 -25.80322,5.36295 -36.43555,12.21875 l -0.0176,0.0117 -0.0176,0.0117 C 599.9566,460.15923 397.74821,600.48895 353.29883,630.99805 l -0.002,0.002 -0.002,0 c -40.15266,27.56805 -67.19996,69.17719 -82.75,118.47461 l -0.002,0.01 -0.002,0.008 c -16.18824,51.4705 -14.11161,107.53949 -13.95508,154.49804 l 0.002,0.0137 0,0.0117 c 0.15894,35.35859 1.001,66.21493 10.17188,103.6367 6.2e-4,0 0.003,0.01 0.004,0.01 13.25657,54.4603 38.10466,97.7532 73.88281,127.084 35.77666,29.3296 81.74294,43.8716 133.70899,44.0332 182.31672,0.6844 364.74146,0.9292 547.15627,0 l 0.016,0 0.016,0 c 19.6375,-0.1288 38.6829,-7.644 50.9062,-22.1758 12.2224,-14.5307 17.1798,-33.6885 17.4375,-54.8672 0.1722,-13.4811 -1.6209,-26.1934 -5.8379,-37.539 l 19.6035,0 c 20.1422,0 38.4971,-6.6026 51.1426,-18.9453 12.6413,-12.3386 19.0251,-28.4813 22.4375,-45.25788 3e-4,-10e-4 -2e-4,-0.003 0,-0.004 4.9473,-24.23919 2.3279,-48.32773 -7.5781,-68.52343 22.7684,-2.27725 41.9265,-14.63427 52.625,-31.29883 11.7772,-18.3447 15.4421,-39.97549 15.5098,-61.49805 0.071,-22.47833 -5.314,-44.29739 -17.6153,-61.98828 -12.3012,-17.69089 -33.2618,-30.67067 -57.4746,-30.70508 l -0.01,0 -0.01,0 c -8.835,-0.007 -18.3255,-0.0349 -28.6406,-0.0469 6.4993,-14.19039 9.3369,-30.23737 9.2851,-46.84571 l 0,-0.0352 0,-0.0371 c -0.1421,-22.31858 -5.8991,-43.21469 -18.9746,-59.30274 -13.0752,-16.08776 -33.8563,-25.83753 -56.5762,-25.83789 -136.34709,-0.24436 -254.15236,1.057 -384.70312,0.70313 -4.75835,-0.014 -7.23386,-0.062 -11.4375,-0.084 6.16194,-6.19657 12.15647,-12.24923 18.74024,-18.79687 20.26075,-20.14956 39.7335,-39.13715 49.79297,-52.1543 24.04936,-30.95283 27.63893,-72.88917 7.39258,-103.73633 -10.67442,-16.30735 -26.32848,-27.34017 -43.13477,-29.63671 -2.10145,-0.28716 -4.18335,-0.44929 -6.24414,-0.49805 -0.9016,-0.0213 -1.80031,-0.0215 -2.69336,0 z m 1.68555,43.66406 c 0.47909,0.005 0.92618,0.0392 1.33984,0.0957 3.30925,0.4522 6.8528,1.63351 12.51953,10.29493 l 0.01,0.0176 0.01,0.0156 c 7.91668,12.05514 7.56693,36.36726 -5.3789,53.01367 l -0.0215,0.0293 -0.0215,0.0273 c -4.70726,6.09405 -25.85704,27.8311 -46.04492,47.90821 -20.1879,20.0771 -39.38105,38.60748 -48.87696,50.17578 -9.19496,11.20172 -5.74708,20.31685 -3.33593,26.11328 2.41114,5.79642 5.05791,12.72532 17.88867,15.77344 3.75284,0.89151 3.95955,0.63571 5.16211,0.71874 1.20255,0.083 2.4462,0.13998 3.9082,0.19336 145.74499,1.65188 299.16752,-0.25155 433.40427,-0.17382 l 0.02,0 0.019,0 c 11.581,0 17.5407,3.37544 22.6915,9.71289 5.147,6.33297 9.0952,17.14961 9.1953,32.01172 0.041,15.42815 -3.8972,27.98599 -9.291,35.39453 -5.3983,7.41456 -10.9988,10.92704 -22.2598,10.95898 -102.31984,-0.0547 -204.63934,-0.27833 -306.95896,-0.51758 l 0,43.86524 c 133.8269,0.21333 267.65356,0.5556 401.48046,0.67968 10.1674,0.0145 15.9103,3.66039 21.6875,11.96876 5.7771,8.30836 9.8466,21.86109 9.7988,36.92187 l 0,0.002 c -0.051,16.11428 -3.4929,30.10758 -8.5898,38.04688 -5.097,7.93929 -9.7577,11.6192 -23.1329,11.71094 -139.1349,-0.0583 -273.22726,-0.3578 -401.24601,-0.19336 l 0,43.83984 c 114.25945,0.004 228.51814,0.16462 342.77731,0.0449 11.6128,0.30295 18.9308,5.39886 24.918,15.54883 6.1567,10.43751 9.1047,26.55943 5.5996,43.73047 l 0,0.01 0,0.008 c -2.3514,11.56719 -6.1175,18.78829 -10.1524,22.72659 -4.0349,3.9383 -8.8914,6.5273 -20.6426,6.5273 l -342.56046,0 c 0.0424,14.6801 0.0883,29.361 0.13282,44.041 86.66175,0.032 173.32711,-0.5961 259.98434,-0.062 l 0.01,0 0.01,0 c 9.7538,0.064 13.9349,2.49 17.8125,7.3789 3.8776,4.889 7.3879,14.3123 7.1953,29.2949 l 0,0.01 0,0.01 c -0.1771,14.5988 -3.6476,23.0815 -7.1933,27.2968 -3.5437,4.2129 -7.6095,6.5479 -17.7598,6.6172 -182.22213,0.9282 -364.51271,0.6842 -546.75387,0 l -0.008,0 -0.008,0 c -44.10818,-0.1346 -78.95518,-11.8165 -106.18165,-34.1367 -27.22646,-22.3201 -47.57067,-56.1048 -59.14257,-103.65037 l -0.006,-0.0176 -0.004,-0.0195 c -8.02801,-32.74318 -8.769,-58.64094 -8.92578,-93.44727 l 0,-0.0254 c -0.15947,-47.76219 -1.07527,-99.83224 11.94336,-141.22461 13.34354,-42.29217 34.92301,-74.38541 65.81445,-95.5957 l 0.002,-0.002 C 422.99868,636.11665 626.41263,495.04961 682.7207,458.58398 l 0.002,-0.002 c 5.28709,-3.40872 9.66808,-4.85905 12.92382,-5.17969 0.54272,-0.0534 1.05411,-0.0756 1.53321,-0.0703 z"
       transform="translate(0,-947.63784)"
       id="rect4187"
       style="font-size:medium;font-style:normal;font-variant:normal;font-weight:normal;font-stretch:normal;text-indent:0;text-align:start;text-decoration:none;line-height:normal;letter-spacing:normal;word-spacing:normal;text-transform:none;direction:ltr;block-progression:tb;writing-mode:lr-tb;text-anchor:start;baseline-shift:baseline;color:#000000;fill:#000000;fill-opacity:1;fill-rule:nonzero;stroke:none;visibility:visible;display:inline;overflow:visible;enable-background:accumulate;font-family:sans-serif" />
    <g
       transform="matrix(0.62376697,0,0,0.62376697,123.3598,-185.77569)"
       id="layer1-9" />
  </g>
</svg>
