<?xml version="1.0" encoding="UTF-8" standalone="no"?>
<!-- Created with Inkscape (http://www.inkscape.org/) -->

<svg
   xmlns:dc="http://purl.org/dc/elements/1.1/"
   xmlns:cc="http://creativecommons.org/ns#"
   xmlns:rdf="http://www.w3.org/1999/02/22-rdf-syntax-ns#"
   xmlns:svg="http://www.w3.org/2000/svg"
   xmlns="http://www.w3.org/2000/svg"
   version="1.1"
   width="739.86731"
   height="696.82452"
   viewBox="0 0 739.86731 696.82452"
   id="svg2">
  <defs
     id="defs4" />
  <metadata
     id="metadata7">
    <rdf:RDF>
      <cc:Work
         rdf:about="">
        <dc:format>image/svg+xml</dc:format>
        <dc:type
           rdf:resource="http://purl.org/dc/dcmitype/StillImage" />
        <dc:title></dc:title>
        <cc:license
           rdf:resource="https://github.com/bpmn-io/bpmn-font/blob/master/LICENSE" />
        <dc:creator>
          <cc:Agent>
            <dc:title>Jörg Dotzki</dc:title>
          </cc:Agent>
        </dc:creator>
        <dc:subject>
          <rdf:Bag>
            <rdf:li>BPMN</rdf:li>
            <rdf:li>bpmn-io</rdf:li>
            <rdf:li>bpmn.io</rdf:li>
            <rdf:li>Font</rdf:li>
          </rdf:Bag>
        </dc:subject>
      </cc:Work>
    </rdf:RDF>
  </metadata>
  <g
     transform="translate(-381.48633,433.04824)"
     id="layer1">
    <path
       d="m 609.02539,514.59375 -4.62695,2.74805 -1.51172,0.89648 c -65.42017,38.76909 -110.44116,74.32034 -140.16016,109.03516 -29.76015,34.76286 -44.14948,69.76512 -44.55859,103.50781 -0.81416,67.15047 48.71676,117.47208 92.66211,162.47852 43.91192,44.97215 83.08282,87.38448 86.76953,122.48433 1.87909,17.8903 -2.35053,35.8588 -21.85742,60.4629 -19.42482,24.5007 -54.67916,53.8468 -111.04297,86.7032 l -83.21289,48.5039 513.57031,0 6.07813,-3.5352 0.006,-0.01 c 59.73132,-34.8195 99.97333,-66.9878 125.61533,-99.33 25.7183,-32.4387 36.1804,-66.3775 32.8339,-98.2383 -6.6307,-63.1295 -58.0554,-109.13068 -101.28907,-153.40822 -43.26718,-44.31189 -78.33879,-86.10665 -77.86133,-125.48632 0.24109,-19.88014 7.8822,-42.05777 32.05078,-70.28907 24.12719,-28.18307 64.80779,-61.15655 127.17192,-98.11328 l 0,-0.002 81.6914,-48.41211 z m 14.47461,52.04687 316.2832,0 c -27.85557,20.76926 -49.88108,40.8347 -66.83008,60.63282 -29.76012,34.76286 -44.14751,69.76511 -44.55664,103.50781 -0.81411,67.15104 48.71894,117.47234 92.66407,162.47852 43.91168,44.97187 83.07885,87.38381 86.76565,122.48433 1.8791,17.8904 -2.3487,35.8588 -21.8555,60.4629 -18.70677,23.5949 -52.34894,51.7499 -105.18945,83.1602 l -317.0918,0 c 21.99697,-17.1554 39.47182,-33.9655 52.83789,-50.8242 25.71836,-32.4387 36.18243,-66.3756 32.83594,-98.2364 C 642.7325,947.1772 591.30589,901.17402 548.07227,856.89648 504.8051,812.5846 469.73545,770.7918 470.21289,731.41211 c 0.24104,-19.8801 7.88224,-42.05776 32.05078,-70.28906 23.31699,-27.2366 62.32854,-59.01093 121.23633,-94.48243 z m -74.00586,88.76954 0,24.04101 247.24609,0 0,-24.04101 z m -9.1875,129.49218 0,24.04102 255.64063,0 0,-24.04102 z m 115.83398,129.48828 0,24.04102 247.57813,0 0,-24.04102 z m 35.4004,129.49218 0,24.0391 256.53906,0 0,-24.0391 z"
       transform="translate(0,-947.63784)"
       id="rect4187"
       style="font-size:medium;font-style:normal;font-variant:normal;font-weight:normal;font-stretch:normal;text-indent:0;text-align:start;text-decoration:none;line-height:normal;letter-spacing:normal;word-spacing:normal;text-transform:none;direction:ltr;block-progression:tb;writing-mode:lr-tb;text-anchor:start;baseline-shift:baseline;color:#000000;fill:#000000;fill-opacity:1;fill-rule:nonzero;stroke:none;visibility:visible;display:inline;overflow:visible;enable-background:accumulate;font-family:sans-serif" />
    <g
       transform="matrix(0.56014517,0,0,0.56014517,183.64582,-644.77878)"
       id="g4145">
      <g
         transform="translate(0,947.63784)"
         id="layer1-9"
         style="display:inline" />
      <g
         id="layer3"
         style="display:inline" />
    </g>
  </g>
</svg>
