<?xml version="1.0" encoding="UTF-8" standalone="no"?>
<!-- Created with Inkscape (http://www.inkscape.org/) -->

<svg
   version="1.1"
   id="svg2"
   xml:space="preserve"
   width="718.02051"
   height="355.82703"
   viewBox="0 0 718.02053 355.82704"
   sodipodi:docname="omny-link.svg"
   inkscape:version="1.1.1 (3bf5ae0d25, 2021-09-20)"
   xmlns:inkscape="http://www.inkscape.org/namespaces/inkscape"
   xmlns:sodipodi="http://sodipodi.sourceforge.net/DTD/sodipodi-0.dtd"
   xmlns="http://www.w3.org/2000/svg"
   xmlns:svg="http://www.w3.org/2000/svg"><sodipodi:namedview
     id="namedview49"
     pagecolor="#ffffff"
     bordercolor="#666666"
     borderopacity="1.0"
     inkscape:pageshadow="2"
     inkscape:pageopacity="0.0"
     inkscape:pagecheckerboard="0"
     showgrid="false"
     fit-margin-top="50"
     fit-margin-left="50"
     fit-margin-bottom="50"
     fit-margin-right="50"
     inkscape:zoom="0.47625003"
     inkscape:cx="49.343829"
     inkscape:cy="-360.10496"
     inkscape:window-width="1920"
     inkscape:window-height="991"
     inkscape:window-x="0"
     inkscape:window-y="28"
     inkscape:window-maximized="1"
     inkscape:current-layer="svg2" /><defs
     id="defs6"><clipPath
       clipPathUnits="userSpaceOnUse"
       id="clipPath16"><path
         d="M 0,1000 H 1000 V 0 H 0 Z"
         id="path14" /></clipPath></defs><g
     id="g8"
     transform="matrix(1.3333333,0,0,-1.3333333,-282.9024,840.41328)"><g
       id="g10"><g
         id="g12"
         clip-path="url(#clipPath16)"><g
           id="g18"
           transform="translate(334.4474,590.8256)"><path
             d="M 0,0 C 1.075,-0.175 2.762,-0.275 4.339,-0.743 7.475,-1.675 8.178,-4.258 6.006,-6.76 5.23,-7.654 4.221,-8.393 3.206,-9.021 c -1.657,-1.024 -3.413,-1.887 -5.116,-2.837 -9.367,-5.224 -9.884,-14.644 -0.989,-20.635 5.096,-3.433 10.696,-4.507 16.708,-2.424 2.886,1 5.798,1.99 8.772,2.662 6.39,1.445 13.976,-2.69 16.416,-8.753 3.169,-7.874 -2.443,-16.432 -11.065,-16.944 -6.71,-0.399 -11.938,2.208 -15.735,7.675 -8.073,11.623 -26.329,9.474 -33.088,-3.057 -2.832,-5.249 -3.105,-10.67 -0.735,-16.075 2.118,-4.831 2.714,-9.59 0.587,-14.531 -2.668,-6.199 -8.519,-9.569 -14.984,-8.617 -5.282,0.777 -9.777,5.987 -10.018,12.474 -0.2,5.362 1.98,9.97 6.374,13.294 4.799,3.63 8.635,7.952 9.878,14.03 1.216,5.945 -0.763,10.873 -5.558,14.446 -4.096,3.052 -8.453,1.97 -12.61,-0.125 -2.885,-1.454 -5.562,-3.389 -8.55,-4.548 -3.286,-1.274 -5.158,0.509 -4.827,4.057 0.503,5.4 8.175,13.895 13.537,14.629 1.223,0.167 3.234,-0.467 3.81,-1.397 2.576,-4.159 6.484,-4.602 10.523,-3.893 6.915,1.215 12.745,4.546 16.842,10.429 2.067,2.967 3.076,6.129 1.046,9.616 -1.075,1.847 -0.352,3.384 1.077,4.712 C -10.57,-1.182 -5.694,-0.328 0,0"
             style="fill:#0e99cd;fill-opacity:1;fill-rule:nonzero;stroke:none"
             id="path20" /></g><g
           id="g22"
           transform="translate(427.8513,467.761)"><path
             d="m 0,0 c -0.116,2.13 0.071,4.33 -0.4,6.378 -1.753,7.616 -9.843,10.631 -17.028,6.557 -6.614,-3.749 -9.24,-9.748 -10.155,-16.954 -0.82,-6.46 -4.191,-11.225 -10.403,-13.678 -4.847,-1.914 -9.359,-1.247 -13.216,2.278 -3.999,3.654 -4.721,8.377 -3.209,13.304 2.288,7.455 7.929,10.981 15.364,11.72 10.377,1.032 16.543,10.094 16.509,19.541 -0.037,10.134 -7.159,17.909 -17.107,19.113 -8.977,1.086 -15.194,7.465 -15.201,15.596 -0.008,8.646 7.739,14.415 16.035,11.941 6.084,-1.814 10.234,-7.271 11.389,-13.521 0.759,-4.107 2.259,-8.21 4.167,-11.935 2.259,-4.411 6.587,-6.445 11.386,-7.146 6.056,-0.883 11.374,3.797 11.725,10.255 0.142,2.595 -0.086,5.209 0.006,7.809 0.051,1.463 0.173,3.004 0.679,4.354 1.116,2.981 3.523,3.561 5.929,1.453 3.585,-3.141 5.28,-7.371 6.135,-11.906 0.37,-1.961 0.266,-4.06 0.076,-6.068 C 12.433,46.476 11.1,44.882 8.155,44.888 5.517,44.894 3.686,43.283 2.259,41.198 -2.01,34.961 -2.084,23.075 2.096,16.751 c 1.569,-2.375 3.618,-4.03 6.589,-4.07 2.572,-0.035 3.656,-1.581 3.986,-3.805 1.023,-6.914 -1.266,-12.85 -5.857,-17.869 -2.412,-2.636 -5.266,-1.849 -6.419,1.541 -0.406,1.196 -0.438,2.537 -0.527,3.82 -0.084,1.203 -0.018,2.417 -0.018,3.626 C -0.1,-0.004 -0.05,-0.002 0,0"
             style="fill:#939598;fill-opacity:1;fill-rule:nonzero;stroke:none"
             id="path24" /></g><g
           id="g26"
           transform="translate(331.5108,445.3824)"><path
             d="m 0,0 c 6.761,-0.315 11.746,2.783 15.635,8.061 3.854,5.23 9.085,7.747 15.504,6.796 6.635,-0.983 11.08,-5.941 11.181,-11.696 0.107,-6.11 -4.743,-11.709 -11.17,-13.233 -3.629,-0.86 -6.983,-0.316 -10.319,1.075 -4.909,2.046 -9.929,2.99 -15.231,1.694 -4.83,-1.181 -8.228,-4.401 -10.902,-8.214 -2.489,-3.55 -1.82,-8.301 1.481,-11.496 2.224,-2.152 5.108,-3.615 7.655,-5.444 1.786,-1.282 3.78,-2.426 5.174,-4.063 1.586,-1.862 0.891,-3.623 -1.311,-4.725 -4.736,-2.37 -16.221,-0.068 -19.535,4.129 -0.732,0.927 -1.241,2.839 -0.78,3.764 2.432,4.882 0.475,8.704 -2.636,12.184 -4.579,5.122 -10.404,8.07 -17.249,8.735 -3.303,0.321 -6.352,-0.604 -8.284,-3.555 -1.478,-2.256 -3.516,-2.492 -5.601,-1.575 -6.246,2.746 -10.285,7.554 -12.005,14.137 -0.739,2.826 1.734,4.841 4.678,3.698 2.656,-1.031 5.027,-2.775 7.614,-4.015 1.98,-0.95 4.039,-1.948 6.17,-2.331 8.324,-1.493 14.995,7.536 13.403,15.568 -1.071,5.409 -3.584,9.633 -7.942,12.954 -4.058,3.092 -7.23,6.717 -8.296,12.097 -1.198,6.046 2.73,12.737 7.299,14.586 5.568,2.253 11.982,0.236 15.573,-5.191 3.407,-5.148 3.598,-10.69 1.142,-16.221 -3.489,-7.858 -2.229,-14.896 3.39,-21.162 C -11.313,2.041 -6.175,-0.285 0,0"
             style="fill:#ff6c05;fill-opacity:1;fill-rule:nonzero;stroke:none"
             id="path28" /></g><g
           id="g30"
           transform="translate(371.4926,559.9806)"><path
             d="m 0,0 c 0.61,2.121 1.131,4.272 1.847,6.357 1.895,5.52 0.79,9.509 -3.909,12.971 -1.632,1.202 -3.52,2.052 -5.259,3.115 -1.496,0.915 -3.233,1.657 -4.33,2.934 -0.975,1.134 -1.886,3.058 -1.581,4.337 0.268,1.12 2.157,2.357 3.513,2.629 5.964,1.194 11.65,0.214 16.77,-3.21 3.034,-2.029 3.247,-3.462 2.161,-6.852 C 8.676,20.608 8.474,18.539 8.944,16.883 11.181,8.995 24.37,1.416 32.343,3.451 c 1.734,0.442 3.664,1.635 4.673,3.067 1.736,2.465 3.835,2.632 6.067,1.658 6.451,-2.817 10.46,-7.877 12.315,-14.595 0.623,-2.255 -0.935,-4.192 -3.278,-4.042 -1.694,0.109 -3.452,0.664 -4.989,1.414 -2.246,1.096 -4.26,2.655 -6.476,3.822 -5.65,2.977 -11.33,1.887 -14.596,-3.522 -3.206,-5.311 -9.048,-6.339 -14.335,-4.63 C 5.054,-11.222 0.351,-5.764 0,0"
             style="fill:#ff6c05;fill-opacity:1;fill-rule:nonzero;stroke:none"
             id="path32" /></g><g
           id="g34"
           transform="translate(267.2966,526.2576)"><path
             d="m 0,0 c 0,-1.581 -0.068,-3.166 0.012,-4.743 0.298,-5.89 4.669,-10.354 10.43,-10.711 5.856,-0.362 9.286,-2.713 10.647,-8.38 0.755,-3.143 0.841,-6.68 0.256,-9.861 -1.104,-6.006 -5.276,-9.276 -11.293,-9.779 -6.883,-0.575 -9.666,-5.732 -10.03,-11.608 -0.177,-2.869 0.32,-5.812 -0.129,-8.619 -0.268,-1.677 -1.461,-3.904 -2.83,-4.48 -1.041,-0.438 -3.477,0.955 -4.487,2.191 -3.632,4.451 -5.484,9.646 -5.061,15.494 0.236,3.264 1.533,4.581 4.803,4.889 2.883,0.272 4.853,1.975 6.098,4.345 4.129,7.857 4.178,15.836 0.089,23.728 -1.397,2.697 -3.673,4.511 -6.858,4.562 -2.788,0.045 -3.835,1.82 -4.066,4.058 -0.664,6.437 1.309,12.147 5.643,16.891 0.894,0.979 2.963,1.796 4.063,1.425 1.154,-0.39 2.232,-2.198 2.552,-3.571 C 0.27,3.98 -0.054,1.952 -0.054,0 -0.036,0 -0.018,0 0,0"
             style="fill:#939598;fill-opacity:1;fill-rule:nonzero;stroke:none"
             id="path36" /></g><g
           id="g38"
           transform="translate(365.9867,400.9397)"><path
             d="m 0,0 c -1.483,0.107 -3.067,-0.073 -4.419,0.405 -1.28,0.453 -3.022,1.427 -3.274,2.48 -0.292,1.221 0.41,3.279 1.403,4.087 2.277,1.853 5.095,3.024 7.498,4.745 2,1.432 4.117,2.982 5.476,4.964 2.321,3.385 2.027,7.128 0.29,10.86 -2.541,5.457 -1.858,9.118 2.335,13.39 3.79,3.861 8.387,5.69 13.833,5.262 4.036,-0.318 6.366,-3.119 8.72,-5.91 3.518,-4.169 7.037,-5.306 12.149,-3.475 2.325,0.833 4.407,2.337 6.616,3.505 1.551,0.821 3.055,1.845 4.712,2.329 3.697,1.08 5.967,-1.229 4.748,-4.859 -1.943,-5.789 -5.599,-10.248 -11.147,-12.951 -2.975,-1.45 -4.699,-0.965 -6.689,1.668 -1.87,2.474 -4.562,3.461 -7.36,3.199 C 26.524,28.913 19.592,25.353 14.982,18.056 13.249,15.312 12.752,12.379 14.467,9.367 15.632,7.323 14.632,5.791 13.166,4.486 9.419,1.15 4.866,0.131 0,0"
             style="fill:#0e99cd;fill-opacity:1;fill-rule:nonzero;stroke:none"
             id="path40" /></g><g
           id="g42"
           transform="translate(446.1974,496.5625)"><path
             d="m 0,0 c -0.786,-3.177 -1.253,-6.316 -2.363,-9.208 -1.201,-3.128 -3.449,-3.198 -5.36,-0.497 -3.123,4.415 -3.144,15.081 -0.038,19.479 1.874,2.653 4.303,2.631 5.414,-0.355 C -1.235,6.43 -0.768,3.201 0,0"
             style="fill:#939598;fill-opacity:1;fill-rule:nonzero;stroke:none"
             id="path44" /></g><g
           id="g46"
           transform="translate(403.9304,571.5273)"><path
             d="m 0,0 c -6.967,1.025 -12.283,3.752 -15.972,9.075 -0.736,1.061 -1.066,2.969 -0.61,4.091 0.298,0.734 2.392,1.163 3.606,1.031 C -6.777,13.519 -1.832,10.351 2.128,5.698 2.952,4.73 3.587,2.789 3.157,1.794 2.729,0.804 0.852,0.439 0,0"
             style="fill:#ff6c05;fill-opacity:1;fill-rule:nonzero;stroke:none"
             id="path48" /></g><g
           id="g50"
           transform="translate(295.5228,569.5125)"><path
             d="m 0,0 c -0.832,0.544 -2.451,1.073 -3.014,2.153 -0.398,0.761 0.347,2.511 1.084,3.406 4.044,4.911 9.308,7.851 15.592,8.792 0.951,0.143 2.696,-0.36 2.913,-0.974 0.403,-1.144 0.391,-2.852 -0.217,-3.864 C 13.533,4.814 8.931,2.446 3.901,0.809 2.857,0.47 1.741,0.353 0,0"
             style="fill:#0e99cd;fill-opacity:1;fill-rule:nonzero;stroke:none"
             id="path52" /></g><g
           id="g54"
           transform="translate(259.6207,496.7512)"><path
             d="m 0,0 c -0.994,-3.266 -1.564,-6.482 -2.945,-9.3 -1.41,-2.876 -3.812,-2.674 -5.066,0.258 -2.595,6.068 -2.557,12.263 -0.007,18.332 1.216,2.896 3.793,3.088 5.104,0.25 C -1.556,6.601 -0.972,3.306 0,0"
             style="fill:#939598;fill-opacity:1;fill-rule:nonzero;stroke:none"
             id="path56" /></g><g
           id="g58"
           transform="translate(403.6245,421.814)"><path
             d="M 0,0 C 0.904,-0.517 2.655,-0.939 2.977,-1.861 3.328,-2.865 2.702,-4.64 1.9,-5.547 c -4.178,-4.722 -9.249,-8.016 -15.75,-8.364 -2.95,-0.158 -3.984,1.497 -2.44,4.052 C -12.727,-3.962 -7.076,-1.316 0,0"
             style="fill:#0e99cd;fill-opacity:1;fill-rule:nonzero;stroke:none"
             id="path60" /></g><g
           id="g62"
           transform="translate(295.8474,423.9244)"><path
             d="m 0,0 c 6.815,-1.302 12.148,-4.03 15.783,-9.387 1.802,-2.656 0.625,-4.598 -2.562,-4.324 -6.347,0.545 -11.345,3.777 -15.368,8.528 -0.714,0.844 -1.293,2.626 -0.874,3.397 C -2.499,-0.828 -0.874,-0.47 0,0"
             style="fill:#ff6c05;fill-opacity:1;fill-rule:nonzero;stroke:none"
             id="path64" /></g><g
           id="g66"
           transform="translate(520.5869,546.8784)"><path
             d="m 0,0 c -0.195,1.921 -0.555,3.892 -1.075,5.912 -0.326,1.237 -0.733,2.475 -1.222,3.713 -0.488,1.237 -1.092,2.443 -1.807,3.616 -0.586,0.911 -1.207,1.742 -1.857,2.492 -0.652,0.748 -1.304,1.383 -1.954,1.906 -1.955,1.563 -3.796,2.491 -5.522,2.784 -1.727,0.294 -2.948,0.44 -3.665,0.44 h -0.634 c -0.23,0 -0.44,-0.033 -0.636,-0.097 -1.042,-0.066 -2.086,-0.262 -3.128,-0.587 -1.042,-0.326 -2.019,-0.749 -2.931,-1.27 -2.345,-1.368 -4.187,-3.161 -5.521,-5.375 -1.336,-2.215 -2.33,-4.495 -2.98,-6.84 -0.652,-2.477 -1.06,-4.854 -1.222,-7.134 -0.163,-2.281 -0.244,-4.104 -0.244,-5.472 0,-1.955 0.064,-3.747 0.195,-5.375 0.13,-1.629 0.326,-3.127 0.586,-4.495 0.783,-4.3 1.987,-7.656 3.617,-10.065 1.626,-2.411 3.322,-4.202 5.081,-5.375 1.563,-0.977 3.061,-1.629 4.495,-1.954 1.433,-0.327 2.605,-0.489 3.518,-0.489 0.782,0 1.595,0.064 2.443,0.196 0.846,0.129 1.693,0.357 2.541,0.684 1.498,0.586 2.981,1.497 4.446,2.736 1.466,1.237 2.786,2.866 3.957,4.886 1.108,2.018 1.939,4.217 2.493,6.596 0.552,2.378 0.928,4.772 1.124,7.182 0.064,1.042 0.113,2.085 0.146,3.128 0.032,1.041 0.049,2.051 0.049,3.029 C 0.293,-3.665 0.195,-1.922 0,0 m 14.071,-5.57 v -0.537 -0.538 -0.538 c 0,-10.423 -2.899,-18.974 -8.697,-25.651 -5.799,-6.679 -13.258,-10.017 -22.378,-10.017 -8.34,0 -15.621,3.03 -21.84,9.088 -6.223,6.059 -9.333,14.984 -9.333,26.776 0,10.097 2.736,18.665 8.209,25.7 5.472,7.036 13.192,10.554 23.16,10.554 9.706,0 17.182,-3.42 22.427,-10.261 5.243,-6.84 8.062,-14.853 8.452,-24.039 z"
             style="fill:#0e99cd;fill-opacity:1;fill-rule:nonzero;stroke:none"
             id="path68" /></g><g
           id="g70"
           transform="translate(543.1592,546.2432)"><path
             d="m 0,0 v 0.244 0.245 c 0.064,1.497 0.162,2.638 0.294,3.42 0.13,0.781 0.52,1.498 1.172,2.15 0.13,0.129 0.294,0.276 0.489,0.44 0.195,0.161 0.391,0.308 0.586,0.439 1.107,0.782 2.443,1.449 4.007,2.003 1.563,0.553 3.159,0.993 4.788,1.32 1.433,0.325 2.834,0.552 4.202,0.684 1.368,0.129 2.572,0.195 3.615,0.195 3.257,0 5.879,-0.342 7.868,-1.026 1.986,-0.684 3.566,-1.45 4.739,-2.297 0.52,-0.39 0.992,-0.781 1.417,-1.172 0.423,-0.391 0.797,-0.75 1.124,-1.075 0.259,0.26 0.553,0.537 0.879,0.831 0.325,0.293 0.684,0.601 1.075,0.928 0.65,0.455 1.432,0.928 2.345,1.417 0.912,0.488 2.052,0.928 3.421,1.319 1.368,0.391 2.785,0.667 4.25,0.831 1.466,0.162 2.915,0.244 4.349,0.244 2.084,0 4.136,-0.212 6.156,-0.635 2.019,-0.424 3.843,-1.287 5.472,-2.589 C 63.29,7.068 64.12,6.14 64.74,5.13 c 0.618,-1.01 1.09,-2.037 1.417,-3.078 0.455,-1.304 0.716,-2.59 0.782,-3.86 0.064,-1.27 0.098,-2.362 0.098,-3.274 v -33.615 c 0,-0.718 -0.132,-1.239 -0.391,-1.564 -0.261,-0.327 -0.782,-0.489 -1.564,-0.489 h -8.11 c -0.848,0 -1.402,0.147 -1.661,0.44 -0.262,0.293 -0.392,0.863 -0.392,1.71 v 31.955 1.661 c 0,0.587 -0.033,1.139 -0.098,1.661 -0.195,1.823 -0.798,3.469 -1.807,4.935 -1.011,1.466 -2.949,2.199 -5.815,2.199 -1.303,0 -2.411,-0.195 -3.322,-0.586 C 42.964,2.834 42.248,2.377 41.728,1.856 40.685,0.943 40.065,-0.049 39.87,-1.124 39.675,-2.199 39.577,-3.518 39.577,-5.082 V -38.6 c 0,-0.781 -0.114,-1.336 -0.342,-1.661 -0.229,-0.327 -0.766,-0.489 -1.612,-0.489 h -7.817 c -0.783,0 -1.369,0.113 -1.76,0.342 -0.391,0.228 -0.586,0.798 -0.586,1.711 v 32.638 c 0,0.521 -0.017,1.173 -0.049,1.955 -0.033,0.781 -0.146,1.595 -0.342,2.443 -0.327,1.432 -1.01,2.751 -2.052,3.957 -1.043,1.205 -2.77,1.808 -5.179,1.808 -0.327,0 -0.864,-0.033 -1.612,-0.098 C 17.476,3.941 16.677,3.647 15.831,3.127 15.636,2.996 15.406,2.849 15.147,2.688 14.886,2.524 14.658,2.345 14.463,2.15 13.354,1.107 12.688,0 12.46,-1.173 12.23,-2.345 12.118,-3.649 12.118,-5.082 V -38.6 c 0,-0.847 -0.147,-1.417 -0.44,-1.71 -0.293,-0.293 -0.865,-0.44 -1.71,-0.44 H 2.15 c -0.913,0 -1.5,0.162 -1.758,0.489 C 0.13,-39.936 0,-39.415 0,-38.697 Z"
             style="fill:#0e99cd;fill-opacity:1;fill-rule:nonzero;stroke:none"
             id="path72" /></g><g
           id="g74"
           transform="translate(661.1074,507.5459)"><path
             d="M 0,0 C 0,-0.848 -0.164,-1.402 -0.489,-1.661 -0.815,-1.922 -1.368,-2.052 -2.15,-2.052 h -7.818 c -0.977,0 -1.58,0.195 -1.807,0.586 -0.23,0.391 -0.342,0.944 -0.342,1.661 v 33.03 1.612 c 0,0.553 -0.067,1.124 -0.196,1.71 -0.196,1.694 -0.847,3.225 -1.955,4.593 -1.108,1.368 -3.192,2.052 -6.253,2.052 -2.412,0 -4.154,-0.473 -5.229,-1.417 -1.074,-0.945 -1.775,-1.971 -2.101,-3.078 -0.26,-0.718 -0.407,-1.402 -0.439,-2.052 -0.034,-0.652 -0.049,-1.206 -0.049,-1.661 V 0.293 c 0,-0.977 -0.164,-1.612 -0.489,-1.905 -0.326,-0.294 -0.944,-0.44 -1.857,-0.44 h -7.719 c -0.783,0 -1.32,0.13 -1.613,0.391 -0.293,0.259 -0.44,0.813 -0.44,1.661 v 38.6 c 0,1.954 0.211,3.549 0.636,4.788 0.423,1.237 1.742,2.377 3.958,3.42 2.604,1.172 5.308,1.97 8.11,2.394 2.801,0.423 5.603,0.635 8.404,0.635 3.387,0 6.074,-0.244 8.062,-0.733 1.986,-0.488 3.533,-1.025 4.641,-1.612 0.456,-0.261 0.864,-0.522 1.222,-0.782 0.358,-0.261 0.667,-0.488 0.929,-0.684 0.976,-0.847 1.759,-1.71 2.345,-2.589 0.587,-0.88 1.042,-1.808 1.368,-2.785 0.39,-1.109 0.618,-2.199 0.684,-3.274 C -0.034,36.303 0,35.309 0,34.397 Z"
             style="fill:#0e99cd;fill-opacity:1;fill-rule:nonzero;stroke:none"
             id="path76" /></g><g
           id="g78"
           transform="translate(693.1592,498.751)"><path
             d="m 0,0 c -0.327,-0.846 -0.718,-1.823 -1.173,-2.932 -0.456,-1.107 -0.976,-2.247 -1.563,-3.42 -1.434,-2.605 -3.356,-4.999 -5.766,-7.182 -2.41,-2.182 -5.668,-3.274 -9.771,-3.274 -2.998,0 -5.164,0.621 -6.499,1.857 -1.336,1.238 -2.003,2.638 -2.003,4.202 0,1.434 0.488,2.672 1.465,3.713 0.978,1.043 2.214,1.564 3.713,1.564 0.392,0 0.831,-0.049 1.32,-0.147 0.489,-0.098 1.026,-0.244 1.612,-0.44 h 0.099 c 0.52,-0.129 1.025,-0.244 1.514,-0.342 0.489,-0.098 0.928,-0.146 1.319,-0.146 1.368,0 2.556,0.424 3.567,1.27 1.009,0.847 1.97,2.248 2.883,4.202 0.39,0.847 0.781,1.793 1.173,2.834 0.39,1.043 0.781,2.183 1.172,3.42 l -18.86,49.056 c -0.195,0.52 -0.327,0.911 -0.391,1.173 -0.066,0.259 -0.098,0.454 -0.098,0.586 0,0.455 0.113,0.781 0.343,0.977 0.227,0.196 0.471,0.293 0.732,0.293 0.13,0.064 0.26,0.098 0.391,0.098 h 0.391 8.991 c 0.65,0 1.123,-0.066 1.417,-0.195 0.293,-0.132 0.503,-0.392 0.634,-0.782 0.065,-0.132 0.147,-0.293 0.244,-0.489 0.098,-0.195 0.179,-0.424 0.245,-0.684 L -1.368,21.401 9.479,55.212 c 0.064,0.13 0.113,0.26 0.147,0.391 0.031,0.13 0.08,0.259 0.146,0.391 0.196,0.521 0.456,0.88 0.782,1.075 0.325,0.195 0.88,0.293 1.661,0.293 h 5.863 0.391 0.391 c 0.26,-0.066 0.521,-0.195 0.782,-0.391 0.259,-0.196 0.391,-0.522 0.391,-0.977 v -0.147 -0.146 c 0,-0.196 -0.049,-0.391 -0.147,-0.587 -0.098,-0.195 -0.212,-0.522 -0.342,-0.977 z"
             style="fill:#0e99cd;fill-opacity:1;fill-rule:nonzero;stroke:none"
             id="path80" /></g><g
           id="g82"
           transform="translate(480.0981,497.1479)"><path
             d="M 0,0 C 0,0.782 0.162,1.286 0.489,1.515 0.814,1.742 1.4,1.857 2.248,1.857 h 7.72 c 0.845,0 1.417,-0.083 1.71,-0.245 0.293,-0.163 0.44,-0.7 0.44,-1.612 v -70.847 c 0,-0.848 -0.164,-1.402 -0.489,-1.661 -0.326,-0.261 -0.879,-0.391 -1.661,-0.391 h -7.72 c -0.848,0 -1.434,0.098 -1.759,0.293 C 0.162,-72.411 0,-71.825 0,-70.847 Z"
             style="fill:#ff6c05;fill-opacity:1;fill-rule:nonzero;stroke:none"
             id="path84" /></g><g
           id="g86"
           transform="translate(514.8867,426.3984)"><path
             d="M 0,0 C 0,-0.781 -0.114,-1.336 -0.342,-1.661 -0.571,-1.988 -1.173,-2.149 -2.15,-2.149 h -8.501 c -0.783,0 -1.256,0.146 -1.417,0.439 -0.164,0.293 -0.245,0.831 -0.245,1.612 v 46.515 c 0,0.717 0.098,1.237 0.293,1.564 0.196,0.326 0.716,0.489 1.564,0.489 h 8.306 c 0.912,0 1.481,-0.147 1.71,-0.44 0.227,-0.294 0.375,-0.864 0.44,-1.711 z m 0.195,61.516 v -0.147 c 0,-1.695 -0.586,-3.096 -1.758,-4.202 -1.173,-1.108 -2.705,-1.661 -4.593,-1.661 -2.021,0 -3.633,0.553 -4.838,1.661 -1.206,1.106 -1.808,2.507 -1.808,4.202 0,1.693 0.57,3.142 1.71,4.348 1.14,1.205 2.785,1.808 4.936,1.808 2.084,0 3.647,-0.587 4.69,-1.759 1.041,-1.173 1.596,-2.541 1.661,-4.104 z"
             style="fill:#ff6c05;fill-opacity:1;fill-rule:nonzero;stroke:none"
             id="path88" /></g><g
           id="g90"
           transform="translate(565.4072,426.3008)"><path
             d="M 0,0 C 0,-0.848 -0.164,-1.401 -0.489,-1.661 -0.815,-1.922 -1.368,-2.052 -2.15,-2.052 h -7.818 c -0.977,0 -1.58,0.196 -1.807,0.586 -0.23,0.391 -0.342,0.944 -0.342,1.661 v 33.031 1.612 c 0,0.553 -0.067,1.123 -0.196,1.71 -0.196,1.693 -0.847,3.224 -1.955,4.593 -1.108,1.368 -3.192,2.051 -6.253,2.051 -2.412,0 -4.154,-0.472 -5.229,-1.417 -1.074,-0.945 -1.775,-1.97 -2.101,-3.078 -0.26,-0.718 -0.407,-1.401 -0.439,-2.051 -0.034,-0.653 -0.049,-1.207 -0.049,-1.662 V 0.293 c 0,-0.977 -0.164,-1.612 -0.489,-1.905 -0.326,-0.293 -0.944,-0.44 -1.857,-0.44 h -7.719 c -0.783,0 -1.32,0.13 -1.613,0.391 -0.293,0.26 -0.44,0.813 -0.44,1.661 v 38.6 c 0,1.954 0.211,3.549 0.636,4.788 0.423,1.237 1.742,2.378 3.958,3.421 2.604,1.171 5.308,1.969 8.11,2.393 2.801,0.423 5.603,0.636 8.404,0.636 3.387,0 6.074,-0.244 8.062,-0.734 1.986,-0.488 3.533,-1.025 4.641,-1.612 0.456,-0.261 0.864,-0.522 1.222,-0.781 0.358,-0.262 0.667,-0.489 0.929,-0.685 0.976,-0.847 1.759,-1.71 2.345,-2.589 0.587,-0.879 1.042,-1.808 1.368,-2.785 0.39,-1.109 0.618,-2.199 0.684,-3.274 C -0.034,36.304 0,35.31 0,34.397 Z"
             style="fill:#ff6c05;fill-opacity:1;fill-rule:nonzero;stroke:none"
             id="path92" /></g><g
           id="g94"
           transform="translate(599.9023,453.3691)"><path
             d="m 0,0 20.13,-26.188 c 0.26,-0.328 0.472,-0.621 0.636,-0.88 0.161,-0.261 0.244,-0.523 0.244,-0.782 0,-0.522 -0.196,-0.864 -0.587,-1.026 -0.391,-0.163 -0.847,-0.244 -1.367,-0.244 H 8.893 c -0.587,0 -1.06,0.032 -1.417,0.098 -0.36,0.063 -0.669,0.195 -0.929,0.39 -0.131,0.13 -0.261,0.277 -0.391,0.44 -0.132,0.162 -0.293,0.342 -0.488,0.538 l -17.59,23.453 v -23.063 c 0,-0.847 -0.181,-1.368 -0.538,-1.563 -0.358,-0.195 -0.895,-0.293 -1.612,-0.293 h -7.818 c -0.847,0 -1.401,0.13 -1.661,0.391 -0.261,0.259 -0.39,0.782 -0.39,1.563 v 70.945 c 0,0.846 0.161,1.368 0.488,1.563 0.325,0.196 0.813,0.294 1.466,0.294 h 7.915 c 0.717,0 1.254,-0.066 1.612,-0.196 0.357,-0.131 0.538,-0.652 0.538,-1.564 V 0 l 17.59,19.545 c 0.259,0.325 0.503,0.601 0.732,0.83 0.228,0.228 0.44,0.406 0.635,0.537 0.325,0.26 0.668,0.424 1.027,0.489 0.357,0.064 0.863,0.098 1.514,0.098 h 6.646 0.39 c 0.13,0 0.293,-0.034 0.489,-0.098 0.259,0 0.503,-0.097 0.733,-0.293 0.228,-0.196 0.342,-0.489 0.342,-0.879 0,-0.196 -0.033,-0.376 -0.098,-0.538 -0.065,-0.164 -0.132,-0.31 -0.195,-0.44 C 17.751,19.12 17.621,18.974 17.491,18.812 17.36,18.648 17.23,18.47 17.101,18.274 Z"
             style="fill:#ff6c05;fill-opacity:1;fill-rule:nonzero;stroke:none"
             id="path96" /></g></g></g></g></svg>
